<?xml version="1.0" encoding="utf-8" standalone="no"?>
<!DOCTYPE svg PUBLIC "-//W3C//DTD SVG 1.1//EN"
  "http://www.w3.org/Graphics/SVG/1.1/DTD/svg11.dtd">
<svg xmlns:xlink="http://www.w3.org/1999/xlink" width="308.396961pt" height="820.8pt" viewBox="0 0 308.396961 820.8" xmlns="http://www.w3.org/2000/svg" version="1.1">
 <metadata>
  <rdf:RDF xmlns:dc="http://purl.org/dc/elements/1.1/" xmlns:cc="http://creativecommons.org/ns#" xmlns:rdf="http://www.w3.org/1999/02/22-rdf-syntax-ns#">
   <cc:Work>
    <dc:type rdf:resource="http://purl.org/dc/dcmitype/StillImage"/>
    <dc:date>2026-05-26T11:45:31.653934</dc:date>
    <dc:format>image/svg+xml</dc:format>
    <dc:creator>
     <cc:Agent>
      <dc:title>Matplotlib v3.6.3, https://matplotlib.org/</dc:title>
     </cc:Agent>
    </dc:creator>
   </cc:Work>
  </rdf:RDF>
 </metadata>
 <defs>
  <style type="text/css">*{stroke-linejoin: round; stroke-linecap: butt}</style>
 </defs>
 <g id="figure_1">
  <g id="patch_1">
   <path d="M 0 820.8 
L 308.396961 820.8 
L 308.396961 0 
L 0 0 
z
" style="fill: #ffffff"/>
  </g>
  <g id="axes_1">
   <g id="patch_2">
    <path d="M 44.520234 125.004522 
L 268.289689 125.004522 
Q 273.554852 125.004522 273.554852 119.394783 
L 273.554852 56.285217 
Q 273.554852 50.675478 268.289689 50.675478 
L 44.520234 50.675478 
Q 39.25507 50.675478 39.25507 56.285217 
L 39.25507 119.394783 
Q 39.25507 125.004522 44.520234 125.004522 
z
" clip-path="url(#p8f6cbf10f3)" style="fill: #e3f2fd; stroke: #1e62a6; stroke-width: 3; stroke-linejoin: miter"/>
   </g>
   <g id="patch_3">
    <path d="M 54.392416 205.644522 
L 258.417507 205.644522 
Q 263.68267 205.644522 263.68267 200.034783 
L 263.68267 150.949565 
Q 263.68267 145.339826 258.417507 145.339826 
L 54.392416 145.339826 
Q 49.127252 145.339826 49.127252 150.949565 
L 49.127252 200.034783 
Q 49.127252 205.644522 54.392416 205.644522 
z
" clip-path="url(#p8f6cbf10f3)" style="fill: #e3f2fd; stroke: #1e62a6; stroke-width: 3; stroke-linejoin: miter"/>
   </g>
   <g id="patch_4">
    <path d="M 44.520234 300.30887 
L 268.289689 300.30887 
Q 273.554852 300.30887 273.554852 294.69913 
L 273.554852 231.589565 
Q 273.554852 225.979826 268.289689 225.979826 
L 44.520234 225.979826 
Q 39.25507 225.979826 39.25507 231.589565 
L 39.25507 294.69913 
Q 39.25507 300.30887 44.520234 300.30887 
z
" clip-path="url(#p8f6cbf10f3)" style="fill: #e3f2fd; stroke: #1e62a6; stroke-width: 3; stroke-linejoin: miter"/>
   </g>
   <g id="patch_5">
    <path d="M 44.520234 398.479304 
L 268.289689 398.479304 
Q 273.554852 398.479304 273.554852 392.869565 
L 273.554852 329.76 
Q 273.554852 324.150261 268.289689 324.150261 
L 44.520234 324.150261 
Q 39.25507 324.150261 39.25507 329.76 
L 39.25507 392.869565 
Q 39.25507 398.479304 44.520234 398.479304 
z
" clip-path="url(#p8f6cbf10f3)" style="fill: #fff3e0; stroke: #ef6c00; stroke-width: 3; stroke-linejoin: miter"/>
   </g>
   <g id="patch_6">
    <path d="M 54.392416 479.119304 
L 258.417507 479.119304 
Q 263.68267 479.119304 263.68267 473.509565 
L 263.68267 424.424348 
Q 263.68267 418.814609 258.417507 418.814609 
L 54.392416 418.814609 
Q 49.127252 418.814609 49.127252 424.424348 
L 49.127252 473.509565 
Q 49.127252 479.119304 54.392416 479.119304 
z
" clip-path="url(#p8f6cbf10f3)" style="fill: #fff3e0; stroke: #ef6c00; stroke-width: 3; stroke-linejoin: miter"/>
   </g>
   <g id="patch_7">
    <path d="M 44.520234 573.783652 
L 268.289689 573.783652 
Q 273.554852 573.783652 273.554852 568.173913 
L 273.554852 505.064348 
Q 273.554852 499.454609 268.289689 499.454609 
L 44.520234 499.454609 
Q 39.25507 499.454609 39.25507 505.064348 
L 39.25507 568.173913 
Q 39.25507 573.783652 44.520234 573.783652 
z
" clip-path="url(#p8f6cbf10f3)" style="fill: #fff3e0; stroke: #ef6c00; stroke-width: 3; stroke-linejoin: miter"/>
   </g>
   <g id="patch_8">
    <path d="M 44.520234 700.002783 
L 268.289689 700.002783 
Q 273.554852 700.002783 273.554852 694.393043 
L 273.554852 617.25913 
Q 273.554852 611.649391 268.289689 611.649391 
L 44.520234 611.649391 
Q 39.25507 611.649391 39.25507 617.25913 
L 39.25507 694.393043 
Q 39.25507 700.002783 44.520234 700.002783 
z
" clip-path="url(#p8f6cbf10f3)" style="fill: #e8f5e9; stroke: #2e7d32; stroke-width: 3; stroke-linejoin: miter"/>
   </g>
   <g id="patch_9">
    <path d="M 44.520234 798.173217 
L 268.289689 798.173217 
Q 273.554852 798.173217 273.554852 792.563478 
L 273.554852 729.453913 
Q 273.554852 723.844174 268.289689 723.844174 
L 44.520234 723.844174 
Q 39.25507 723.844174 39.25507 729.453913 
L 39.25507 792.563478 
Q 39.25507 798.173217 44.520234 798.173217 
z
" clip-path="url(#p8f6cbf10f3)" style="fill: #ffebee; stroke: #c62828; stroke-width: 3; stroke-linejoin: miter"/>
   </g>
   <g id="text_1">
    <!-- Network Traffic -->
    <g transform="translate(99.182618 82.311361) scale(0.13 -0.13)">
     <defs>
      <path id="DejaVuSerif-Bold-4e" d="M 281 0 
L 281 378 
L 878 378 
L 878 4288 
L 281 4288 
L 281 4666 
L 1741 4666 
L 4556 1363 
L 4556 4288 
L 3963 4288 
L 3963 4666 
L 5594 4666 
L 5594 4288 
L 4997 4288 
L 4997 0 
L 4178 0 
L 1319 3372 
L 1319 378 
L 1913 378 
L 1913 0 
L 281 0 
z
" transform="scale(0.015625)"/>
      <path id="DejaVuSerif-Bold-65" d="M 2566 1875 
Q 2566 2531 2444 2795 
Q 2322 3059 2028 3059 
Q 1744 3059 1620 2800 
Q 1497 2541 1497 1931 
L 1497 1875 
L 2566 1875 
z
M 3781 1503 
L 1497 1503 
L 1497 1478 
Q 1497 834 1690 548 
Q 1884 263 2316 263 
Q 2675 263 2897 453 
Q 3119 644 3181 1006 
L 3700 1006 
Q 3566 441 3166 175 
Q 2766 -91 2047 -91 
Q 1184 -91 723 364 
Q 263 819 263 1663 
Q 263 2488 734 2950 
Q 1206 3413 2047 3413 
Q 2872 3413 3312 2927 
Q 3753 2441 3781 1503 
z
" transform="scale(0.015625)"/>
      <path id="DejaVuSerif-Bold-74" d="M 634 2944 
L 153 2944 
L 153 3322 
L 634 3322 
L 634 4353 
L 1741 4353 
L 1741 3322 
L 2663 3322 
L 2663 2944 
L 1741 2944 
L 1741 909 
Q 1741 475 1809 369 
Q 1878 263 2059 263 
Q 2259 263 2356 397 
Q 2453 531 2459 813 
L 2925 813 
Q 2897 313 2651 111 
Q 2406 -91 1806 -91 
Q 1122 -91 878 123 
Q 634 338 634 909 
L 634 2944 
z
" transform="scale(0.015625)"/>
      <path id="DejaVuSerif-Bold-77" d="M 3450 3322 
L 4206 1106 
L 4831 2944 
L 4397 2944 
L 4397 3322 
L 5638 3322 
L 5638 2944 
L 5247 2944 
L 4244 0 
L 3481 0 
L 2778 2081 
L 2069 0 
L 1313 0 
L 306 2944 
L -56 2944 
L -56 3322 
L 1825 3322 
L 1825 2944 
L 1434 2944 
L 2047 1147 
L 2791 3322 
L 3450 3322 
z
" transform="scale(0.015625)"/>
      <path id="DejaVuSerif-Bold-6f" d="M 2138 263 
Q 2488 263 2630 563 
Q 2772 863 2772 1663 
Q 2772 2463 2631 2761 
Q 2491 3059 2138 3059 
Q 1784 3059 1640 2757 
Q 1497 2456 1497 1663 
Q 1497 869 1640 566 
Q 1784 263 2138 263 
z
M 2138 -91 
Q 1259 -91 761 376 
Q 263 844 263 1663 
Q 263 2484 761 2948 
Q 1259 3413 2138 3413 
Q 3019 3413 3516 2948 
Q 4013 2484 4013 1663 
Q 4013 844 3514 376 
Q 3016 -91 2138 -91 
z
" transform="scale(0.015625)"/>
      <path id="DejaVuSerif-Bold-72" d="M 3438 3359 
L 3438 2369 
L 3084 2369 
Q 3066 2634 2941 2764 
Q 2816 2894 2578 2894 
Q 2216 2894 2006 2575 
Q 1797 2256 1797 1691 
L 1797 378 
L 2400 378 
L 2400 0 
L 219 0 
L 219 378 
L 691 378 
L 691 2944 
L 184 2944 
L 184 3322 
L 1797 3322 
L 1797 2731 
Q 1959 3078 2226 3245 
Q 2494 3413 2881 3413 
Q 2978 3413 3117 3398 
Q 3256 3384 3438 3359 
z
" transform="scale(0.015625)"/>
      <path id="DejaVuSerif-Bold-6b" d="M 2216 0 
L 219 0 
L 219 378 
L 691 378 
L 691 4488 
L 219 4488 
L 219 4863 
L 1797 4863 
L 1797 1741 
L 3138 2944 
L 2741 2944 
L 2741 3322 
L 4256 3322 
L 4256 2944 
L 3641 2944 
L 2784 2175 
L 4184 378 
L 4544 378 
L 4544 0 
L 2638 0 
L 2638 378 
L 3028 378 
L 2106 1563 
L 1797 1288 
L 1797 378 
L 2216 378 
L 2216 0 
z
" transform="scale(0.015625)"/>
      <path id="DejaVuSerif-Bold-20" transform="scale(0.015625)"/>
      <path id="DejaVuSerif-Bold-54" d="M 1159 0 
L 1159 378 
L 1778 378 
L 1778 4238 
L 500 4238 
L 500 3500 
L 72 3500 
L 72 4666 
L 4697 4666 
L 4697 3500 
L 4275 3500 
L 4275 4238 
L 2988 4238 
L 2988 378 
L 3609 378 
L 3609 0 
L 1159 0 
z
" transform="scale(0.015625)"/>
      <path id="DejaVuSerif-Bold-61" d="M 3525 2041 
L 3525 378 
L 4000 378 
L 4000 0 
L 2419 0 
L 2419 422 
Q 2200 159 1931 34 
Q 1663 -91 1319 -91 
Q 809 -91 536 182 
Q 263 456 263 966 
Q 263 1525 655 1803 
Q 1047 2081 1838 2081 
L 2419 2081 
L 2419 2278 
Q 2419 2681 2228 2873 
Q 2038 3066 1638 3066 
Q 1306 3066 1126 2930 
Q 947 2794 872 2484 
L 519 2484 
L 519 3200 
Q 816 3306 1134 3359 
Q 1453 3413 1806 3413 
Q 2697 3413 3111 3081 
Q 3525 2750 3525 2041 
z
M 2419 1044 
L 2419 1709 
L 2003 1709 
Q 1694 1709 1528 1540 
Q 1363 1372 1363 1056 
Q 1363 741 1483 584 
Q 1603 428 1850 428 
Q 2106 428 2262 597 
Q 2419 766 2419 1044 
z
" transform="scale(0.015625)"/>
      <path id="DejaVuSerif-Bold-66" d="M 3097 4031 
L 2747 4031 
Q 2722 4275 2605 4394 
Q 2488 4513 2272 4513 
Q 2022 4513 1909 4333 
Q 1797 4153 1797 3750 
L 1797 3322 
L 2631 3322 
L 2631 2944 
L 1797 2944 
L 1797 378 
L 2438 378 
L 2438 0 
L 219 0 
L 219 378 
L 691 378 
L 691 2944 
L 197 2944 
L 197 3322 
L 691 3322 
L 691 3738 
Q 691 4291 1044 4577 
Q 1397 4863 2081 4863 
Q 2347 4863 2600 4833 
Q 2853 4803 3097 4744 
L 3097 4031 
z
" transform="scale(0.015625)"/>
      <path id="DejaVuSerif-Bold-69" d="M 588 4263 
Q 588 4516 763 4689 
Q 938 4863 1191 4863 
Q 1438 4863 1611 4689 
Q 1784 4516 1784 4263 
Q 1784 4016 1611 3842 
Q 1438 3669 1191 3669 
Q 938 3669 763 3841 
Q 588 4013 588 4263 
z
M 1797 378 
L 2272 378 
L 2272 0 
L 219 0 
L 219 378 
L 691 378 
L 691 2944 
L 219 2944 
L 219 3322 
L 1797 3322 
L 1797 378 
z
" transform="scale(0.015625)"/>
      <path id="DejaVuSerif-Bold-63" d="M 3609 1038 
Q 3491 469 3123 189 
Q 2756 -91 2125 -91 
Q 1238 -91 750 368 
Q 263 828 263 1663 
Q 263 2488 744 2950 
Q 1225 3413 2081 3413 
Q 2428 3413 2781 3347 
Q 3134 3281 3500 3150 
L 3500 2228 
L 3150 2228 
Q 3100 2650 2903 2854 
Q 2706 3059 2350 3059 
Q 1888 3059 1692 2746 
Q 1497 2434 1497 1663 
Q 1497 909 1687 586 
Q 1878 263 2309 263 
Q 2644 263 2845 463 
Q 3047 663 3091 1038 
L 3609 1038 
z
" transform="scale(0.015625)"/>
     </defs>
     <use xlink:href="#DejaVuSerif-Bold-4e"/>
     <use xlink:href="#DejaVuSerif-Bold-65" x="91.40625"/>
     <use xlink:href="#DejaVuSerif-Bold-74" x="155.029297"/>
     <use xlink:href="#DejaVuSerif-Bold-77" x="201.220703"/>
     <use xlink:href="#DejaVuSerif-Bold-6f" x="287.304688"/>
     <use xlink:href="#DejaVuSerif-Bold-72" x="354.003906"/>
     <use xlink:href="#DejaVuSerif-Bold-6b" x="406.689453"/>
     <use xlink:href="#DejaVuSerif-Bold-20" x="475.976562"/>
     <use xlink:href="#DejaVuSerif-Bold-54" x="510.791016"/>
     <use xlink:href="#DejaVuSerif-Bold-72" x="577.955078"/>
     <use xlink:href="#DejaVuSerif-Bold-61" x="630.640625"/>
     <use xlink:href="#DejaVuSerif-Bold-66" x="695.435547"/>
     <use xlink:href="#DejaVuSerif-Bold-66" x="738.453125"/>
     <use xlink:href="#DejaVuSerif-Bold-69" x="781.470703"/>
     <use xlink:href="#DejaVuSerif-Bold-63" x="819.458984"/>
    </g>
   </g>
   <g id="text_2">
    <!-- CICIDS2017 -->
    <g style="fill: #1e62a6" transform="translate(123.056797 104.761692) scale(0.105 -0.105)">
     <defs>
      <path id="DejaVuSerif-Italic-43" d="M 4300 1234 
Q 3966 581 3414 245 
Q 2863 -91 2119 -91 
Q 1663 -91 1303 65 
Q 944 222 700 525 
Q 419 875 334 1320 
Q 250 1766 359 2328 
Q 572 3416 1330 4083 
Q 2088 4750 3116 4750 
Q 3497 4750 3908 4650 
Q 4319 4550 4775 4347 
L 4569 3272 
L 4216 3272 
Q 4213 3859 3919 4137 
Q 3625 4416 2997 4416 
Q 2250 4416 1762 3886 
Q 1275 3356 1075 2328 
Q 875 1303 1156 773 
Q 1438 244 2184 244 
Q 2706 244 3092 492 
Q 3478 741 3725 1234 
L 4300 1234 
z
" transform="scale(0.015625)"/>
      <path id="DejaVuSerif-Italic-49" d="M 1194 331 
L 1788 331 
L 1725 0 
L -97 0 
L -34 331 
L 559 331 
L 1338 4331 
L 744 4331 
L 809 4666 
L 2631 4666 
L 2566 4331 
L 1972 4331 
L 1194 331 
z
" transform="scale(0.015625)"/>
      <path id="DejaVuSerif-Italic-44" d="M 1194 331 
L 1775 331 
Q 2684 331 3271 850 
Q 3859 1369 4048 2337 
Q 4238 3306 3852 3818 
Q 3466 4331 2553 4331 
L 1972 4331 
L 1194 331 
z
M -97 0 
L -34 331 
L 559 331 
L 1338 4331 
L 744 4331 
L 809 4666 
L 2666 4666 
Q 3872 4666 4426 4050 
Q 4981 3434 4766 2338 
Q 4553 1238 3758 619 
Q 2963 0 1759 0 
L -97 0 
z
" transform="scale(0.015625)"/>
      <path id="DejaVuSerif-Italic-53" d="M 184 225 
L 391 1288 
L 750 1284 
Q 663 753 905 498 
Q 1147 244 1744 244 
Q 2300 244 2636 464 
Q 2972 684 3053 1106 
Q 3119 1444 2976 1625 
Q 2834 1806 2300 1978 
L 1722 2163 
Q 1091 2366 877 2669 
Q 663 2972 766 3500 
Q 881 4094 1367 4422 
Q 1853 4750 2616 4750 
Q 2941 4750 3314 4679 
Q 3688 4609 4097 4475 
L 3906 3481 
L 3553 3481 
Q 3594 3975 3361 4195 
Q 3128 4416 2563 4416 
Q 2069 4416 1772 4214 
Q 1475 4013 1400 3628 
Q 1334 3294 1490 3103 
Q 1647 2913 2241 2725 
L 2784 2553 
Q 3381 2363 3593 2067 
Q 3806 1772 3709 1275 
Q 3578 597 3076 253 
Q 2575 -91 1716 -91 
Q 1331 -91 948 -12 
Q 566 66 184 225 
z
" transform="scale(0.015625)"/>
      <path id="DejaVuSerif-Italic-32" d="M 1050 3553 
L 700 3553 
L 863 4384 
Q 1231 4563 1589 4656 
Q 1947 4750 2272 4750 
Q 3000 4750 3353 4397 
Q 3706 4044 3588 3438 
Q 3456 2753 2313 1800 
Q 2225 1728 2178 1691 
L 772 513 
L 2719 513 
L 2831 1088 
L 3197 1088 
L 2984 0 
L -25 0 
L 41 341 
L 1731 1753 
Q 2291 2222 2567 2614 
Q 2844 3006 2928 3438 
Q 3019 3909 2825 4175 
Q 2631 4441 2200 4441 
Q 1753 4441 1467 4219 
Q 1181 3997 1050 3553 
z
" transform="scale(0.015625)"/>
      <path id="DejaVuSerif-Italic-30" d="M 1011 744 
Q 1147 219 1625 219 
Q 2103 219 2442 744 
Q 2781 1269 2988 2328 
Q 3194 3391 3058 3916 
Q 2922 4441 2444 4441 
Q 1966 4441 1627 3916 
Q 1288 3391 1081 2328 
Q 875 1269 1011 744 
z
M 1563 -91 
Q 803 -91 501 546 
Q 200 1184 422 2328 
Q 644 3475 1195 4112 
Q 1747 4750 2506 4750 
Q 3269 4750 3569 4112 
Q 3869 3475 3647 2328 
Q 3425 1184 2875 546 
Q 2325 -91 1563 -91 
z
" transform="scale(0.015625)"/>
      <path id="DejaVuSerif-Italic-31" d="M 447 0 
L 513 331 
L 1325 331 
L 2078 4213 
L 1019 3603 
L 1100 4013 
L 2381 4750 
L 2813 4750 
L 1953 331 
L 2766 331 
L 2700 0 
L 447 0 
z
" transform="scale(0.015625)"/>
      <path id="DejaVuSerif-Italic-37" d="M 4000 4347 
L 1331 0 
L 866 0 
L 3413 4153 
L 1256 4153 
L 1144 3578 
L 778 3578 
L 991 4666 
L 4063 4666 
L 4000 4347 
z
" transform="scale(0.015625)"/>
     </defs>
     <use xlink:href="#DejaVuSerif-Italic-43"/>
     <use xlink:href="#DejaVuSerif-Italic-49" x="76.513672"/>
     <use xlink:href="#DejaVuSerif-Italic-43" x="116.015625"/>
     <use xlink:href="#DejaVuSerif-Italic-49" x="192.529297"/>
     <use xlink:href="#DejaVuSerif-Italic-44" x="232.03125"/>
     <use xlink:href="#DejaVuSerif-Italic-53" x="312.207031"/>
     <use xlink:href="#DejaVuSerif-Italic-32" x="380.712891"/>
     <use xlink:href="#DejaVuSerif-Italic-30" x="444.335938"/>
     <use xlink:href="#DejaVuSerif-Italic-31" x="507.958984"/>
     <use xlink:href="#DejaVuSerif-Italic-37" x="571.582031"/>
    </g>
   </g>
   <g id="text_3">
    <!-- Feature Extraction -->
    <g transform="translate(98.769258 178.527486) scale(0.11 -0.11)">
     <defs>
      <path id="DejaVuSerif-Bold-46" d="M 300 0 
L 300 378 
L 897 378 
L 897 4288 
L 300 4288 
L 300 4666 
L 4459 4666 
L 4459 3566 
L 4031 3566 
L 4031 4238 
L 2106 4238 
L 2106 2741 
L 3291 2741 
L 3291 3334 
L 3719 3334 
L 3719 1722 
L 3291 1722 
L 3291 2316 
L 2106 2316 
L 2106 378 
L 2841 378 
L 2841 0 
L 300 0 
z
" transform="scale(0.015625)"/>
      <path id="DejaVuSerif-Bold-75" d="M 3963 3322 
L 3963 378 
L 4434 378 
L 4434 0 
L 2853 0 
L 2853 469 
Q 2656 172 2400 40 
Q 2144 -91 1753 -91 
Q 1194 -91 908 239 
Q 622 569 622 1209 
L 622 2944 
L 147 2944 
L 147 3322 
L 1728 3322 
L 1728 1381 
Q 1728 763 1831 595 
Q 1934 428 2209 428 
Q 2544 428 2698 675 
Q 2853 922 2853 1459 
L 2853 2944 
L 2450 2944 
L 2450 3322 
L 3963 3322 
z
" transform="scale(0.015625)"/>
      <path id="DejaVuSerif-Bold-45" d="M 300 0 
L 300 378 
L 897 378 
L 897 4288 
L 300 4288 
L 300 4666 
L 4494 4666 
L 4494 3566 
L 4063 3566 
L 4063 4238 
L 2100 4238 
L 2100 2741 
L 3322 2741 
L 3322 3334 
L 3750 3334 
L 3750 1722 
L 3322 1722 
L 3322 2316 
L 2100 2316 
L 2100 428 
L 4122 428 
L 4122 1100 
L 4550 1100 
L 4550 0 
L 300 0 
z
" transform="scale(0.015625)"/>
      <path id="DejaVuSerif-Bold-78" d="M 2247 2119 
L 2834 2944 
L 2425 2944 
L 2425 3322 
L 3719 3322 
L 3719 2944 
L 3278 2944 
L 2431 1759 
L 3419 378 
L 3859 378 
L 3859 0 
L 1747 0 
L 1747 378 
L 2175 378 
L 1550 1253 
L 922 378 
L 1369 378 
L 1369 0 
L 0 0 
L 0 378 
L 475 378 
L 1356 1619 
L 403 2944 
L 31 2944 
L 31 3322 
L 2059 3322 
L 2059 2944 
L 1656 2944 
L 2247 2119 
z
" transform="scale(0.015625)"/>
      <path id="DejaVuSerif-Bold-6e" d="M 219 0 
L 219 378 
L 691 378 
L 691 2944 
L 219 2944 
L 219 3322 
L 1797 3322 
L 1797 2853 
Q 1997 3150 2253 3281 
Q 2509 3413 2900 3413 
Q 3459 3413 3745 3083 
Q 4031 2753 4031 2113 
L 4031 378 
L 4506 378 
L 4506 0 
L 2522 0 
L 2522 378 
L 2925 378 
L 2925 2144 
Q 2925 2566 2817 2730 
Q 2709 2894 2444 2894 
Q 2109 2894 1953 2648 
Q 1797 2403 1797 1869 
L 1797 378 
L 2203 378 
L 2203 0 
L 219 0 
z
" transform="scale(0.015625)"/>
     </defs>
     <use xlink:href="#DejaVuSerif-Bold-46"/>
     <use xlink:href="#DejaVuSerif-Bold-65" x="65.496094"/>
     <use xlink:href="#DejaVuSerif-Bold-61" x="129.119141"/>
     <use xlink:href="#DejaVuSerif-Bold-74" x="193.914062"/>
     <use xlink:href="#DejaVuSerif-Bold-75" x="240.105469"/>
     <use xlink:href="#DejaVuSerif-Bold-72" x="312.810547"/>
     <use xlink:href="#DejaVuSerif-Bold-65" x="365.496094"/>
     <use xlink:href="#DejaVuSerif-Bold-20" x="429.119141"/>
     <use xlink:href="#DejaVuSerif-Bold-45" x="463.933594"/>
     <use xlink:href="#DejaVuSerif-Bold-78" x="540.154297"/>
     <use xlink:href="#DejaVuSerif-Bold-74" x="599.773438"/>
     <use xlink:href="#DejaVuSerif-Bold-72" x="645.964844"/>
     <use xlink:href="#DejaVuSerif-Bold-61" x="698.650391"/>
     <use xlink:href="#DejaVuSerif-Bold-63" x="763.445312"/>
     <use xlink:href="#DejaVuSerif-Bold-74" x="824.333984"/>
     <use xlink:href="#DejaVuSerif-Bold-69" x="870.525391"/>
     <use xlink:href="#DejaVuSerif-Bold-6f" x="908.513672"/>
     <use xlink:href="#DejaVuSerif-Bold-6e" x="975.212891"/>
    </g>
   </g>
   <g id="text_4">
    <!-- NIDS Classifier -->
    <g style="fill: #1e62a6" transform="translate(100.361758 257.615709) scale(0.13 -0.13)">
     <defs>
      <path id="DejaVuSerif-Bold-49" d="M 300 0 
L 300 378 
L 897 378 
L 897 4288 
L 300 4288 
L 300 4666 
L 2700 4666 
L 2700 4288 
L 2100 4288 
L 2100 378 
L 2700 378 
L 2700 0 
L 300 0 
z
" transform="scale(0.015625)"/>
      <path id="DejaVuSerif-Bold-44" d="M 2100 378 
L 2534 378 
Q 3266 378 3605 847 
Q 3944 1316 3944 2338 
Q 3944 3353 3606 3820 
Q 3269 4288 2534 4288 
L 2100 4288 
L 2100 378 
z
M 300 0 
L 300 378 
L 897 378 
L 897 4288 
L 300 4288 
L 300 4666 
L 2694 4666 
Q 3950 4666 4615 4066 
Q 5281 3466 5281 2338 
Q 5281 1203 4614 601 
Q 3947 0 2694 0 
L 300 0 
z
" transform="scale(0.015625)"/>
      <path id="DejaVuSerif-Bold-53" d="M 494 225 
L 494 1331 
L 891 1331 
Q 981 806 1318 547 
Q 1656 288 2253 288 
Q 2738 288 2991 472 
Q 3244 656 3244 1013 
Q 3244 1294 3072 1450 
Q 2900 1606 2363 1741 
L 1663 1913 
Q 978 2088 700 2398 
Q 422 2709 422 3284 
Q 422 3978 883 4364 
Q 1344 4750 2175 4750 
Q 2584 4750 3026 4681 
Q 3469 4613 3944 4475 
L 3944 3444 
L 3547 3444 
Q 3456 3925 3150 4148 
Q 2844 4372 2278 4372 
Q 1816 4372 1580 4211 
Q 1344 4050 1344 3731 
Q 1344 3441 1506 3289 
Q 1669 3138 2303 2975 
L 3003 2803 
Q 3653 2641 3945 2297 
Q 4238 1953 4238 1350 
Q 4238 644 3750 276 
Q 3263 -91 2316 -91 
Q 1859 -91 1409 -12 
Q 959 66 494 225 
z
" transform="scale(0.015625)"/>
      <path id="DejaVuSerif-Bold-43" d="M 4769 1331 
Q 4584 609 4106 259 
Q 3628 -91 2822 -91 
Q 1641 -91 955 561 
Q 269 1213 269 2328 
Q 269 3447 955 4098 
Q 1641 4750 2822 4750 
Q 3238 4750 3688 4650 
Q 4138 4550 4641 4347 
L 4641 3200 
L 4244 3200 
Q 4122 3788 3800 4080 
Q 3478 4372 2950 4372 
Q 2269 4372 1937 3870 
Q 1606 3369 1606 2328 
Q 1606 1288 1937 788 
Q 2269 288 2956 288 
Q 3422 288 3717 547 
Q 4013 806 4147 1331 
L 4769 1331 
z
" transform="scale(0.015625)"/>
      <path id="DejaVuSerif-Bold-6c" d="M 1797 378 
L 2272 378 
L 2272 0 
L 219 0 
L 219 378 
L 691 378 
L 691 4488 
L 219 4488 
L 219 4863 
L 1797 4863 
L 1797 378 
z
" transform="scale(0.015625)"/>
      <path id="DejaVuSerif-Bold-73" d="M 300 97 
L 300 1025 
L 653 1025 
Q 697 653 931 458 
Q 1166 263 1569 263 
Q 1906 263 2086 380 
Q 2266 497 2266 716 
Q 2266 916 2152 1025 
Q 2038 1134 1709 1216 
L 1253 1331 
Q 738 1459 506 1698 
Q 275 1938 275 2344 
Q 275 2884 650 3148 
Q 1025 3413 1806 3413 
Q 2100 3413 2433 3364 
Q 2766 3316 3169 3213 
L 3169 2375 
L 2816 2375 
Q 2788 2716 2573 2887 
Q 2359 3059 1959 3059 
Q 1622 3059 1448 2951 
Q 1275 2844 1275 2638 
Q 1275 2469 1375 2372 
Q 1475 2275 1734 2209 
L 2188 2094 
Q 2841 1928 3091 1684 
Q 3341 1441 3341 1006 
Q 3341 444 2939 176 
Q 2538 -91 1691 -91 
Q 1381 -91 1034 -44 
Q 688 3 300 97 
z
" transform="scale(0.015625)"/>
     </defs>
     <use xlink:href="#DejaVuSerif-Bold-4e"/>
     <use xlink:href="#DejaVuSerif-Bold-49" x="91.40625"/>
     <use xlink:href="#DejaVuSerif-Bold-44" x="138.183594"/>
     <use xlink:href="#DejaVuSerif-Bold-53" x="224.902344"/>
     <use xlink:href="#DejaVuSerif-Bold-20" x="297.119141"/>
     <use xlink:href="#DejaVuSerif-Bold-43" x="331.933594"/>
     <use xlink:href="#DejaVuSerif-Bold-6c" x="411.523438"/>
     <use xlink:href="#DejaVuSerif-Bold-61" x="449.511719"/>
     <use xlink:href="#DejaVuSerif-Bold-73" x="514.306641"/>
     <use xlink:href="#DejaVuSerif-Bold-73" x="570.605469"/>
     <use xlink:href="#DejaVuSerif-Bold-69" x="626.904297"/>
     <use xlink:href="#DejaVuSerif-Bold-66" x="664.892578"/>
     <use xlink:href="#DejaVuSerif-Bold-69" x="707.910156"/>
     <use xlink:href="#DejaVuSerif-Bold-65" x="745.898438"/>
     <use xlink:href="#DejaVuSerif-Bold-72" x="809.521484"/>
    </g>
   </g>
   <g id="text_5">
    <!-- Logistic Regression | 94.22% Acc. -->
    <g style="fill: #212121" transform="translate(70.159649 279.810883) scale(0.1 -0.1)">
     <defs>
      <path id="DejaVuSerif-4c" d="M 353 0 
L 353 331 
L 947 331 
L 947 4331 
L 353 4331 
L 353 4666 
L 2175 4666 
L 2175 4331 
L 1581 4331 
L 1581 384 
L 3713 384 
L 3713 1166 
L 4097 1166 
L 4097 0 
L 353 0 
z
" transform="scale(0.015625)"/>
      <path id="DejaVuSerif-6f" d="M 1925 219 
Q 2388 219 2623 584 
Q 2859 950 2859 1663 
Q 2859 2375 2623 2739 
Q 2388 3103 1925 3103 
Q 1463 3103 1227 2739 
Q 991 2375 991 1663 
Q 991 950 1228 584 
Q 1466 219 1925 219 
z
M 1925 -91 
Q 1200 -91 759 389 
Q 319 869 319 1663 
Q 319 2456 758 2934 
Q 1197 3413 1925 3413 
Q 2653 3413 3092 2934 
Q 3531 2456 3531 1663 
Q 3531 869 3092 389 
Q 2653 -91 1925 -91 
z
" transform="scale(0.015625)"/>
      <path id="DejaVuSerif-67" d="M 3359 2988 
L 3359 72 
Q 3359 -644 2965 -1033 
Q 2572 -1422 1844 -1422 
Q 1516 -1422 1216 -1362 
Q 916 -1303 641 -1184 
L 641 -488 
L 941 -488 
Q 997 -813 1206 -963 
Q 1416 -1113 1806 -1113 
Q 2313 -1113 2548 -827 
Q 2784 -541 2784 72 
L 2784 519 
Q 2616 206 2355 57 
Q 2094 -91 1709 -91 
Q 1097 -91 708 395 
Q 319 881 319 1663 
Q 319 2444 706 2928 
Q 1094 3413 1709 3413 
Q 2094 3413 2355 3264 
Q 2616 3116 2784 2803 
L 2784 3322 
L 3909 3322 
L 3909 2988 
L 3359 2988 
z
M 2784 1825 
Q 2784 2422 2554 2737 
Q 2325 3053 1888 3053 
Q 1444 3053 1217 2703 
Q 991 2353 991 1663 
Q 991 975 1217 622 
Q 1444 269 1888 269 
Q 2325 269 2554 583 
Q 2784 897 2784 1497 
L 2784 1825 
z
" transform="scale(0.015625)"/>
      <path id="DejaVuSerif-69" d="M 622 4353 
Q 622 4497 726 4603 
Q 831 4709 978 4709 
Q 1122 4709 1226 4603 
Q 1331 4497 1331 4353 
Q 1331 4206 1228 4103 
Q 1125 4000 978 4000 
Q 831 4000 726 4103 
Q 622 4206 622 4353 
z
M 1356 331 
L 1900 331 
L 1900 0 
L 231 0 
L 231 331 
L 781 331 
L 781 2988 
L 231 2988 
L 231 3322 
L 1356 3322 
L 1356 331 
z
" transform="scale(0.015625)"/>
      <path id="DejaVuSerif-73" d="M 359 184 
L 359 959 
L 691 959 
Q 703 588 923 403 
Q 1144 219 1575 219 
Q 1963 219 2166 364 
Q 2369 509 2369 788 
Q 2369 1006 2220 1140 
Q 2072 1275 1594 1428 
L 1178 1569 
Q 750 1706 558 1912 
Q 366 2119 366 2438 
Q 366 2894 700 3153 
Q 1034 3413 1625 3413 
Q 1888 3413 2178 3344 
Q 2469 3275 2778 3144 
L 2778 2419 
L 2447 2419 
Q 2434 2741 2221 2922 
Q 2009 3103 1644 3103 
Q 1281 3103 1095 2975 
Q 909 2847 909 2591 
Q 909 2381 1050 2254 
Q 1191 2128 1613 1997 
L 2069 1856 
Q 2541 1709 2748 1489 
Q 2956 1269 2956 922 
Q 2956 450 2595 179 
Q 2234 -91 1600 -91 
Q 1278 -91 972 -22 
Q 666 47 359 184 
z
" transform="scale(0.015625)"/>
      <path id="DejaVuSerif-74" d="M 691 2988 
L 184 2988 
L 184 3322 
L 691 3322 
L 691 4353 
L 1269 4353 
L 1269 3322 
L 2350 3322 
L 2350 2988 
L 1269 2988 
L 1269 878 
Q 1269 456 1350 337 
Q 1431 219 1650 219 
Q 1875 219 1978 351 
Q 2081 484 2088 781 
L 2522 781 
Q 2497 328 2275 118 
Q 2053 -91 1600 -91 
Q 1103 -91 897 129 
Q 691 350 691 878 
L 691 2988 
z
" transform="scale(0.015625)"/>
      <path id="DejaVuSerif-63" d="M 3291 997 
Q 3169 466 2822 187 
Q 2475 -91 1925 -91 
Q 1200 -91 759 389 
Q 319 869 319 1663 
Q 319 2459 759 2936 
Q 1200 3413 1925 3413 
Q 2241 3413 2553 3339 
Q 2866 3266 3181 3116 
L 3181 2266 
L 2847 2266 
Q 2781 2703 2561 2903 
Q 2341 3103 1931 3103 
Q 1466 3103 1228 2742 
Q 991 2381 991 1663 
Q 991 944 1227 581 
Q 1463 219 1931 219 
Q 2303 219 2525 412 
Q 2747 606 2828 997 
L 3291 997 
z
" transform="scale(0.015625)"/>
      <path id="DejaVuSerif-20" transform="scale(0.015625)"/>
      <path id="DejaVuSerif-52" d="M 3066 2316 
Q 3284 2256 3442 2114 
Q 3600 1972 3725 1716 
L 4403 331 
L 4972 331 
L 4972 0 
L 3872 0 
L 3144 1484 
Q 2934 1916 2759 2042 
Q 2584 2169 2278 2169 
L 1581 2169 
L 1581 331 
L 2241 331 
L 2241 0 
L 353 0 
L 353 331 
L 947 331 
L 947 4331 
L 353 4331 
L 353 4666 
L 2719 4666 
Q 3400 4666 3770 4341 
Q 4141 4016 4141 3419 
Q 4141 2938 3870 2661 
Q 3600 2384 3066 2316 
z
M 1581 2503 
L 2503 2503 
Q 2975 2503 3200 2726 
Q 3425 2950 3425 3419 
Q 3425 3888 3200 4109 
Q 2975 4331 2503 4331 
L 1581 4331 
L 1581 2503 
z
" transform="scale(0.015625)"/>
      <path id="DejaVuSerif-65" d="M 3469 1600 
L 991 1600 
L 991 1575 
Q 991 903 1244 561 
Q 1497 219 1991 219 
Q 2369 219 2611 417 
Q 2853 616 2950 1006 
L 3413 1006 
Q 3275 459 2904 184 
Q 2534 -91 1931 -91 
Q 1203 -91 761 389 
Q 319 869 319 1663 
Q 319 2450 753 2931 
Q 1188 3413 1894 3413 
Q 2647 3413 3050 2948 
Q 3453 2484 3469 1600 
z
M 2791 1931 
Q 2772 2513 2545 2808 
Q 2319 3103 1894 3103 
Q 1497 3103 1269 2806 
Q 1041 2509 991 1931 
L 2791 1931 
z
" transform="scale(0.015625)"/>
      <path id="DejaVuSerif-72" d="M 3059 3328 
L 3059 2497 
L 2728 2497 
Q 2713 2744 2591 2866 
Q 2469 2988 2234 2988 
Q 1809 2988 1582 2694 
Q 1356 2400 1356 1850 
L 1356 331 
L 2022 331 
L 2022 0 
L 263 0 
L 263 331 
L 781 331 
L 781 2994 
L 231 2994 
L 231 3322 
L 1356 3322 
L 1356 2731 
Q 1525 3078 1790 3245 
Q 2056 3413 2438 3413 
Q 2578 3413 2733 3391 
Q 2888 3369 3059 3328 
z
" transform="scale(0.015625)"/>
      <path id="DejaVuSerif-6e" d="M 263 0 
L 263 331 
L 781 331 
L 781 2988 
L 231 2988 
L 231 3322 
L 1356 3322 
L 1356 2731 
Q 1516 3069 1770 3241 
Q 2025 3413 2363 3413 
Q 2913 3413 3172 3097 
Q 3431 2781 3431 2113 
L 3431 331 
L 3944 331 
L 3944 0 
L 2356 0 
L 2356 331 
L 2853 331 
L 2853 1931 
Q 2853 2541 2703 2767 
Q 2553 2994 2175 2994 
Q 1775 2994 1565 2701 
Q 1356 2409 1356 1850 
L 1356 331 
L 1856 331 
L 1856 0 
L 263 0 
z
" transform="scale(0.015625)"/>
      <path id="DejaVuSerif-7c" d="M 1331 4891 
L 1331 -1509 
L 825 -1509 
L 825 4891 
L 1331 4891 
z
" transform="scale(0.015625)"/>
      <path id="DejaVuSerif-39" d="M 2994 2091 
Q 2784 1856 2512 1740 
Q 2241 1625 1900 1625 
Q 1206 1625 804 2044 
Q 403 2463 403 3188 
Q 403 3897 839 4323 
Q 1275 4750 2003 4750 
Q 2794 4750 3217 4161 
Q 3641 3572 3641 2478 
Q 3641 1253 3137 581 
Q 2634 -91 1722 -91 
Q 1475 -91 1203 -44 
Q 931 3 647 97 
L 647 872 
L 997 872 
Q 1038 556 1241 387 
Q 1444 219 1784 219 
Q 2391 219 2687 676 
Q 2984 1134 2994 2091 
z
M 1978 4441 
Q 1534 4441 1298 4117 
Q 1063 3794 1063 3188 
Q 1063 2581 1298 2256 
Q 1534 1931 1978 1931 
Q 2422 1931 2658 2245 
Q 2894 2559 2894 3150 
Q 2894 3772 2656 4106 
Q 2419 4441 1978 4441 
z
" transform="scale(0.015625)"/>
      <path id="DejaVuSerif-34" d="M 2234 1581 
L 2234 4063 
L 641 1581 
L 2234 1581 
z
M 3609 0 
L 1484 0 
L 1484 331 
L 2234 331 
L 2234 1247 
L 197 1247 
L 197 1588 
L 2241 4750 
L 2859 4750 
L 2859 1581 
L 3750 1581 
L 3750 1247 
L 2859 1247 
L 2859 331 
L 3609 331 
L 3609 0 
z
" transform="scale(0.015625)"/>
      <path id="DejaVuSerif-2e" d="M 603 325 
Q 603 500 722 622 
Q 841 744 1019 744 
Q 1191 744 1312 622 
Q 1434 500 1434 325 
Q 1434 153 1312 31 
Q 1191 -91 1019 -91 
Q 841 -91 722 29 
Q 603 150 603 325 
z
" transform="scale(0.015625)"/>
      <path id="DejaVuSerif-32" d="M 819 3553 
L 469 3553 
L 469 4384 
Q 803 4563 1142 4656 
Q 1481 4750 1806 4750 
Q 2534 4750 2956 4397 
Q 3378 4044 3378 3438 
Q 3378 2753 2422 1800 
Q 2347 1728 2309 1691 
L 1131 513 
L 3078 513 
L 3078 1088 
L 3444 1088 
L 3444 0 
L 434 0 
L 434 341 
L 1850 1753 
Q 2319 2222 2519 2614 
Q 2719 3006 2719 3438 
Q 2719 3909 2473 4175 
Q 2228 4441 1797 4441 
Q 1350 4441 1106 4219 
Q 863 3997 819 3553 
z
" transform="scale(0.015625)"/>
      <path id="DejaVuSerif-25" d="M 1434 4459 
Q 1159 4459 1004 4200 
Q 850 3941 850 3475 
Q 850 3016 1008 2753 
Q 1166 2491 1434 2491 
Q 1700 2491 1854 2752 
Q 2009 3013 2009 3475 
Q 2009 3938 1854 4198 
Q 1700 4459 1434 4459 
z
M 4653 2169 
Q 4381 2169 4226 1906 
Q 4072 1644 4072 1178 
Q 4072 719 4228 458 
Q 4384 197 4653 197 
Q 4922 197 5075 458 
Q 5228 719 5228 1178 
Q 5228 1641 5073 1905 
Q 4919 2169 4653 2169 
z
M 4653 2450 
Q 5147 2450 5437 2106 
Q 5728 1763 5728 1178 
Q 5728 594 5436 251 
Q 5144 -91 4653 -91 
Q 4153 -91 3862 251 
Q 3572 594 3572 1178 
Q 3572 1766 3864 2108 
Q 4156 2450 4653 2450 
z
M 4263 4750 
L 4738 4750 
L 1819 -91 
L 1344 -91 
L 4263 4750 
z
M 1428 4750 
Q 1922 4750 2215 4408 
Q 2509 4066 2509 3481 
Q 2509 2891 2217 2550 
Q 1925 2209 1428 2209 
Q 931 2209 642 2551 
Q 353 2894 353 3481 
Q 353 4063 643 4406 
Q 934 4750 1428 4750 
z
" transform="scale(0.015625)"/>
      <path id="DejaVuSerif-41" d="M 1281 1691 
L 2994 1691 
L 2138 3909 
L 1281 1691 
z
M -38 0 
L -38 331 
L 372 331 
L 2034 4666 
L 2559 4666 
L 4225 331 
L 4684 331 
L 4684 0 
L 2988 0 
L 2988 331 
L 3506 331 
L 3116 1356 
L 1153 1356 
L 763 331 
L 1275 331 
L 1275 0 
L -38 0 
z
" transform="scale(0.015625)"/>
     </defs>
     <use xlink:href="#DejaVuSerif-4c"/>
     <use xlink:href="#DejaVuSerif-6f" x="66.40625"/>
     <use xlink:href="#DejaVuSerif-67" x="126.611328"/>
     <use xlink:href="#DejaVuSerif-69" x="190.625"/>
     <use xlink:href="#DejaVuSerif-73" x="222.607422"/>
     <use xlink:href="#DejaVuSerif-74" x="273.925781"/>
     <use xlink:href="#DejaVuSerif-69" x="314.111328"/>
     <use xlink:href="#DejaVuSerif-63" x="346.09375"/>
     <use xlink:href="#DejaVuSerif-20" x="402.099609"/>
     <use xlink:href="#DejaVuSerif-52" x="433.886719"/>
     <use xlink:href="#DejaVuSerif-65" x="509.179688"/>
     <use xlink:href="#DejaVuSerif-67" x="568.359375"/>
     <use xlink:href="#DejaVuSerif-72" x="632.373047"/>
     <use xlink:href="#DejaVuSerif-65" x="680.175781"/>
     <use xlink:href="#DejaVuSerif-73" x="739.355469"/>
     <use xlink:href="#DejaVuSerif-73" x="790.673828"/>
     <use xlink:href="#DejaVuSerif-69" x="841.992188"/>
     <use xlink:href="#DejaVuSerif-6f" x="873.974609"/>
     <use xlink:href="#DejaVuSerif-6e" x="934.179688"/>
     <use xlink:href="#DejaVuSerif-20" x="998.583984"/>
     <use xlink:href="#DejaVuSerif-7c" x="1030.371094"/>
     <use xlink:href="#DejaVuSerif-20" x="1064.0625"/>
     <use xlink:href="#DejaVuSerif-39" x="1095.849609"/>
     <use xlink:href="#DejaVuSerif-34" x="1159.472656"/>
     <use xlink:href="#DejaVuSerif-2e" x="1223.095703"/>
     <use xlink:href="#DejaVuSerif-32" x="1254.882812"/>
     <use xlink:href="#DejaVuSerif-32" x="1318.505859"/>
     <use xlink:href="#DejaVuSerif-25" x="1382.128906"/>
     <use xlink:href="#DejaVuSerif-20" x="1477.148438"/>
     <use xlink:href="#DejaVuSerif-41" x="1508.935547"/>
     <use xlink:href="#DejaVuSerif-63" x="1581.152344"/>
     <use xlink:href="#DejaVuSerif-63" x="1637.158203"/>
     <use xlink:href="#DejaVuSerif-2e" x="1693.164062"/>
    </g>
   </g>
   <g id="text_6">
    <!-- Host Logs -->
    <g transform="translate(119.893243 355.6013) scale(0.13 -0.13)">
     <defs>
      <path id="DejaVuSerif-Bold-48" d="M 300 0 
L 300 378 
L 897 378 
L 897 4288 
L 300 4288 
L 300 4666 
L 2700 4666 
L 2700 4288 
L 2100 4288 
L 2100 2719 
L 3956 2719 
L 3956 4288 
L 3359 4288 
L 3359 4666 
L 5759 4666 
L 5759 4288 
L 5159 4288 
L 5159 378 
L 5759 378 
L 5759 0 
L 3359 0 
L 3359 378 
L 3956 378 
L 3956 2291 
L 2100 2291 
L 2100 378 
L 2700 378 
L 2700 0 
L 300 0 
z
" transform="scale(0.015625)"/>
      <path id="DejaVuSerif-Bold-4c" d="M 300 0 
L 300 378 
L 897 378 
L 897 4288 
L 300 4288 
L 300 4666 
L 2700 4666 
L 2700 4288 
L 2100 4288 
L 2100 428 
L 3938 428 
L 3938 1166 
L 4359 1166 
L 4359 0 
L 300 0 
z
" transform="scale(0.015625)"/>
      <path id="DejaVuSerif-Bold-67" d="M 3853 2944 
L 3853 44 
Q 3853 -656 3354 -1039 
Q 2856 -1422 1947 -1422 
Q 1616 -1422 1275 -1370 
Q 934 -1319 575 -1216 
L 575 -422 
L 928 -422 
Q 975 -750 1192 -909 
Q 1409 -1069 1813 -1069 
Q 2325 -1069 2536 -823 
Q 2747 -578 2747 44 
L 2747 422 
Q 2606 163 2367 36 
Q 2128 -91 1778 -91 
Q 1072 -91 667 378 
Q 263 847 263 1663 
Q 263 2481 667 2947 
Q 1072 3413 1778 3413 
Q 2128 3413 2367 3286 
Q 2606 3159 2747 2900 
L 2747 3322 
L 4325 3322 
L 4325 2944 
L 3853 2944 
z
M 2747 1825 
Q 2747 2406 2597 2665 
Q 2447 2925 2119 2925 
Q 1775 2925 1636 2651 
Q 1497 2378 1497 1663 
Q 1497 947 1637 672 
Q 1778 397 2119 397 
Q 2447 397 2597 656 
Q 2747 916 2747 1497 
L 2747 1825 
z
" transform="scale(0.015625)"/>
     </defs>
     <use xlink:href="#DejaVuSerif-Bold-48"/>
     <use xlink:href="#DejaVuSerif-Bold-6f" x="94.482422"/>
     <use xlink:href="#DejaVuSerif-Bold-73" x="161.181641"/>
     <use xlink:href="#DejaVuSerif-Bold-74" x="217.480469"/>
     <use xlink:href="#DejaVuSerif-Bold-20" x="263.671875"/>
     <use xlink:href="#DejaVuSerif-Bold-4c" x="298.486328"/>
     <use xlink:href="#DejaVuSerif-Bold-6f" x="368.798828"/>
     <use xlink:href="#DejaVuSerif-Bold-67" x="435.498047"/>
     <use xlink:href="#DejaVuSerif-Bold-73" x="505.419922"/>
    </g>
   </g>
   <g id="text_7">
    <!-- ADFA-LD -->
    <g style="fill: #ef6c00" transform="translate(131.959649 378.236474) scale(0.105 -0.105)">
     <defs>
      <path id="DejaVuSerif-Italic-41" d="M 1159 1691 
L 2872 1691 
L 2447 3909 
L 1159 1691 
z
M -488 0 
L -425 331 
L -16 331 
L 2491 4666 
L 3016 4666 
L 3841 331 
L 4297 331 
L 4234 0 
L 2538 0 
L 2600 331 
L 3119 331 
L 2928 1356 
L 966 1356 
L 375 331 
L 888 331 
L 825 0 
L -488 0 
z
" transform="scale(0.015625)"/>
      <path id="DejaVuSerif-Italic-46" d="M -97 0 
L -34 331 
L 559 331 
L 1338 4331 
L 744 4331 
L 809 4666 
L 4628 4666 
L 4428 3628 
L 4044 3628 
L 4169 4281 
L 1963 4281 
L 1659 2719 
L 3253 2719 
L 3366 3303 
L 3750 3303 
L 3450 1753 
L 3066 1753 
L 3178 2338 
L 1584 2338 
L 1194 331 
L 1941 331 
L 1878 0 
L -97 0 
z
" transform="scale(0.015625)"/>
      <path id="DejaVuSerif-Italic-2d" d="M 328 1959 
L 1928 1959 
L 1834 1472 
L 234 1472 
L 328 1959 
z
" transform="scale(0.015625)"/>
      <path id="DejaVuSerif-Italic-4c" d="M -97 0 
L -34 331 
L 559 331 
L 1338 4331 
L 744 4331 
L 809 4666 
L 2631 4666 
L 2566 4331 
L 1972 4331 
L 1206 384 
L 3338 384 
L 3488 1166 
L 3872 1166 
L 3647 0 
L -97 0 
z
" transform="scale(0.015625)"/>
     </defs>
     <use xlink:href="#DejaVuSerif-Italic-41"/>
     <use xlink:href="#DejaVuSerif-Italic-44" x="72.216797"/>
     <use xlink:href="#DejaVuSerif-Italic-46" x="152.392578"/>
     <use xlink:href="#DejaVuSerif-Italic-41" x="213.027344"/>
     <use xlink:href="#DejaVuSerif-Italic-2d" x="285.244141"/>
     <use xlink:href="#DejaVuSerif-Italic-4c" x="319.033203"/>
     <use xlink:href="#DejaVuSerif-Italic-44" x="385.439453"/>
    </g>
   </g>
   <g id="text_8">
    <!-- Feature Extraction -->
    <g transform="translate(98.769258 452.002269) scale(0.11 -0.11)">
     <use xlink:href="#DejaVuSerif-Bold-46"/>
     <use xlink:href="#DejaVuSerif-Bold-65" x="65.496094"/>
     <use xlink:href="#DejaVuSerif-Bold-61" x="129.119141"/>
     <use xlink:href="#DejaVuSerif-Bold-74" x="193.914062"/>
     <use xlink:href="#DejaVuSerif-Bold-75" x="240.105469"/>
     <use xlink:href="#DejaVuSerif-Bold-72" x="312.810547"/>
     <use xlink:href="#DejaVuSerif-Bold-65" x="365.496094"/>
     <use xlink:href="#DejaVuSerif-Bold-20" x="429.119141"/>
     <use xlink:href="#DejaVuSerif-Bold-45" x="463.933594"/>
     <use xlink:href="#DejaVuSerif-Bold-78" x="540.154297"/>
     <use xlink:href="#DejaVuSerif-Bold-74" x="599.773438"/>
     <use xlink:href="#DejaVuSerif-Bold-72" x="645.964844"/>
     <use xlink:href="#DejaVuSerif-Bold-61" x="698.650391"/>
     <use xlink:href="#DejaVuSerif-Bold-63" x="763.445312"/>
     <use xlink:href="#DejaVuSerif-Bold-74" x="824.333984"/>
     <use xlink:href="#DejaVuSerif-Bold-69" x="870.525391"/>
     <use xlink:href="#DejaVuSerif-Bold-6f" x="908.513672"/>
     <use xlink:href="#DejaVuSerif-Bold-6e" x="975.212891"/>
    </g>
   </g>
   <g id="text_9">
    <!-- HIDS Classifier -->
    <g style="fill: #ef6c00" transform="translate(100.16168 531.090492) scale(0.13 -0.13)">
     <use xlink:href="#DejaVuSerif-Bold-48"/>
     <use xlink:href="#DejaVuSerif-Bold-49" x="94.482422"/>
     <use xlink:href="#DejaVuSerif-Bold-44" x="141.259766"/>
     <use xlink:href="#DejaVuSerif-Bold-53" x="227.978516"/>
     <use xlink:href="#DejaVuSerif-Bold-20" x="300.195312"/>
     <use xlink:href="#DejaVuSerif-Bold-43" x="335.009766"/>
     <use xlink:href="#DejaVuSerif-Bold-6c" x="414.599609"/>
     <use xlink:href="#DejaVuSerif-Bold-61" x="452.587891"/>
     <use xlink:href="#DejaVuSerif-Bold-73" x="517.382812"/>
     <use xlink:href="#DejaVuSerif-Bold-73" x="573.681641"/>
     <use xlink:href="#DejaVuSerif-Bold-69" x="629.980469"/>
     <use xlink:href="#DejaVuSerif-Bold-66" x="667.96875"/>
     <use xlink:href="#DejaVuSerif-Bold-69" x="710.986328"/>
     <use xlink:href="#DejaVuSerif-Bold-65" x="748.974609"/>
     <use xlink:href="#DejaVuSerif-Bold-72" x="812.597656"/>
    </g>
   </g>
   <g id="text_10">
    <!-- Random Forest | 95.00% Acc. -->
    <g style="fill: #212121" transform="translate(81.339336 553.285666) scale(0.1 -0.1)">
     <defs>
      <path id="DejaVuSerif-61" d="M 2547 1044 
L 2547 1747 
L 1806 1747 
Q 1378 1747 1168 1562 
Q 959 1378 959 997 
Q 959 650 1171 447 
Q 1384 244 1747 244 
Q 2106 244 2326 466 
Q 2547 688 2547 1044 
z
M 3122 2075 
L 3122 331 
L 3634 331 
L 3634 0 
L 2547 0 
L 2547 359 
Q 2356 128 2106 18 
Q 1856 -91 1522 -91 
Q 969 -91 644 203 
Q 319 497 319 997 
Q 319 1513 691 1797 
Q 1063 2081 1741 2081 
L 2547 2081 
L 2547 2309 
Q 2547 2688 2317 2895 
Q 2088 3103 1672 3103 
Q 1328 3103 1125 2947 
Q 922 2791 872 2484 
L 575 2484 
L 575 3156 
Q 875 3284 1158 3348 
Q 1441 3413 1709 3413 
Q 2400 3413 2761 3070 
Q 3122 2728 3122 2075 
z
" transform="scale(0.015625)"/>
      <path id="DejaVuSerif-64" d="M 3359 331 
L 3909 331 
L 3909 0 
L 2784 0 
L 2784 519 
Q 2616 206 2355 57 
Q 2094 -91 1709 -91 
Q 1097 -91 708 395 
Q 319 881 319 1663 
Q 319 2444 706 2928 
Q 1094 3413 1709 3413 
Q 2094 3413 2355 3264 
Q 2616 3116 2784 2803 
L 2784 4531 
L 2241 4531 
L 2241 4863 
L 3359 4863 
L 3359 331 
z
M 2784 1497 
L 2784 1825 
Q 2784 2422 2554 2737 
Q 2325 3053 1888 3053 
Q 1444 3053 1217 2703 
Q 991 2353 991 1663 
Q 991 975 1217 622 
Q 1444 269 1888 269 
Q 2325 269 2554 583 
Q 2784 897 2784 1497 
z
" transform="scale(0.015625)"/>
      <path id="DejaVuSerif-6d" d="M 3316 2675 
Q 3481 3041 3739 3227 
Q 3997 3413 4341 3413 
Q 4863 3413 5119 3089 
Q 5375 2766 5375 2113 
L 5375 331 
L 5894 331 
L 5894 0 
L 4300 0 
L 4300 331 
L 4800 331 
L 4800 2047 
Q 4800 2556 4650 2772 
Q 4500 2988 4153 2988 
Q 3769 2988 3567 2697 
Q 3366 2406 3366 1850 
L 3366 331 
L 3866 331 
L 3866 0 
L 2291 0 
L 2291 331 
L 2791 331 
L 2791 2069 
Q 2791 2566 2641 2777 
Q 2491 2988 2144 2988 
Q 1759 2988 1557 2697 
Q 1356 2406 1356 1850 
L 1356 331 
L 1856 331 
L 1856 0 
L 263 0 
L 263 331 
L 781 331 
L 781 2994 
L 231 2994 
L 231 3322 
L 1356 3322 
L 1356 2731 
Q 1516 3063 1762 3238 
Q 2009 3413 2322 3413 
Q 2709 3413 2968 3220 
Q 3228 3028 3316 2675 
z
" transform="scale(0.015625)"/>
      <path id="DejaVuSerif-46" d="M 353 0 
L 353 331 
L 947 331 
L 947 4331 
L 353 4331 
L 353 4666 
L 4172 4666 
L 4172 3628 
L 3788 3628 
L 3788 4281 
L 1581 4281 
L 1581 2719 
L 3175 2719 
L 3175 3303 
L 3559 3303 
L 3559 1753 
L 3175 1753 
L 3175 2338 
L 1581 2338 
L 1581 331 
L 2328 331 
L 2328 0 
L 353 0 
z
" transform="scale(0.015625)"/>
      <path id="DejaVuSerif-35" d="M 3219 4666 
L 3219 4153 
L 1081 4153 
L 1081 2816 
Q 1244 2928 1461 2984 
Q 1678 3041 1947 3041 
Q 2703 3041 3140 2622 
Q 3578 2203 3578 1478 
Q 3578 738 3136 323 
Q 2694 -91 1894 -91 
Q 1572 -91 1234 -12 
Q 897 66 544 225 
L 544 1131 
L 897 1131 
Q 925 688 1179 453 
Q 1434 219 1894 219 
Q 2388 219 2653 544 
Q 2919 869 2919 1478 
Q 2919 2084 2655 2407 
Q 2391 2731 1894 2731 
Q 1613 2731 1398 2631 
Q 1184 2531 1019 2322 
L 750 2322 
L 750 4666 
L 3219 4666 
z
" transform="scale(0.015625)"/>
      <path id="DejaVuSerif-30" d="M 2034 219 
Q 2513 219 2750 744 
Q 2988 1269 2988 2328 
Q 2988 3391 2750 3916 
Q 2513 4441 2034 4441 
Q 1556 4441 1318 3916 
Q 1081 3391 1081 2328 
Q 1081 1269 1318 744 
Q 1556 219 2034 219 
z
M 2034 -91 
Q 1275 -91 848 546 
Q 422 1184 422 2328 
Q 422 3475 848 4112 
Q 1275 4750 2034 4750 
Q 2797 4750 3222 4112 
Q 3647 3475 3647 2328 
Q 3647 1184 3222 546 
Q 2797 -91 2034 -91 
z
" transform="scale(0.015625)"/>
     </defs>
     <use xlink:href="#DejaVuSerif-52"/>
     <use xlink:href="#DejaVuSerif-61" x="77.542969"/>
     <use xlink:href="#DejaVuSerif-6e" x="137.162109"/>
     <use xlink:href="#DejaVuSerif-64" x="201.566406"/>
     <use xlink:href="#DejaVuSerif-6f" x="265.580078"/>
     <use xlink:href="#DejaVuSerif-6d" x="325.785156"/>
     <use xlink:href="#DejaVuSerif-20" x="420.609375"/>
     <use xlink:href="#DejaVuSerif-46" x="452.396484"/>
     <use xlink:href="#DejaVuSerif-6f" x="516.28125"/>
     <use xlink:href="#DejaVuSerif-72" x="576.486328"/>
     <use xlink:href="#DejaVuSerif-65" x="624.289062"/>
     <use xlink:href="#DejaVuSerif-73" x="683.46875"/>
     <use xlink:href="#DejaVuSerif-74" x="734.787109"/>
     <use xlink:href="#DejaVuSerif-20" x="774.972656"/>
     <use xlink:href="#DejaVuSerif-7c" x="806.759766"/>
     <use xlink:href="#DejaVuSerif-20" x="840.451172"/>
     <use xlink:href="#DejaVuSerif-39" x="872.238281"/>
     <use xlink:href="#DejaVuSerif-35" x="935.861328"/>
     <use xlink:href="#DejaVuSerif-2e" x="999.484375"/>
     <use xlink:href="#DejaVuSerif-30" x="1031.271484"/>
     <use xlink:href="#DejaVuSerif-30" x="1094.894531"/>
     <use xlink:href="#DejaVuSerif-25" x="1158.517578"/>
     <use xlink:href="#DejaVuSerif-20" x="1253.537109"/>
     <use xlink:href="#DejaVuSerif-41" x="1285.324219"/>
     <use xlink:href="#DejaVuSerif-63" x="1357.541016"/>
     <use xlink:href="#DejaVuSerif-63" x="1413.546875"/>
     <use xlink:href="#DejaVuSerif-2e" x="1469.552734"/>
    </g>
   </g>
   <g id="text_11">
    <!-- Decision Fusion Engine -->
    <g style="fill: #2e7d32" transform="translate(67.215313 641.924832) scale(0.135 -0.135)">
     <use xlink:href="#DejaVuSerif-Bold-44"/>
     <use xlink:href="#DejaVuSerif-Bold-65" x="86.71875"/>
     <use xlink:href="#DejaVuSerif-Bold-63" x="150.341797"/>
     <use xlink:href="#DejaVuSerif-Bold-69" x="211.230469"/>
     <use xlink:href="#DejaVuSerif-Bold-73" x="249.21875"/>
     <use xlink:href="#DejaVuSerif-Bold-69" x="305.517578"/>
     <use xlink:href="#DejaVuSerif-Bold-6f" x="343.505859"/>
     <use xlink:href="#DejaVuSerif-Bold-6e" x="410.205078"/>
     <use xlink:href="#DejaVuSerif-Bold-20" x="482.910156"/>
     <use xlink:href="#DejaVuSerif-Bold-46" x="517.724609"/>
     <use xlink:href="#DejaVuSerif-Bold-75" x="586.970703"/>
     <use xlink:href="#DejaVuSerif-Bold-73" x="659.675781"/>
     <use xlink:href="#DejaVuSerif-Bold-69" x="715.974609"/>
     <use xlink:href="#DejaVuSerif-Bold-6f" x="753.962891"/>
     <use xlink:href="#DejaVuSerif-Bold-6e" x="820.662109"/>
     <use xlink:href="#DejaVuSerif-Bold-20" x="893.367188"/>
     <use xlink:href="#DejaVuSerif-Bold-45" x="928.181641"/>
     <use xlink:href="#DejaVuSerif-Bold-6e" x="1004.402344"/>
     <use xlink:href="#DejaVuSerif-Bold-67" x="1077.107422"/>
     <use xlink:href="#DejaVuSerif-Bold-69" x="1147.029297"/>
     <use xlink:href="#DejaVuSerif-Bold-6e" x="1185.017578"/>
     <use xlink:href="#DejaVuSerif-Bold-65" x="1257.722656"/>
    </g>
   </g>
   <g id="text_12">
    <!-- Normalize Decisions -->
    <g style="fill: #212121" transform="translate(101.587579 662.229518) scale(0.105 -0.105)">
     <defs>
      <path id="DejaVuSerif-4e" d="M 313 0 
L 313 331 
L 941 331 
L 941 4331 
L 313 4331 
L 313 4666 
L 1509 4666 
L 4306 984 
L 4306 4331 
L 3681 4331 
L 3681 4666 
L 5319 4666 
L 5319 4331 
L 4691 4331 
L 4691 -91 
L 4313 -91 
L 1325 3841 
L 1325 331 
L 1953 331 
L 1953 0 
L 313 0 
z
" transform="scale(0.015625)"/>
      <path id="DejaVuSerif-6c" d="M 1313 331 
L 1856 331 
L 1856 0 
L 184 0 
L 184 331 
L 738 331 
L 738 4531 
L 184 4531 
L 184 4863 
L 1313 4863 
L 1313 331 
z
" transform="scale(0.015625)"/>
      <path id="DejaVuSerif-7a" d="M 256 0 
L 256 269 
L 2338 2988 
L 691 2988 
L 691 2413 
L 359 2413 
L 359 3322 
L 3078 3322 
L 3078 3053 
L 997 331 
L 2803 331 
L 2803 934 
L 3138 934 
L 3138 0 
L 256 0 
z
" transform="scale(0.015625)"/>
      <path id="DejaVuSerif-44" d="M 1581 331 
L 2163 331 
Q 3072 331 3558 850 
Q 4044 1369 4044 2338 
Q 4044 3306 3559 3818 
Q 3075 4331 2163 4331 
L 1581 4331 
L 1581 331 
z
M 353 0 
L 353 331 
L 947 331 
L 947 4331 
L 353 4331 
L 353 4666 
L 2209 4666 
Q 3416 4666 4089 4050 
Q 4763 3434 4763 2338 
Q 4763 1238 4088 619 
Q 3413 0 2209 0 
L 353 0 
z
" transform="scale(0.015625)"/>
     </defs>
     <use xlink:href="#DejaVuSerif-4e"/>
     <use xlink:href="#DejaVuSerif-6f" x="87.5"/>
     <use xlink:href="#DejaVuSerif-72" x="147.705078"/>
     <use xlink:href="#DejaVuSerif-6d" x="195.507812"/>
     <use xlink:href="#DejaVuSerif-61" x="290.332031"/>
     <use xlink:href="#DejaVuSerif-6c" x="349.951172"/>
     <use xlink:href="#DejaVuSerif-69" x="381.933594"/>
     <use xlink:href="#DejaVuSerif-7a" x="413.916016"/>
     <use xlink:href="#DejaVuSerif-65" x="466.601562"/>
     <use xlink:href="#DejaVuSerif-20" x="525.78125"/>
     <use xlink:href="#DejaVuSerif-44" x="557.568359"/>
     <use xlink:href="#DejaVuSerif-65" x="637.744141"/>
     <use xlink:href="#DejaVuSerif-63" x="696.923828"/>
     <use xlink:href="#DejaVuSerif-69" x="752.929688"/>
     <use xlink:href="#DejaVuSerif-73" x="784.912109"/>
     <use xlink:href="#DejaVuSerif-69" x="836.230469"/>
     <use xlink:href="#DejaVuSerif-6f" x="868.212891"/>
     <use xlink:href="#DejaVuSerif-6e" x="928.417969"/>
     <use xlink:href="#DejaVuSerif-73" x="992.822266"/>
    </g>
   </g>
   <g id="text_13">
    <!-- Weighted Combo: 0.6×NIDS + 0.4×HIDS -->
    <g style="fill: #2e7d32" transform="translate(55.955821 679.416476) scale(0.095 -0.095)">
     <defs>
      <path id="DejaVuSerif-Italic-57" d="M 4425 0 
L 3913 0 
L 3581 3794 
L 1775 0 
L 1263 0 
L 881 4331 
L 419 4331 
L 484 4666 
L 2188 4666 
L 2122 4331 
L 1541 4331 
L 1844 884 
L 3641 4666 
L 4147 4666 
L 4484 844 
L 6141 4331 
L 5603 4331 
L 5669 4666 
L 7013 4666 
L 6947 4331 
L 6488 4331 
L 4425 0 
z
" transform="scale(0.015625)"/>
      <path id="DejaVuSerif-Italic-65" d="M 938 1275 
Q 925 1156 925 1050 
Q 925 756 1031 563 
Q 1216 219 1709 219 
Q 2072 219 2250 328 
Q 2569 525 2644 778 
L 3066 778 
Q 2941 381 2475 103 
Q 2150 -91 1506 -91 
Q 863 -91 516 388 
Q 272 722 272 1206 
Q 272 1419 319 1659 
Q 472 2450 1000 2931 
Q 1528 3413 2278 3413 
Q 3500 3413 3500 2547 
Q 3500 1913 2859 1603 
Q 2206 1288 938 1275 
z
M 2541 1975 
Q 2891 2181 2891 2569 
Q 2891 3103 2181 3103 
Q 1763 3103 1472 2784 
Q 1181 2466 1003 1606 
Q 2006 1653 2541 1975 
z
" transform="scale(0.015625)"/>
      <path id="DejaVuSerif-Italic-69" d="M 1009 4353 
Q 1038 4497 1163 4603 
Q 1288 4709 1434 4709 
Q 1578 4709 1663 4603 
Q 1728 4522 1728 4422 
Q 1728 4388 1719 4353 
Q 1691 4206 1567 4103 
Q 1444 4000 1297 4000 
Q 1150 4000 1066 4103 
Q 1003 4181 1003 4281 
Q 1003 4316 1009 4353 
z
M 963 331 
L 1506 331 
L 1444 0 
L 325 0 
L 903 2988 
L 353 2988 
L 419 3322 
L 1544 3322 
L 963 331 
z
" transform="scale(0.015625)"/>
      <path id="DejaVuSerif-Italic-67" d="M 3822 3322 
L 3188 72 
Q 3044 -672 2581 -1031 
Q 2078 -1422 1381 -1422 
Q 1053 -1422 765 -1362 
Q 478 -1303 225 -1184 
L 363 -488 
L 663 -488 
Q 653 -813 834 -963 
Q 1016 -1113 1406 -1113 
Q 1913 -1113 2203 -825 
Q 2494 -544 2613 72 
L 2700 519 
Q 2472 206 2181 57 
Q 1891 -91 1525 -91 
Q 975 -91 697 281 
Q 522 516 503 841 
Q 491 1031 534 1256 
Q 750 2359 1516 2928 
Q 2169 3409 2931 3413 
Q 3631 3416 3822 3322 
z
M 3184 2988 
Q 3181 3094 2844 3094 
Q 2234 3094 1775 2625 
Q 1316 2153 1147 1297 
Q 1100 1044 1113 853 
Q 1125 659 1203 528 
Q 1356 269 1756 269 
Q 2194 269 2484 583 
Q 2775 897 2891 1497 
L 2953 1825 
L 3184 2988 
z
" transform="scale(0.015625)"/>
      <path id="DejaVuSerif-Italic-68" d="M 309 0 
L 1191 4531 
L 641 4531 
L 703 4863 
L 1828 4863 
L 1416 2731 
Q 1641 3069 1928 3241 
Q 2216 3413 2553 3413 
Q 3103 3413 3300 3097 
Q 3422 2906 3422 2588 
Q 3422 2378 3369 2113 
L 3022 331 
L 3534 331 
L 3472 0 
L 2381 0 
L 2756 1931 
Q 2819 2253 2819 2469 
Q 2819 2659 2769 2763 
Q 2666 2988 2284 2988 
Q 1884 2988 1617 2697 
Q 1350 2406 1244 1850 
L 884 0 
L 309 0 
z
" transform="scale(0.015625)"/>
      <path id="DejaVuSerif-Italic-74" d="M 856 2988 
L 350 2988 
L 416 3322 
L 922 3322 
L 1122 4353 
L 1700 4353 
L 1500 3322 
L 2581 3322 
L 2516 2988 
L 1434 2988 
L 1025 878 
Q 978 631 978 488 
Q 978 388 1000 338 
Q 1059 219 1278 219 
Q 1503 219 1633 351 
Q 1763 484 1825 781 
L 2259 781 
Q 2147 328 1884 118 
Q 1622 -91 1169 -91 
Q 672 -91 506 131 
Q 406 266 406 516 
Q 406 675 447 878 
L 856 2988 
z
" transform="scale(0.015625)"/>
      <path id="DejaVuSerif-Italic-64" d="M 3841 4863 
L 2897 0 
L 2322 0 
L 2422 519 
Q 2191 206 1902 57 
Q 1613 -91 1228 -91 
Q 616 -91 322 394 
Q 125 716 125 1166 
Q 125 1397 178 1663 
Q 331 2444 812 2928 
Q 1294 3413 1909 3413 
Q 2294 3413 2525 3264 
Q 2756 3116 2866 2803 
L 3200 4531 
L 2656 4531 
L 2722 4863 
L 3841 4863 
z
M 2613 1497 
L 2675 1825 
Q 2722 2069 2722 2266 
Q 2722 2550 2622 2738 
Q 2456 3053 2019 3053 
Q 1575 3053 1279 2703 
Q 984 2353 850 1663 
Q 788 1347 788 1103 
Q 788 813 875 622 
Q 1031 269 1475 269 
Q 1913 269 2203 583 
Q 2494 897 2613 1497 
z
" transform="scale(0.015625)"/>
      <path id="DejaVuSerif-Italic-20" transform="scale(0.015625)"/>
      <path id="DejaVuSerif-Italic-6f" d="M 1644 219 
Q 2106 219 2414 584 
Q 2722 950 2859 1663 
Q 2922 1988 2922 2241 
Q 2922 2541 2834 2738 
Q 2669 3103 2206 3103 
Q 1744 3103 1436 2739 
Q 1128 2375 991 1663 
Q 928 1338 928 1088 
Q 928 784 1019 584 
Q 1184 219 1644 219 
z
M 1584 -91 
Q 859 -91 513 388 
Q 272 722 272 1203 
Q 272 1419 319 1663 
Q 472 2456 1005 2934 
Q 1538 3413 2266 3413 
Q 2994 3413 3341 2934 
Q 3578 2603 3578 2122 
Q 3578 1906 3531 1663 
Q 3378 869 2845 389 
Q 2313 -91 1584 -91 
z
" transform="scale(0.015625)"/>
      <path id="DejaVuSerif-Italic-6d" d="M 3503 2675 
Q 3741 3041 4034 3227 
Q 4328 3413 4672 3413 
Q 5194 3413 5388 3088 
Q 5503 2894 5503 2578 
Q 5503 2372 5453 2113 
L 5106 331 
L 5625 331 
L 5563 0 
L 4469 0 
L 4866 2047 
Q 4913 2291 4913 2466 
Q 4913 2659 4856 2772 
Q 4750 2988 4403 2988 
Q 4019 2988 3761 2697 
Q 3503 2406 3394 1850 
L 3034 0 
L 2459 0 
L 2863 2069 
Q 2906 2303 2906 2472 
Q 2906 2666 2850 2775 
Q 2741 2988 2394 2988 
Q 2009 2988 1751 2697 
Q 1494 2406 1384 1850 
L 1025 0 
L 450 0 
L 1031 2994 
L 481 2994 
L 544 3322 
L 1669 3322 
L 1556 2731 
Q 1778 3063 2059 3238 
Q 2341 3413 2653 3413 
Q 3041 3413 3262 3220 
Q 3484 3028 3503 2675 
z
" transform="scale(0.015625)"/>
      <path id="DejaVuSerif-Italic-62" d="M 1153 4531 
L 600 4531 
L 666 4863 
L 1794 4863 
L 1394 2803 
Q 1622 3116 1912 3264 
Q 2203 3413 2588 3413 
Q 3200 3413 3494 2928 
Q 3688 2609 3688 2163 
Q 3688 1928 3634 1663 
Q 3481 881 3000 395 
Q 2519 -91 1906 -91 
Q 1522 -91 1289 57 
Q 1056 206 950 519 
L 850 0 
L 275 0 
L 1153 4531 
z
M 1141 1497 
Q 1091 1250 1091 1053 
Q 1091 769 1191 581 
Q 1359 269 1797 269 
Q 2238 269 2533 622 
Q 2828 975 2963 1663 
Q 3025 1978 3025 2225 
Q 3025 2513 2938 2703 
Q 2781 3053 2338 3053 
Q 1900 3053 1609 2737 
Q 1319 2422 1203 1825 
L 1141 1497 
z
" transform="scale(0.015625)"/>
      <path id="DejaVuSerif-Italic-3a" d="M 529 29 
Q 434 150 468 325 
Q 503 500 647 622 
Q 791 744 966 744 
Q 1141 744 1237 622 
Q 1334 500 1300 325 
Q 1266 150 1123 29 
Q 981 -91 803 -91 
Q 625 -91 529 29 
z
M 926 2067 
Q 828 2188 862 2363 
Q 897 2538 1040 2658 
Q 1184 2778 1359 2778 
Q 1538 2778 1633 2659 
Q 1728 2541 1693 2362 
Q 1659 2184 1518 2065 
Q 1378 1947 1200 1947 
Q 1025 1947 926 2067 
z
" transform="scale(0.015625)"/>
      <path id="DejaVuSerif-Italic-2e" d="M 664 29 
Q 569 150 603 325 
Q 638 500 780 622 
Q 922 744 1100 744 
Q 1272 744 1370 622 
Q 1469 500 1434 325 
Q 1400 153 1254 31 
Q 1109 -91 938 -91 
Q 759 -91 664 29 
z
" transform="scale(0.015625)"/>
      <path id="DejaVuSerif-Italic-36" d="M 1070 553 
Q 1244 219 1684 219 
Q 2125 219 2425 542 
Q 2725 866 2842 1472 
Q 2959 2078 2786 2401 
Q 2613 2725 2172 2725 
Q 1725 2725 1429 2412 
Q 1134 2100 1019 1509 
Q 897 888 1070 553 
z
M 1122 2569 
Q 1378 2803 1670 2918 
Q 1963 3034 2300 3034 
Q 2997 3034 3320 2615 
Q 3644 2197 3503 1472 
Q 3366 763 2845 336 
Q 2325 -91 1597 -91 
Q 806 -91 497 498 
Q 188 1088 400 2181 
Q 638 3406 1272 4078 
Q 1906 4750 2822 4750 
Q 3069 4750 3331 4703 
Q 3594 4656 3859 4563 
L 3709 3794 
L 3356 3794 
Q 3381 4109 3209 4275 
Q 3038 4441 2694 4441 
Q 2088 4441 1702 3981 
Q 1316 3522 1122 2569 
z
" transform="scale(0.015625)"/>
      <path id="DejaVuSerif-Italic-d7" d="M 4481 3450 
L 3034 2003 
L 4481 563 
L 4122 213 
L 2681 1650 
L 1241 213 
L 884 563 
L 2322 2003 
L 884 3450 
L 1241 3803 
L 2681 2363 
L 4122 3803 
L 4481 3450 
z
" transform="scale(0.015625)"/>
      <path id="DejaVuSerif-Italic-4e" d="M -128 0 
L -66 331 
L 563 331 
L 1341 4331 
L 713 4331 
L 778 4666 
L 1975 4666 
L 4056 984 
L 4706 4331 
L 4081 4331 
L 4147 4666 
L 5784 4666 
L 5719 4331 
L 5091 4331 
L 4231 -91 
L 3853 -91 
L 1631 3841 
L 947 331 
L 1575 331 
L 1513 0 
L -128 0 
z
" transform="scale(0.015625)"/>
      <path id="DejaVuSerif-Italic-2b" d="M 2931 4013 
L 2931 2259 
L 4684 2259 
L 4684 1753 
L 2931 1753 
L 2931 0 
L 2431 0 
L 2431 1753 
L 678 1753 
L 678 2259 
L 2431 2259 
L 2431 4013 
L 2931 4013 
z
" transform="scale(0.015625)"/>
      <path id="DejaVuSerif-Italic-34" d="M 2084 1581 
L 2566 4063 
L 491 1581 
L 2084 1581 
z
M 3150 0 
L 1025 0 
L 1091 331 
L 1841 331 
L 2019 1247 
L -19 1247 
L 47 1588 
L 2706 4750 
L 3325 4750 
L 2709 1581 
L 3600 1581 
L 3534 1247 
L 2644 1247 
L 2466 331 
L 3216 331 
L 3150 0 
z
" transform="scale(0.015625)"/>
      <path id="DejaVuSerif-Italic-48" d="M -97 0 
L -34 331 
L 559 331 
L 1338 4331 
L 744 4331 
L 809 4666 
L 2631 4666 
L 2566 4331 
L 1972 4331 
L 1659 2719 
L 4078 2719 
L 4391 4331 
L 3797 4331 
L 3863 4666 
L 5684 4666 
L 5619 4331 
L 5025 4331 
L 4247 331 
L 4841 331 
L 4778 0 
L 2956 0 
L 3019 331 
L 3616 331 
L 4003 2338 
L 1584 2338 
L 1194 331 
L 1788 331 
L 1725 0 
L -97 0 
z
" transform="scale(0.015625)"/>
     </defs>
     <use xlink:href="#DejaVuSerif-Italic-57"/>
     <use xlink:href="#DejaVuSerif-Italic-65" x="94.658203"/>
     <use xlink:href="#DejaVuSerif-Italic-69" x="153.837891"/>
     <use xlink:href="#DejaVuSerif-Italic-67" x="185.820312"/>
     <use xlink:href="#DejaVuSerif-Italic-68" x="249.833984"/>
     <use xlink:href="#DejaVuSerif-Italic-74" x="314.238281"/>
     <use xlink:href="#DejaVuSerif-Italic-65" x="354.423828"/>
     <use xlink:href="#DejaVuSerif-Italic-64" x="413.603516"/>
     <use xlink:href="#DejaVuSerif-Italic-20" x="477.617188"/>
     <use xlink:href="#DejaVuSerif-Italic-43" x="509.404297"/>
     <use xlink:href="#DejaVuSerif-Italic-6f" x="585.917969"/>
     <use xlink:href="#DejaVuSerif-Italic-6d" x="646.123047"/>
     <use xlink:href="#DejaVuSerif-Italic-62" x="740.947266"/>
     <use xlink:href="#DejaVuSerif-Italic-6f" x="804.960938"/>
     <use xlink:href="#DejaVuSerif-Italic-3a" x="865.166016"/>
     <use xlink:href="#DejaVuSerif-Italic-20" x="898.857422"/>
     <use xlink:href="#DejaVuSerif-Italic-30" x="930.644531"/>
     <use xlink:href="#DejaVuSerif-Italic-2e" x="994.267578"/>
     <use xlink:href="#DejaVuSerif-Italic-36" x="1026.054688"/>
     <use xlink:href="#DejaVuSerif-Italic-d7" x="1089.677734"/>
     <use xlink:href="#DejaVuSerif-Italic-4e" x="1173.466797"/>
     <use xlink:href="#DejaVuSerif-Italic-49" x="1260.966797"/>
     <use xlink:href="#DejaVuSerif-Italic-44" x="1300.46875"/>
     <use xlink:href="#DejaVuSerif-Italic-53" x="1380.644531"/>
     <use xlink:href="#DejaVuSerif-Italic-20" x="1449.150391"/>
     <use xlink:href="#DejaVuSerif-Italic-2b" x="1480.9375"/>
     <use xlink:href="#DejaVuSerif-Italic-20" x="1564.726562"/>
     <use xlink:href="#DejaVuSerif-Italic-30" x="1596.513672"/>
     <use xlink:href="#DejaVuSerif-Italic-2e" x="1660.136719"/>
     <use xlink:href="#DejaVuSerif-Italic-34" x="1691.923828"/>
     <use xlink:href="#DejaVuSerif-Italic-d7" x="1755.546875"/>
     <use xlink:href="#DejaVuSerif-Italic-48" x="1839.335938"/>
     <use xlink:href="#DejaVuSerif-Italic-49" x="1926.542969"/>
     <use xlink:href="#DejaVuSerif-Italic-44" x="1966.044922"/>
     <use xlink:href="#DejaVuSerif-Italic-53" x="2046.220703"/>
    </g>
   </g>
   <g id="text_14">
    <!-- Hybrid IDS Security Alerts -->
    <g style="fill: #c62828" transform="translate(55.691797 755.522049) scale(0.135 -0.135)">
     <defs>
      <path id="DejaVuSerif-Bold-79" d="M 1997 -750 
Q 1847 -1116 1634 -1269 
Q 1422 -1422 1063 -1422 
Q 909 -1422 721 -1387 
Q 534 -1353 313 -1288 
L 313 -594 
L 666 -597 
Q 675 -838 779 -953 
Q 884 -1069 1094 -1069 
Q 1297 -1069 1422 -958 
Q 1547 -847 1672 -538 
L 1722 -422 
L 275 2944 
L -84 2944 
L -84 3322 
L 1831 3322 
L 1831 2944 
L 1434 2944 
L 2278 978 
L 3066 2944 
L 2625 2944 
L 2625 3322 
L 3872 3322 
L 3872 2944 
L 3469 2944 
L 1997 -750 
z
" transform="scale(0.015625)"/>
      <path id="DejaVuSerif-Bold-62" d="M 622 378 
L 622 4488 
L 147 4488 
L 147 4863 
L 1728 4863 
L 1728 2900 
Q 1869 3159 2106 3286 
Q 2344 3413 2694 3413 
Q 3403 3413 3811 2945 
Q 4219 2478 4219 1663 
Q 4219 847 3811 378 
Q 3403 -91 2694 -91 
Q 2344 -91 2106 36 
Q 1869 163 1728 422 
L 1728 0 
L 147 0 
L 147 378 
L 622 378 
z
M 1728 1497 
Q 1728 916 1876 656 
Q 2025 397 2356 397 
Q 2697 397 2836 672 
Q 2975 947 2975 1663 
Q 2975 2378 2836 2651 
Q 2697 2925 2356 2925 
Q 2025 2925 1876 2665 
Q 1728 2406 1728 1825 
L 1728 1497 
z
" transform="scale(0.015625)"/>
      <path id="DejaVuSerif-Bold-64" d="M 2747 1497 
L 2747 1825 
Q 2747 2406 2597 2665 
Q 2447 2925 2119 2925 
Q 1775 2925 1636 2651 
Q 1497 2378 1497 1663 
Q 1497 947 1637 672 
Q 1778 397 2119 397 
Q 2447 397 2597 656 
Q 2747 916 2747 1497 
z
M 3853 378 
L 4325 378 
L 4325 0 
L 2747 0 
L 2747 422 
Q 2606 163 2367 36 
Q 2128 -91 1778 -91 
Q 1072 -91 667 378 
Q 263 847 263 1663 
Q 263 2481 667 2947 
Q 1072 3413 1778 3413 
Q 2128 3413 2367 3286 
Q 2606 3159 2747 2900 
L 2747 4488 
L 2272 4488 
L 2272 4863 
L 3853 4863 
L 3853 378 
z
" transform="scale(0.015625)"/>
      <path id="DejaVuSerif-Bold-41" d="M -50 0 
L -50 378 
L 331 378 
L 2088 4666 
L 2834 4666 
L 4594 378 
L 5038 378 
L 5038 0 
L 2853 0 
L 2853 378 
L 3309 378 
L 2925 1331 
L 1172 1331 
L 781 378 
L 1338 378 
L 1338 0 
L -50 0 
z
M 1325 1709 
L 2772 1709 
L 2053 3494 
L 1325 1709 
z
" transform="scale(0.015625)"/>
     </defs>
     <use xlink:href="#DejaVuSerif-Bold-48"/>
     <use xlink:href="#DejaVuSerif-Bold-79" x="94.482422"/>
     <use xlink:href="#DejaVuSerif-Bold-62" x="152.587891"/>
     <use xlink:href="#DejaVuSerif-Bold-72" x="222.509766"/>
     <use xlink:href="#DejaVuSerif-Bold-69" x="275.195312"/>
     <use xlink:href="#DejaVuSerif-Bold-64" x="313.183594"/>
     <use xlink:href="#DejaVuSerif-Bold-20" x="383.105469"/>
     <use xlink:href="#DejaVuSerif-Bold-49" x="417.919922"/>
     <use xlink:href="#DejaVuSerif-Bold-44" x="464.697266"/>
     <use xlink:href="#DejaVuSerif-Bold-53" x="551.416016"/>
     <use xlink:href="#DejaVuSerif-Bold-20" x="623.632812"/>
     <use xlink:href="#DejaVuSerif-Bold-53" x="658.447266"/>
     <use xlink:href="#DejaVuSerif-Bold-65" x="730.664062"/>
     <use xlink:href="#DejaVuSerif-Bold-63" x="794.287109"/>
     <use xlink:href="#DejaVuSerif-Bold-75" x="855.175781"/>
     <use xlink:href="#DejaVuSerif-Bold-72" x="927.880859"/>
     <use xlink:href="#DejaVuSerif-Bold-69" x="980.566406"/>
     <use xlink:href="#DejaVuSerif-Bold-74" x="1018.554688"/>
     <use xlink:href="#DejaVuSerif-Bold-79" x="1064.746094"/>
     <use xlink:href="#DejaVuSerif-Bold-20" x="1122.851562"/>
     <use xlink:href="#DejaVuSerif-Bold-41" x="1157.666016"/>
     <use xlink:href="#DejaVuSerif-Bold-6c" x="1235.253906"/>
     <use xlink:href="#DejaVuSerif-Bold-65" x="1273.242188"/>
     <use xlink:href="#DejaVuSerif-Bold-72" x="1336.865234"/>
     <use xlink:href="#DejaVuSerif-Bold-74" x="1389.550781"/>
     <use xlink:href="#DejaVuSerif-Bold-73" x="1435.742188"/>
    </g>
   </g>
   <g id="text_15">
    <!-- Type | Confidence | Time | Severity -->
    <g style="fill: #212121" transform="translate(67.223711 777.675231) scale(0.1 -0.1)">
     <defs>
      <path id="DejaVuSerif-54" d="M 1222 0 
L 1222 331 
L 1819 331 
L 1819 4294 
L 447 4294 
L 447 3566 
L 63 3566 
L 63 4666 
L 4206 4666 
L 4206 3566 
L 3822 3566 
L 3822 4294 
L 2450 4294 
L 2450 331 
L 3047 331 
L 3047 0 
L 1222 0 
z
" transform="scale(0.015625)"/>
      <path id="DejaVuSerif-79" d="M 1381 -609 
L 1600 -56 
L 359 2988 
L -19 2988 
L -19 3322 
L 1509 3322 
L 1509 2988 
L 978 2988 
L 1913 703 
L 2847 2988 
L 2350 2988 
L 2350 3322 
L 3597 3322 
L 3597 2988 
L 3225 2988 
L 1703 -750 
Q 1547 -1138 1356 -1280 
Q 1166 -1422 819 -1422 
Q 672 -1422 517 -1397 
Q 363 -1372 206 -1325 
L 206 -691 
L 500 -691 
Q 519 -903 608 -995 
Q 697 -1088 884 -1088 
Q 1056 -1088 1161 -992 
Q 1266 -897 1381 -609 
z
" transform="scale(0.015625)"/>
      <path id="DejaVuSerif-70" d="M 1313 1825 
L 1313 1497 
Q 1313 897 1542 583 
Q 1772 269 2209 269 
Q 2650 269 2876 622 
Q 3103 975 3103 1663 
Q 3103 2353 2876 2703 
Q 2650 3053 2209 3053 
Q 1772 3053 1542 2737 
Q 1313 2422 1313 1825 
z
M 738 2988 
L 184 2988 
L 184 3322 
L 1313 3322 
L 1313 2803 
Q 1481 3116 1742 3264 
Q 2003 3413 2388 3413 
Q 3000 3413 3387 2928 
Q 3775 2444 3775 1663 
Q 3775 881 3387 395 
Q 3000 -91 2388 -91 
Q 2003 -91 1742 57 
Q 1481 206 1313 519 
L 1313 -997 
L 1856 -997 
L 1856 -1331 
L 184 -1331 
L 184 -997 
L 738 -997 
L 738 2988 
z
" transform="scale(0.015625)"/>
      <path id="DejaVuSerif-43" d="M 4513 1234 
Q 4306 581 3820 245 
Q 3334 -91 2591 -91 
Q 2134 -91 1743 65 
Q 1353 222 1050 525 
Q 700 875 529 1320 
Q 359 1766 359 2328 
Q 359 3416 987 4083 
Q 1616 4750 2644 4750 
Q 3025 4750 3456 4650 
Q 3888 4550 4384 4347 
L 4384 3272 
L 4031 3272 
Q 3916 3859 3567 4137 
Q 3219 4416 2591 4416 
Q 1844 4416 1459 3886 
Q 1075 3356 1075 2328 
Q 1075 1303 1459 773 
Q 1844 244 2591 244 
Q 3113 244 3450 492 
Q 3788 741 3938 1234 
L 4513 1234 
z
" transform="scale(0.015625)"/>
      <path id="DejaVuSerif-66" d="M 2753 4078 
L 2450 4078 
Q 2447 4313 2317 4434 
Q 2188 4556 1941 4556 
Q 1619 4556 1487 4379 
Q 1356 4203 1356 3750 
L 1356 3322 
L 2284 3322 
L 2284 2988 
L 1356 2988 
L 1356 331 
L 2094 331 
L 2094 0 
L 231 0 
L 231 331 
L 781 331 
L 781 2988 
L 231 2988 
L 231 3322 
L 781 3322 
L 781 3738 
Q 781 4294 1070 4578 
Q 1359 4863 1919 4863 
Q 2128 4863 2337 4825 
Q 2547 4788 2753 4709 
L 2753 4078 
z
" transform="scale(0.015625)"/>
      <path id="DejaVuSerif-53" d="M 594 225 
L 594 1288 
L 953 1284 
Q 969 753 1261 498 
Q 1553 244 2150 244 
Q 2706 244 2998 464 
Q 3291 684 3291 1106 
Q 3291 1444 3114 1625 
Q 2938 1806 2369 1978 
L 1753 2163 
Q 1084 2366 811 2669 
Q 538 2972 538 3500 
Q 538 4094 959 4422 
Q 1381 4750 2144 4750 
Q 2469 4750 2856 4679 
Q 3244 4609 3681 4475 
L 3681 3481 
L 3328 3481 
Q 3275 3975 2998 4195 
Q 2722 4416 2156 4416 
Q 1663 4416 1405 4214 
Q 1147 4013 1147 3628 
Q 1147 3294 1340 3103 
Q 1534 2913 2163 2725 
L 2741 2553 
Q 3375 2363 3645 2067 
Q 3916 1772 3916 1275 
Q 3916 597 3481 253 
Q 3047 -91 2188 -91 
Q 1803 -91 1404 -12 
Q 1006 66 594 225 
z
" transform="scale(0.015625)"/>
      <path id="DejaVuSerif-76" d="M 1581 0 
L 359 2988 
L -19 2988 
L -19 3322 
L 1509 3322 
L 1509 2988 
L 978 2988 
L 1913 703 
L 2847 2988 
L 2350 2988 
L 2350 3322 
L 3597 3322 
L 3597 2988 
L 3225 2988 
L 2003 0 
L 1581 0 
z
" transform="scale(0.015625)"/>
     </defs>
     <use xlink:href="#DejaVuSerif-54"/>
     <use xlink:href="#DejaVuSerif-79" x="66.699219"/>
     <use xlink:href="#DejaVuSerif-70" x="123.193359"/>
     <use xlink:href="#DejaVuSerif-65" x="187.207031"/>
     <use xlink:href="#DejaVuSerif-20" x="246.386719"/>
     <use xlink:href="#DejaVuSerif-7c" x="278.173828"/>
     <use xlink:href="#DejaVuSerif-20" x="311.865234"/>
     <use xlink:href="#DejaVuSerif-43" x="343.652344"/>
     <use xlink:href="#DejaVuSerif-6f" x="420.166016"/>
     <use xlink:href="#DejaVuSerif-6e" x="480.371094"/>
     <use xlink:href="#DejaVuSerif-66" x="544.775391"/>
     <use xlink:href="#DejaVuSerif-69" x="581.787109"/>
     <use xlink:href="#DejaVuSerif-64" x="613.769531"/>
     <use xlink:href="#DejaVuSerif-65" x="677.783203"/>
     <use xlink:href="#DejaVuSerif-6e" x="736.962891"/>
     <use xlink:href="#DejaVuSerif-63" x="801.367188"/>
     <use xlink:href="#DejaVuSerif-65" x="857.373047"/>
     <use xlink:href="#DejaVuSerif-20" x="916.552734"/>
     <use xlink:href="#DejaVuSerif-7c" x="948.339844"/>
     <use xlink:href="#DejaVuSerif-20" x="982.03125"/>
     <use xlink:href="#DejaVuSerif-54" x="1013.818359"/>
     <use xlink:href="#DejaVuSerif-69" x="1080.517578"/>
     <use xlink:href="#DejaVuSerif-6d" x="1112.5"/>
     <use xlink:href="#DejaVuSerif-65" x="1207.324219"/>
     <use xlink:href="#DejaVuSerif-20" x="1266.503906"/>
     <use xlink:href="#DejaVuSerif-7c" x="1298.291016"/>
     <use xlink:href="#DejaVuSerif-20" x="1331.982422"/>
     <use xlink:href="#DejaVuSerif-53" x="1363.769531"/>
     <use xlink:href="#DejaVuSerif-65" x="1432.275391"/>
     <use xlink:href="#DejaVuSerif-76" x="1491.455078"/>
     <use xlink:href="#DejaVuSerif-65" x="1547.949219"/>
     <use xlink:href="#DejaVuSerif-72" x="1607.128906"/>
     <use xlink:href="#DejaVuSerif-69" x="1654.931641"/>
     <use xlink:href="#DejaVuSerif-74" x="1686.914062"/>
     <use xlink:href="#DejaVuSerif-79" x="1727.099609"/>
    </g>
   </g>
   <g id="patch_10">
    <path d="M 158.154961 121.39392 
Q 158.154961 130.17081 158.154961 138.9477 
L 161.404961 138.9477 
Q 158.904961 143.947449 156.404961 148.947199 
Q 153.904961 143.947449 151.404961 138.9477 
L 154.654961 138.9477 
Q 154.654961 130.17081 154.654961 121.39392 
L 158.154961 121.39392 
z
" clip-path="url(#p8f6cbf10f3)" style="fill: #1e62a6; stroke: #1e62a6; stroke-linecap: round"/>
   </g>
   <g id="patch_11">
    <path d="M 158.154961 202.03392 
Q 158.154961 210.81081 158.154961 219.5877 
L 161.404961 219.5877 
Q 158.904961 224.587449 156.404961 229.587199 
Q 153.904961 224.587449 151.404961 219.5877 
L 154.654961 219.5877 
Q 154.654961 210.81081 154.654961 202.03392 
L 158.154961 202.03392 
z
" clip-path="url(#p8f6cbf10f3)" style="fill: #1e62a6; stroke: #1e62a6; stroke-linecap: round"/>
   </g>
   <g id="patch_12">
    <path d="M 158.154961 394.868702 
Q 158.154961 403.645592 158.154961 412.422482 
L 161.404961 412.422482 
Q 158.904961 417.422232 156.404961 422.421982 
Q 153.904961 417.422232 151.404961 412.422482 
L 154.654961 412.422482 
Q 154.654961 403.645592 154.654961 394.868702 
L 158.154961 394.868702 
z
" clip-path="url(#p8f6cbf10f3)" style="fill: #ef6c00; stroke: #ef6c00; stroke-linecap: round"/>
   </g>
   <g id="patch_13">
    <path d="M 158.154961 475.508702 
Q 158.154961 484.285592 158.154961 493.062482 
L 161.404961 493.062482 
Q 158.904961 498.062232 156.404961 503.061982 
Q 153.904961 498.062232 151.404961 493.062482 
L 154.654961 493.062482 
Q 154.654961 484.285592 154.654961 475.508702 
L 158.154961 475.508702 
z
" clip-path="url(#p8f6cbf10f3)" style="fill: #ef6c00; stroke: #ef6c00; stroke-linecap: round"/>
   </g>
   <g id="patch_14">
    <path d="M 158.154961 570.172194 
Q 158.154961 587.717869 158.154961 605.263543 
L 161.404961 605.263543 
Q 158.904961 610.262636 156.404961 615.261729 
Q 153.904961 610.262636 151.404961 605.263543 
L 154.654961 605.263543 
Q 154.654961 587.717869 154.654961 570.172194 
L 158.154961 570.172194 
z
" clip-path="url(#p8f6cbf10f3)" style="fill: #ef6c00; stroke: #ef6c00; stroke-linecap: round"/>
   </g>
   <g id="patch_15">
    <path d="M 47.174103 263.328473 
Q 238.338265 455.882375 54.174701 648.458535 
L 56.523529 650.704755 
Q 51.260776 652.590402 45.933043 654.408159 
Q 47.712734 649.066788 49.296366 643.793307 
L 51.645194 646.039528 
Q 233.451719 455.928076 44.690282 265.794367 
L 47.174103 263.328473 
z
" clip-path="url(#p8f6cbf10f3)" style="fill: #1e62a6; stroke: #1e62a6; stroke-linecap: round"/>
   </g>
   <g id="text_16">
    <!-- NIDS Prediction Flow -->
    <g style="fill: #1e62a6" transform="translate(14.798438 520.10553) rotate(-90) scale(0.1 -0.1)">
     <defs>
      <path id="DejaVuSerif-Bold-50" d="M 300 0 
L 300 378 
L 897 378 
L 897 4288 
L 300 4288 
L 300 4666 
L 2956 4666 
Q 3734 4666 4193 4295 
Q 4653 3925 4653 3303 
Q 4653 2678 4192 2304 
Q 3731 1931 2956 1931 
L 2100 1931 
L 2100 378 
L 2853 378 
L 2853 0 
L 300 0 
z
M 2100 2309 
L 2450 2309 
Q 2856 2309 3098 2579 
Q 3341 2850 3341 3303 
Q 3341 3753 3100 4020 
Q 2859 4288 2450 4288 
L 2100 4288 
L 2100 2309 
z
" transform="scale(0.015625)"/>
     </defs>
     <use xlink:href="#DejaVuSerif-Bold-4e"/>
     <use xlink:href="#DejaVuSerif-Bold-49" x="91.40625"/>
     <use xlink:href="#DejaVuSerif-Bold-44" x="138.183594"/>
     <use xlink:href="#DejaVuSerif-Bold-53" x="224.902344"/>
     <use xlink:href="#DejaVuSerif-Bold-20" x="297.119141"/>
     <use xlink:href="#DejaVuSerif-Bold-50" x="331.933594"/>
     <use xlink:href="#DejaVuSerif-Bold-72" x="407.128906"/>
     <use xlink:href="#DejaVuSerif-Bold-65" x="459.814453"/>
     <use xlink:href="#DejaVuSerif-Bold-64" x="523.4375"/>
     <use xlink:href="#DejaVuSerif-Bold-69" x="593.359375"/>
     <use xlink:href="#DejaVuSerif-Bold-63" x="631.347656"/>
     <use xlink:href="#DejaVuSerif-Bold-74" x="692.236328"/>
     <use xlink:href="#DejaVuSerif-Bold-69" x="738.427734"/>
     <use xlink:href="#DejaVuSerif-Bold-6f" x="776.416016"/>
     <use xlink:href="#DejaVuSerif-Bold-6e" x="843.115234"/>
     <use xlink:href="#DejaVuSerif-Bold-20" x="915.820312"/>
     <use xlink:href="#DejaVuSerif-Bold-46" x="950.634766"/>
     <use xlink:href="#DejaVuSerif-Bold-6c" x="1021.630859"/>
     <use xlink:href="#DejaVuSerif-Bold-6f" x="1059.619141"/>
     <use xlink:href="#DejaVuSerif-Bold-77" x="1126.318359"/>
    </g>
   </g>
   <g id="patch_16">
    <path d="M 158.154961 696.391753 
Q 158.154961 706.924142 158.154961 717.456531 
L 161.404961 717.456531 
Q 158.904961 722.456335 156.404961 727.456138 
Q 153.904961 722.456335 151.404961 717.456531 
L 154.654961 717.456531 
Q 154.654961 706.924142 154.654961 696.391753 
L 158.154961 696.391753 
z
" clip-path="url(#p8f6cbf10f3)" style="fill: #2e7d32; stroke: #2e7d32; stroke-linecap: round"/>
   </g>
  </g>
 </g>
 <defs>
  <clipPath id="p8f6cbf10f3">
   <rect x="11.612961" y="7.2" width="289.584" height="806.4"/>
  </clipPath>
 </defs>
</svg>
