<?xml version="1.0" encoding="utf-8" standalone="no"?>
<!DOCTYPE svg PUBLIC "-//W3C//DTD SVG 1.1//EN"
  "http://www.w3.org/Graphics/SVG/1.1/DTD/svg11.dtd">
<svg xmlns:xlink="http://www.w3.org/1999/xlink" width="309.6pt" height="820.8pt" viewBox="0 0 309.6 820.8" xmlns="http://www.w3.org/2000/svg" version="1.1">
 <metadata>
  <rdf:RDF xmlns:dc="http://purl.org/dc/elements/1.1/" xmlns:cc="http://creativecommons.org/ns#" xmlns:rdf="http://www.w3.org/1999/02/22-rdf-syntax-ns#">
   <cc:Work>
    <dc:type rdf:resource="http://purl.org/dc/dcmitype/StillImage"/>
    <dc:date>2026-05-26T11:54:30.710600</dc:date>
    <dc:format>image/svg+xml</dc:format>
    <dc:creator>
     <cc:Agent>
      <dc:title>Matplotlib v3.6.3, https://matplotlib.org/</dc:title>
     </cc:Agent>
    </dc:creator>
   </cc:Work>
  </rdf:RDF>
 </metadata>
 <defs>
  <style type="text/css">*{stroke-linejoin: round; stroke-linecap: butt}</style>
 </defs>
 <g id="figure_1">
  <g id="patch_1">
   <path d="M 0 820.8 
L 309.6 820.8 
L 309.6 0 
L 0 0 
z
" style="fill: #ffffff"/>
  </g>
  <g id="axes_1">
   <g id="patch_2">
    <path d="M 40.745455 132.016696 
L 268.854545 132.016696 
Q 274.221818 132.016696 274.221818 126.406957 
L 274.221818 70.309565 
Q 274.221818 64.699826 268.854545 64.699826 
L 40.745455 64.699826 
Q 35.378182 64.699826 35.378182 70.309565 
L 35.378182 126.406957 
Q 35.378182 132.016696 40.745455 132.016696 
z
" clip-path="url(#p34e9f2b606)" style="fill: #e3f2fd; stroke: #1e62a6; stroke-width: 3; stroke-linejoin: miter"/>
   </g>
   <g id="patch_3">
    <path d="M 40.745455 223.174957 
L 268.854545 223.174957 
Q 274.221818 223.174957 274.221818 217.565217 
L 274.221818 161.467826 
Q 274.221818 155.858087 268.854545 155.858087 
L 40.745455 155.858087 
Q 35.378182 155.858087 35.378182 161.467826 
L 35.378182 217.565217 
Q 35.378182 223.174957 40.745455 223.174957 
z
" clip-path="url(#p34e9f2b606)" style="fill: #e3f2fd; stroke: #1e62a6; stroke-width: 3; stroke-linejoin: miter"/>
   </g>
   <g id="patch_4">
    <path d="M 40.745455 314.333217 
L 268.854545 314.333217 
Q 274.221818 314.333217 274.221818 308.723478 
L 274.221818 252.626087 
Q 274.221818 247.016348 268.854545 247.016348 
L 40.745455 247.016348 
Q 35.378182 247.016348 35.378182 252.626087 
L 35.378182 308.723478 
Q 35.378182 314.333217 40.745455 314.333217 
z
" clip-path="url(#p34e9f2b606)" style="fill: #fff3e0; stroke: #ef6c00; stroke-width: 3; stroke-linejoin: miter"/>
   </g>
   <g id="patch_5">
    <path d="M 40.745455 405.491478 
L 268.854545 405.491478 
Q 274.221818 405.491478 274.221818 399.881739 
L 274.221818 343.784348 
Q 274.221818 338.174609 268.854545 338.174609 
L 40.745455 338.174609 
Q 35.378182 338.174609 35.378182 343.784348 
L 35.378182 399.881739 
Q 35.378182 405.491478 40.745455 405.491478 
z
" clip-path="url(#p34e9f2b606)" style="fill: #fff3e0; stroke: #ef6c00; stroke-width: 3; stroke-linejoin: miter"/>
   </g>
   <g id="patch_6">
    <path d="M 40.745455 496.649739 
L 268.854545 496.649739 
Q 274.221818 496.649739 274.221818 491.04 
L 274.221818 434.942609 
Q 274.221818 429.33287 268.854545 429.33287 
L 40.745455 429.33287 
Q 35.378182 429.33287 35.378182 434.942609 
L 35.378182 491.04 
Q 35.378182 496.649739 40.745455 496.649739 
z
" clip-path="url(#p34e9f2b606)" style="fill: #e8f5e9; stroke: #2e7d32; stroke-width: 3; stroke-linejoin: miter"/>
   </g>
   <g id="patch_7">
    <path d="M 40.745455 554.149565 
L 154.8 512.076522 
L 268.854545 554.149565 
L 154.8 596.222609 
z
" clip-path="url(#p34e9f2b606)" style="fill: #e8f5e9; stroke: #2e7d32; stroke-width: 3; stroke-linejoin: miter"/>
   </g>
   <g id="patch_8">
    <path d="M 40.745455 678.966261 
L 268.854545 678.966261 
Q 274.221818 678.966261 274.221818 673.356522 
L 274.221818 617.25913 
Q 274.221818 611.649391 268.854545 611.649391 
L 40.745455 611.649391 
Q 35.378182 611.649391 35.378182 617.25913 
L 35.378182 673.356522 
Q 35.378182 678.966261 40.745455 678.966261 
z
" clip-path="url(#p34e9f2b606)" style="fill: #ffebee; stroke: #c62828; stroke-width: 3; stroke-linejoin: miter"/>
   </g>
   <g id="patch_9">
    <path d="M 40.745455 784.14887 
L 268.854545 784.14887 
Q 274.221818 784.14887 274.221818 778.53913 
L 274.221818 722.441739 
Q 274.221818 716.832 268.854545 716.832 
L 40.745455 716.832 
Q 35.378182 716.832 35.378182 722.441739 
L 35.378182 778.53913 
Q 35.378182 784.14887 40.745455 784.14887 
z
" clip-path="url(#p34e9f2b606)" style="fill: #ffebee; stroke: #c62828; stroke-width: 3; stroke-linejoin: miter"/>
   </g>
   <g id="text_1">
    <!-- 1. Ingest Raw Streams -->
    <g style="fill: #1e62a6" transform="translate(79.067812 90.980625) scale(0.12 -0.12)">
     <defs>
      <path id="DejaVuSerif-Bold-31" d="M 878 0 
L 878 378 
L 1753 378 
L 1753 4153 
L 781 3578 
L 781 4044 
L 1953 4750 
L 2938 4750 
L 2938 378 
L 3816 378 
L 3816 0 
L 878 0 
z
" transform="scale(0.015625)"/>
      <path id="DejaVuSerif-Bold-2e" d="M 519 506 
Q 519 750 694 925 
Q 869 1100 1113 1100 
Q 1359 1100 1534 925 
Q 1709 750 1709 506 
Q 1709 259 1534 84 
Q 1359 -91 1113 -91 
Q 869 -91 694 84 
Q 519 259 519 506 
z
" transform="scale(0.015625)"/>
      <path id="DejaVuSerif-Bold-20" transform="scale(0.015625)"/>
      <path id="DejaVuSerif-Bold-49" d="M 300 0 
L 300 378 
L 897 378 
L 897 4288 
L 300 4288 
L 300 4666 
L 2700 4666 
L 2700 4288 
L 2100 4288 
L 2100 378 
L 2700 378 
L 2700 0 
L 300 0 
z
" transform="scale(0.015625)"/>
      <path id="DejaVuSerif-Bold-6e" d="M 219 0 
L 219 378 
L 691 378 
L 691 2944 
L 219 2944 
L 219 3322 
L 1797 3322 
L 1797 2853 
Q 1997 3150 2253 3281 
Q 2509 3413 2900 3413 
Q 3459 3413 3745 3083 
Q 4031 2753 4031 2113 
L 4031 378 
L 4506 378 
L 4506 0 
L 2522 0 
L 2522 378 
L 2925 378 
L 2925 2144 
Q 2925 2566 2817 2730 
Q 2709 2894 2444 2894 
Q 2109 2894 1953 2648 
Q 1797 2403 1797 1869 
L 1797 378 
L 2203 378 
L 2203 0 
L 219 0 
z
" transform="scale(0.015625)"/>
      <path id="DejaVuSerif-Bold-67" d="M 3853 2944 
L 3853 44 
Q 3853 -656 3354 -1039 
Q 2856 -1422 1947 -1422 
Q 1616 -1422 1275 -1370 
Q 934 -1319 575 -1216 
L 575 -422 
L 928 -422 
Q 975 -750 1192 -909 
Q 1409 -1069 1813 -1069 
Q 2325 -1069 2536 -823 
Q 2747 -578 2747 44 
L 2747 422 
Q 2606 163 2367 36 
Q 2128 -91 1778 -91 
Q 1072 -91 667 378 
Q 263 847 263 1663 
Q 263 2481 667 2947 
Q 1072 3413 1778 3413 
Q 2128 3413 2367 3286 
Q 2606 3159 2747 2900 
L 2747 3322 
L 4325 3322 
L 4325 2944 
L 3853 2944 
z
M 2747 1825 
Q 2747 2406 2597 2665 
Q 2447 2925 2119 2925 
Q 1775 2925 1636 2651 
Q 1497 2378 1497 1663 
Q 1497 947 1637 672 
Q 1778 397 2119 397 
Q 2447 397 2597 656 
Q 2747 916 2747 1497 
L 2747 1825 
z
" transform="scale(0.015625)"/>
      <path id="DejaVuSerif-Bold-65" d="M 2566 1875 
Q 2566 2531 2444 2795 
Q 2322 3059 2028 3059 
Q 1744 3059 1620 2800 
Q 1497 2541 1497 1931 
L 1497 1875 
L 2566 1875 
z
M 3781 1503 
L 1497 1503 
L 1497 1478 
Q 1497 834 1690 548 
Q 1884 263 2316 263 
Q 2675 263 2897 453 
Q 3119 644 3181 1006 
L 3700 1006 
Q 3566 441 3166 175 
Q 2766 -91 2047 -91 
Q 1184 -91 723 364 
Q 263 819 263 1663 
Q 263 2488 734 2950 
Q 1206 3413 2047 3413 
Q 2872 3413 3312 2927 
Q 3753 2441 3781 1503 
z
" transform="scale(0.015625)"/>
      <path id="DejaVuSerif-Bold-73" d="M 300 97 
L 300 1025 
L 653 1025 
Q 697 653 931 458 
Q 1166 263 1569 263 
Q 1906 263 2086 380 
Q 2266 497 2266 716 
Q 2266 916 2152 1025 
Q 2038 1134 1709 1216 
L 1253 1331 
Q 738 1459 506 1698 
Q 275 1938 275 2344 
Q 275 2884 650 3148 
Q 1025 3413 1806 3413 
Q 2100 3413 2433 3364 
Q 2766 3316 3169 3213 
L 3169 2375 
L 2816 2375 
Q 2788 2716 2573 2887 
Q 2359 3059 1959 3059 
Q 1622 3059 1448 2951 
Q 1275 2844 1275 2638 
Q 1275 2469 1375 2372 
Q 1475 2275 1734 2209 
L 2188 2094 
Q 2841 1928 3091 1684 
Q 3341 1441 3341 1006 
Q 3341 444 2939 176 
Q 2538 -91 1691 -91 
Q 1381 -91 1034 -44 
Q 688 3 300 97 
z
" transform="scale(0.015625)"/>
      <path id="DejaVuSerif-Bold-74" d="M 634 2944 
L 153 2944 
L 153 3322 
L 634 3322 
L 634 4353 
L 1741 4353 
L 1741 3322 
L 2663 3322 
L 2663 2944 
L 1741 2944 
L 1741 909 
Q 1741 475 1809 369 
Q 1878 263 2059 263 
Q 2259 263 2356 397 
Q 2453 531 2459 813 
L 2925 813 
Q 2897 313 2651 111 
Q 2406 -91 1806 -91 
Q 1122 -91 878 123 
Q 634 338 634 909 
L 634 2944 
z
" transform="scale(0.015625)"/>
      <path id="DejaVuSerif-Bold-52" d="M 3397 2278 
Q 3675 2238 3865 2094 
Q 4056 1950 4197 1678 
L 4878 378 
L 5356 378 
L 5356 0 
L 3822 0 
L 3078 1409 
Q 2863 1847 2711 1967 
Q 2559 2088 2291 2088 
L 2100 2088 
L 2100 378 
L 2700 378 
L 2700 0 
L 300 0 
L 300 378 
L 897 378 
L 897 4288 
L 300 4288 
L 300 4666 
L 2963 4666 
Q 3775 4666 4217 4339 
Q 4659 4013 4659 3413 
Q 4659 2925 4345 2642 
Q 4031 2359 3397 2278 
z
M 2100 2463 
L 2509 2463 
Q 2947 2463 3183 2700 
Q 3419 2938 3419 3378 
Q 3419 3819 3183 4053 
Q 2947 4288 2509 4288 
L 2100 4288 
L 2100 2463 
z
" transform="scale(0.015625)"/>
      <path id="DejaVuSerif-Bold-61" d="M 3525 2041 
L 3525 378 
L 4000 378 
L 4000 0 
L 2419 0 
L 2419 422 
Q 2200 159 1931 34 
Q 1663 -91 1319 -91 
Q 809 -91 536 182 
Q 263 456 263 966 
Q 263 1525 655 1803 
Q 1047 2081 1838 2081 
L 2419 2081 
L 2419 2278 
Q 2419 2681 2228 2873 
Q 2038 3066 1638 3066 
Q 1306 3066 1126 2930 
Q 947 2794 872 2484 
L 519 2484 
L 519 3200 
Q 816 3306 1134 3359 
Q 1453 3413 1806 3413 
Q 2697 3413 3111 3081 
Q 3525 2750 3525 2041 
z
M 2419 1044 
L 2419 1709 
L 2003 1709 
Q 1694 1709 1528 1540 
Q 1363 1372 1363 1056 
Q 1363 741 1483 584 
Q 1603 428 1850 428 
Q 2106 428 2262 597 
Q 2419 766 2419 1044 
z
" transform="scale(0.015625)"/>
      <path id="DejaVuSerif-Bold-77" d="M 3450 3322 
L 4206 1106 
L 4831 2944 
L 4397 2944 
L 4397 3322 
L 5638 3322 
L 5638 2944 
L 5247 2944 
L 4244 0 
L 3481 0 
L 2778 2081 
L 2069 0 
L 1313 0 
L 306 2944 
L -56 2944 
L -56 3322 
L 1825 3322 
L 1825 2944 
L 1434 2944 
L 2047 1147 
L 2791 3322 
L 3450 3322 
z
" transform="scale(0.015625)"/>
      <path id="DejaVuSerif-Bold-53" d="M 494 225 
L 494 1331 
L 891 1331 
Q 981 806 1318 547 
Q 1656 288 2253 288 
Q 2738 288 2991 472 
Q 3244 656 3244 1013 
Q 3244 1294 3072 1450 
Q 2900 1606 2363 1741 
L 1663 1913 
Q 978 2088 700 2398 
Q 422 2709 422 3284 
Q 422 3978 883 4364 
Q 1344 4750 2175 4750 
Q 2584 4750 3026 4681 
Q 3469 4613 3944 4475 
L 3944 3444 
L 3547 3444 
Q 3456 3925 3150 4148 
Q 2844 4372 2278 4372 
Q 1816 4372 1580 4211 
Q 1344 4050 1344 3731 
Q 1344 3441 1506 3289 
Q 1669 3138 2303 2975 
L 3003 2803 
Q 3653 2641 3945 2297 
Q 4238 1953 4238 1350 
Q 4238 644 3750 276 
Q 3263 -91 2316 -91 
Q 1859 -91 1409 -12 
Q 959 66 494 225 
z
" transform="scale(0.015625)"/>
      <path id="DejaVuSerif-Bold-72" d="M 3438 3359 
L 3438 2369 
L 3084 2369 
Q 3066 2634 2941 2764 
Q 2816 2894 2578 2894 
Q 2216 2894 2006 2575 
Q 1797 2256 1797 1691 
L 1797 378 
L 2400 378 
L 2400 0 
L 219 0 
L 219 378 
L 691 378 
L 691 2944 
L 184 2944 
L 184 3322 
L 1797 3322 
L 1797 2731 
Q 1959 3078 2226 3245 
Q 2494 3413 2881 3413 
Q 2978 3413 3117 3398 
Q 3256 3384 3438 3359 
z
" transform="scale(0.015625)"/>
      <path id="DejaVuSerif-Bold-6d" d="M 3884 2778 
Q 4116 3109 4384 3261 
Q 4653 3413 5013 3413 
Q 5584 3413 5867 3089 
Q 6150 2766 6150 2113 
L 6150 378 
L 6625 378 
L 6625 0 
L 4647 0 
L 4647 378 
L 5044 378 
L 5044 1947 
Q 5044 2569 4948 2731 
Q 4853 2894 4594 2894 
Q 4300 2894 4137 2667 
Q 3975 2441 3975 2022 
L 3975 378 
L 4372 378 
L 4372 0 
L 2472 0 
L 2472 378 
L 2869 378 
L 2869 1947 
Q 2869 2569 2772 2731 
Q 2675 2894 2419 2894 
Q 2122 2894 1959 2667 
Q 1797 2441 1797 2022 
L 1797 378 
L 2194 378 
L 2194 0 
L 219 0 
L 219 378 
L 691 378 
L 691 2944 
L 219 2944 
L 219 3322 
L 1797 3322 
L 1797 2853 
Q 1991 3144 2241 3278 
Q 2491 3413 2834 3413 
Q 3241 3413 3494 3258 
Q 3747 3103 3884 2778 
z
" transform="scale(0.015625)"/>
     </defs>
     <use xlink:href="#DejaVuSerif-Bold-31"/>
     <use xlink:href="#DejaVuSerif-Bold-2e" x="69.580078"/>
     <use xlink:href="#DejaVuSerif-Bold-20" x="104.394531"/>
     <use xlink:href="#DejaVuSerif-Bold-49" x="139.208984"/>
     <use xlink:href="#DejaVuSerif-Bold-6e" x="185.986328"/>
     <use xlink:href="#DejaVuSerif-Bold-67" x="258.691406"/>
     <use xlink:href="#DejaVuSerif-Bold-65" x="328.613281"/>
     <use xlink:href="#DejaVuSerif-Bold-73" x="392.236328"/>
     <use xlink:href="#DejaVuSerif-Bold-74" x="448.535156"/>
     <use xlink:href="#DejaVuSerif-Bold-20" x="494.726562"/>
     <use xlink:href="#DejaVuSerif-Bold-52" x="529.541016"/>
     <use xlink:href="#DejaVuSerif-Bold-61" x="614.896484"/>
     <use xlink:href="#DejaVuSerif-Bold-77" x="679.691406"/>
     <use xlink:href="#DejaVuSerif-Bold-20" x="765.775391"/>
     <use xlink:href="#DejaVuSerif-Bold-53" x="800.589844"/>
     <use xlink:href="#DejaVuSerif-Bold-74" x="872.806641"/>
     <use xlink:href="#DejaVuSerif-Bold-72" x="918.998047"/>
     <use xlink:href="#DejaVuSerif-Bold-65" x="971.683594"/>
     <use xlink:href="#DejaVuSerif-Bold-61" x="1035.306641"/>
     <use xlink:href="#DejaVuSerif-Bold-6d" x="1100.101562"/>
     <use xlink:href="#DejaVuSerif-Bold-73" x="1205.912109"/>
    </g>
   </g>
   <g id="text_2">
    <!-- Live Network Flows &amp; Host Syslogs -->
    <g style="fill: #212121" transform="translate(68.146641 111.430389) scale(0.095 -0.095)">
     <defs>
      <path id="DejaVuSerif-4c" d="M 353 0 
L 353 331 
L 947 331 
L 947 4331 
L 353 4331 
L 353 4666 
L 2175 4666 
L 2175 4331 
L 1581 4331 
L 1581 384 
L 3713 384 
L 3713 1166 
L 4097 1166 
L 4097 0 
L 353 0 
z
" transform="scale(0.015625)"/>
      <path id="DejaVuSerif-69" d="M 622 4353 
Q 622 4497 726 4603 
Q 831 4709 978 4709 
Q 1122 4709 1226 4603 
Q 1331 4497 1331 4353 
Q 1331 4206 1228 4103 
Q 1125 4000 978 4000 
Q 831 4000 726 4103 
Q 622 4206 622 4353 
z
M 1356 331 
L 1900 331 
L 1900 0 
L 231 0 
L 231 331 
L 781 331 
L 781 2988 
L 231 2988 
L 231 3322 
L 1356 3322 
L 1356 331 
z
" transform="scale(0.015625)"/>
      <path id="DejaVuSerif-76" d="M 1581 0 
L 359 2988 
L -19 2988 
L -19 3322 
L 1509 3322 
L 1509 2988 
L 978 2988 
L 1913 703 
L 2847 2988 
L 2350 2988 
L 2350 3322 
L 3597 3322 
L 3597 2988 
L 3225 2988 
L 2003 0 
L 1581 0 
z
" transform="scale(0.015625)"/>
      <path id="DejaVuSerif-65" d="M 3469 1600 
L 991 1600 
L 991 1575 
Q 991 903 1244 561 
Q 1497 219 1991 219 
Q 2369 219 2611 417 
Q 2853 616 2950 1006 
L 3413 1006 
Q 3275 459 2904 184 
Q 2534 -91 1931 -91 
Q 1203 -91 761 389 
Q 319 869 319 1663 
Q 319 2450 753 2931 
Q 1188 3413 1894 3413 
Q 2647 3413 3050 2948 
Q 3453 2484 3469 1600 
z
M 2791 1931 
Q 2772 2513 2545 2808 
Q 2319 3103 1894 3103 
Q 1497 3103 1269 2806 
Q 1041 2509 991 1931 
L 2791 1931 
z
" transform="scale(0.015625)"/>
      <path id="DejaVuSerif-20" transform="scale(0.015625)"/>
      <path id="DejaVuSerif-4e" d="M 313 0 
L 313 331 
L 941 331 
L 941 4331 
L 313 4331 
L 313 4666 
L 1509 4666 
L 4306 984 
L 4306 4331 
L 3681 4331 
L 3681 4666 
L 5319 4666 
L 5319 4331 
L 4691 4331 
L 4691 -91 
L 4313 -91 
L 1325 3841 
L 1325 331 
L 1953 331 
L 1953 0 
L 313 0 
z
" transform="scale(0.015625)"/>
      <path id="DejaVuSerif-74" d="M 691 2988 
L 184 2988 
L 184 3322 
L 691 3322 
L 691 4353 
L 1269 4353 
L 1269 3322 
L 2350 3322 
L 2350 2988 
L 1269 2988 
L 1269 878 
Q 1269 456 1350 337 
Q 1431 219 1650 219 
Q 1875 219 1978 351 
Q 2081 484 2088 781 
L 2522 781 
Q 2497 328 2275 118 
Q 2053 -91 1600 -91 
Q 1103 -91 897 129 
Q 691 350 691 878 
L 691 2988 
z
" transform="scale(0.015625)"/>
      <path id="DejaVuSerif-77" d="M 3072 3322 
L 3922 728 
L 4672 2988 
L 4191 2988 
L 4191 3322 
L 5394 3322 
L 5394 2988 
L 5025 2988 
L 4038 0 
L 3559 0 
L 2741 2484 
L 1919 0 
L 1459 0 
L 475 2988 
L 103 2988 
L 103 3322 
L 1606 3322 
L 1606 2988 
L 1069 2988 
L 1813 728 
L 2669 3322 
L 3072 3322 
z
" transform="scale(0.015625)"/>
      <path id="DejaVuSerif-6f" d="M 1925 219 
Q 2388 219 2623 584 
Q 2859 950 2859 1663 
Q 2859 2375 2623 2739 
Q 2388 3103 1925 3103 
Q 1463 3103 1227 2739 
Q 991 2375 991 1663 
Q 991 950 1228 584 
Q 1466 219 1925 219 
z
M 1925 -91 
Q 1200 -91 759 389 
Q 319 869 319 1663 
Q 319 2456 758 2934 
Q 1197 3413 1925 3413 
Q 2653 3413 3092 2934 
Q 3531 2456 3531 1663 
Q 3531 869 3092 389 
Q 2653 -91 1925 -91 
z
" transform="scale(0.015625)"/>
      <path id="DejaVuSerif-72" d="M 3059 3328 
L 3059 2497 
L 2728 2497 
Q 2713 2744 2591 2866 
Q 2469 2988 2234 2988 
Q 1809 2988 1582 2694 
Q 1356 2400 1356 1850 
L 1356 331 
L 2022 331 
L 2022 0 
L 263 0 
L 263 331 
L 781 331 
L 781 2994 
L 231 2994 
L 231 3322 
L 1356 3322 
L 1356 2731 
Q 1525 3078 1790 3245 
Q 2056 3413 2438 3413 
Q 2578 3413 2733 3391 
Q 2888 3369 3059 3328 
z
" transform="scale(0.015625)"/>
      <path id="DejaVuSerif-6b" d="M 1831 0 
L 219 0 
L 219 331 
L 738 331 
L 738 4531 
L 184 4531 
L 184 4863 
L 1313 4863 
L 1313 1697 
L 2713 2988 
L 2234 2988 
L 2234 3322 
L 3738 3322 
L 3738 2988 
L 3169 2988 
L 2181 2075 
L 3444 331 
L 3922 331 
L 3922 0 
L 2284 0 
L 2284 331 
L 2759 331 
L 1766 1697 
L 1313 1275 
L 1313 331 
L 1831 331 
L 1831 0 
z
" transform="scale(0.015625)"/>
      <path id="DejaVuSerif-46" d="M 353 0 
L 353 331 
L 947 331 
L 947 4331 
L 353 4331 
L 353 4666 
L 4172 4666 
L 4172 3628 
L 3788 3628 
L 3788 4281 
L 1581 4281 
L 1581 2719 
L 3175 2719 
L 3175 3303 
L 3559 3303 
L 3559 1753 
L 3175 1753 
L 3175 2338 
L 1581 2338 
L 1581 331 
L 2328 331 
L 2328 0 
L 353 0 
z
" transform="scale(0.015625)"/>
      <path id="DejaVuSerif-6c" d="M 1313 331 
L 1856 331 
L 1856 0 
L 184 0 
L 184 331 
L 738 331 
L 738 4531 
L 184 4531 
L 184 4863 
L 1313 4863 
L 1313 331 
z
" transform="scale(0.015625)"/>
      <path id="DejaVuSerif-73" d="M 359 184 
L 359 959 
L 691 959 
Q 703 588 923 403 
Q 1144 219 1575 219 
Q 1963 219 2166 364 
Q 2369 509 2369 788 
Q 2369 1006 2220 1140 
Q 2072 1275 1594 1428 
L 1178 1569 
Q 750 1706 558 1912 
Q 366 2119 366 2438 
Q 366 2894 700 3153 
Q 1034 3413 1625 3413 
Q 1888 3413 2178 3344 
Q 2469 3275 2778 3144 
L 2778 2419 
L 2447 2419 
Q 2434 2741 2221 2922 
Q 2009 3103 1644 3103 
Q 1281 3103 1095 2975 
Q 909 2847 909 2591 
Q 909 2381 1050 2254 
Q 1191 2128 1613 1997 
L 2069 1856 
Q 2541 1709 2748 1489 
Q 2956 1269 2956 922 
Q 2956 450 2595 179 
Q 2234 -91 1600 -91 
Q 1278 -91 972 -22 
Q 666 47 359 184 
z
" transform="scale(0.015625)"/>
      <path id="DejaVuSerif-26" d="M 3456 722 
L 1638 2638 
Q 1366 2394 1230 2111 
Q 1094 1828 1094 1509 
Q 1094 991 1453 639 
Q 1813 288 2350 288 
Q 2669 288 2951 398 
Q 3234 509 3456 722 
z
M 5394 0 
L 4141 0 
L 3713 453 
Q 3384 178 3012 43 
Q 2641 -91 2209 -91 
Q 1403 -91 931 321 
Q 459 734 459 1441 
Q 459 1856 698 2217 
Q 938 2578 1422 2894 
Q 1263 3084 1188 3273 
Q 1113 3463 1113 3669 
Q 1113 4166 1470 4458 
Q 1828 4750 2444 4750 
Q 2653 4750 2933 4697 
Q 3213 4644 3572 4538 
L 3572 3731 
L 3219 3731 
Q 3175 4066 2975 4241 
Q 2775 4416 2431 4416 
Q 2109 4416 1909 4239 
Q 1709 4063 1709 3781 
Q 1709 3591 1815 3402 
Q 1922 3213 2259 2859 
L 3872 1159 
Q 4088 1409 4211 1698 
Q 4334 1988 4366 2316 
L 3803 2316 
L 3803 2650 
L 5281 2650 
L 5281 2316 
L 4744 2316 
Q 4691 1909 4536 1556 
Q 4381 1203 4122 903 
L 4659 331 
L 5394 331 
L 5394 0 
z
" transform="scale(0.015625)"/>
      <path id="DejaVuSerif-48" d="M 353 0 
L 353 331 
L 947 331 
L 947 4331 
L 353 4331 
L 353 4666 
L 2175 4666 
L 2175 4331 
L 1581 4331 
L 1581 2719 
L 4000 2719 
L 4000 4331 
L 3406 4331 
L 3406 4666 
L 5228 4666 
L 5228 4331 
L 4634 4331 
L 4634 331 
L 5228 331 
L 5228 0 
L 3406 0 
L 3406 331 
L 4000 331 
L 4000 2338 
L 1581 2338 
L 1581 331 
L 2175 331 
L 2175 0 
L 353 0 
z
" transform="scale(0.015625)"/>
      <path id="DejaVuSerif-53" d="M 594 225 
L 594 1288 
L 953 1284 
Q 969 753 1261 498 
Q 1553 244 2150 244 
Q 2706 244 2998 464 
Q 3291 684 3291 1106 
Q 3291 1444 3114 1625 
Q 2938 1806 2369 1978 
L 1753 2163 
Q 1084 2366 811 2669 
Q 538 2972 538 3500 
Q 538 4094 959 4422 
Q 1381 4750 2144 4750 
Q 2469 4750 2856 4679 
Q 3244 4609 3681 4475 
L 3681 3481 
L 3328 3481 
Q 3275 3975 2998 4195 
Q 2722 4416 2156 4416 
Q 1663 4416 1405 4214 
Q 1147 4013 1147 3628 
Q 1147 3294 1340 3103 
Q 1534 2913 2163 2725 
L 2741 2553 
Q 3375 2363 3645 2067 
Q 3916 1772 3916 1275 
Q 3916 597 3481 253 
Q 3047 -91 2188 -91 
Q 1803 -91 1404 -12 
Q 1006 66 594 225 
z
" transform="scale(0.015625)"/>
      <path id="DejaVuSerif-79" d="M 1381 -609 
L 1600 -56 
L 359 2988 
L -19 2988 
L -19 3322 
L 1509 3322 
L 1509 2988 
L 978 2988 
L 1913 703 
L 2847 2988 
L 2350 2988 
L 2350 3322 
L 3597 3322 
L 3597 2988 
L 3225 2988 
L 1703 -750 
Q 1547 -1138 1356 -1280 
Q 1166 -1422 819 -1422 
Q 672 -1422 517 -1397 
Q 363 -1372 206 -1325 
L 206 -691 
L 500 -691 
Q 519 -903 608 -995 
Q 697 -1088 884 -1088 
Q 1056 -1088 1161 -992 
Q 1266 -897 1381 -609 
z
" transform="scale(0.015625)"/>
      <path id="DejaVuSerif-67" d="M 3359 2988 
L 3359 72 
Q 3359 -644 2965 -1033 
Q 2572 -1422 1844 -1422 
Q 1516 -1422 1216 -1362 
Q 916 -1303 641 -1184 
L 641 -488 
L 941 -488 
Q 997 -813 1206 -963 
Q 1416 -1113 1806 -1113 
Q 2313 -1113 2548 -827 
Q 2784 -541 2784 72 
L 2784 519 
Q 2616 206 2355 57 
Q 2094 -91 1709 -91 
Q 1097 -91 708 395 
Q 319 881 319 1663 
Q 319 2444 706 2928 
Q 1094 3413 1709 3413 
Q 2094 3413 2355 3264 
Q 2616 3116 2784 2803 
L 2784 3322 
L 3909 3322 
L 3909 2988 
L 3359 2988 
z
M 2784 1825 
Q 2784 2422 2554 2737 
Q 2325 3053 1888 3053 
Q 1444 3053 1217 2703 
Q 991 2353 991 1663 
Q 991 975 1217 622 
Q 1444 269 1888 269 
Q 2325 269 2554 583 
Q 2784 897 2784 1497 
L 2784 1825 
z
" transform="scale(0.015625)"/>
     </defs>
     <use xlink:href="#DejaVuSerif-4c"/>
     <use xlink:href="#DejaVuSerif-69" x="66.40625"/>
     <use xlink:href="#DejaVuSerif-76" x="98.388672"/>
     <use xlink:href="#DejaVuSerif-65" x="154.882812"/>
     <use xlink:href="#DejaVuSerif-20" x="214.0625"/>
     <use xlink:href="#DejaVuSerif-4e" x="245.849609"/>
     <use xlink:href="#DejaVuSerif-65" x="333.349609"/>
     <use xlink:href="#DejaVuSerif-74" x="392.529297"/>
     <use xlink:href="#DejaVuSerif-77" x="432.714844"/>
     <use xlink:href="#DejaVuSerif-6f" x="518.310547"/>
     <use xlink:href="#DejaVuSerif-72" x="578.515625"/>
     <use xlink:href="#DejaVuSerif-6b" x="626.318359"/>
     <use xlink:href="#DejaVuSerif-20" x="686.914062"/>
     <use xlink:href="#DejaVuSerif-46" x="718.701172"/>
     <use xlink:href="#DejaVuSerif-6c" x="788.085938"/>
     <use xlink:href="#DejaVuSerif-6f" x="820.068359"/>
     <use xlink:href="#DejaVuSerif-77" x="880.273438"/>
     <use xlink:href="#DejaVuSerif-73" x="965.869141"/>
     <use xlink:href="#DejaVuSerif-20" x="1017.1875"/>
     <use xlink:href="#DejaVuSerif-26" x="1048.974609"/>
     <use xlink:href="#DejaVuSerif-20" x="1137.988281"/>
     <use xlink:href="#DejaVuSerif-48" x="1169.775391"/>
     <use xlink:href="#DejaVuSerif-6f" x="1256.982422"/>
     <use xlink:href="#DejaVuSerif-73" x="1317.1875"/>
     <use xlink:href="#DejaVuSerif-74" x="1368.505859"/>
     <use xlink:href="#DejaVuSerif-20" x="1408.691406"/>
     <use xlink:href="#DejaVuSerif-53" x="1440.478516"/>
     <use xlink:href="#DejaVuSerif-79" x="1508.984375"/>
     <use xlink:href="#DejaVuSerif-73" x="1565.478516"/>
     <use xlink:href="#DejaVuSerif-6c" x="1616.796875"/>
     <use xlink:href="#DejaVuSerif-6f" x="1648.779297"/>
     <use xlink:href="#DejaVuSerif-67" x="1708.984375"/>
     <use xlink:href="#DejaVuSerif-73" x="1772.998047"/>
    </g>
   </g>
   <g id="text_3">
    <!-- 2. Feature Extraction -->
    <g style="fill: #1e62a6" transform="translate(83.5725 182.309511) scale(0.12 -0.12)">
     <defs>
      <path id="DejaVuSerif-Bold-32" d="M 844 3513 
L 469 3513 
L 469 4519 
Q 850 4634 1223 4692 
Q 1597 4750 1978 4750 
Q 2869 4750 3367 4386 
Q 3866 4022 3866 3372 
Q 3866 2909 3591 2542 
Q 3316 2175 2541 1672 
L 1241 819 
L 3450 819 
L 3450 1369 
L 3878 1369 
L 3878 0 
L 428 0 
L 428 763 
L 1119 1241 
Q 2003 1850 2297 2278 
Q 2591 2706 2591 3278 
Q 2591 3819 2367 4101 
Q 2144 4384 1716 4384 
Q 1347 4384 1125 4161 
Q 903 3938 844 3513 
z
" transform="scale(0.015625)"/>
      <path id="DejaVuSerif-Bold-46" d="M 300 0 
L 300 378 
L 897 378 
L 897 4288 
L 300 4288 
L 300 4666 
L 4459 4666 
L 4459 3566 
L 4031 3566 
L 4031 4238 
L 2106 4238 
L 2106 2741 
L 3291 2741 
L 3291 3334 
L 3719 3334 
L 3719 1722 
L 3291 1722 
L 3291 2316 
L 2106 2316 
L 2106 378 
L 2841 378 
L 2841 0 
L 300 0 
z
" transform="scale(0.015625)"/>
      <path id="DejaVuSerif-Bold-75" d="M 3963 3322 
L 3963 378 
L 4434 378 
L 4434 0 
L 2853 0 
L 2853 469 
Q 2656 172 2400 40 
Q 2144 -91 1753 -91 
Q 1194 -91 908 239 
Q 622 569 622 1209 
L 622 2944 
L 147 2944 
L 147 3322 
L 1728 3322 
L 1728 1381 
Q 1728 763 1831 595 
Q 1934 428 2209 428 
Q 2544 428 2698 675 
Q 2853 922 2853 1459 
L 2853 2944 
L 2450 2944 
L 2450 3322 
L 3963 3322 
z
" transform="scale(0.015625)"/>
      <path id="DejaVuSerif-Bold-45" d="M 300 0 
L 300 378 
L 897 378 
L 897 4288 
L 300 4288 
L 300 4666 
L 4494 4666 
L 4494 3566 
L 4063 3566 
L 4063 4238 
L 2100 4238 
L 2100 2741 
L 3322 2741 
L 3322 3334 
L 3750 3334 
L 3750 1722 
L 3322 1722 
L 3322 2316 
L 2100 2316 
L 2100 428 
L 4122 428 
L 4122 1100 
L 4550 1100 
L 4550 0 
L 300 0 
z
" transform="scale(0.015625)"/>
      <path id="DejaVuSerif-Bold-78" d="M 2247 2119 
L 2834 2944 
L 2425 2944 
L 2425 3322 
L 3719 3322 
L 3719 2944 
L 3278 2944 
L 2431 1759 
L 3419 378 
L 3859 378 
L 3859 0 
L 1747 0 
L 1747 378 
L 2175 378 
L 1550 1253 
L 922 378 
L 1369 378 
L 1369 0 
L 0 0 
L 0 378 
L 475 378 
L 1356 1619 
L 403 2944 
L 31 2944 
L 31 3322 
L 2059 3322 
L 2059 2944 
L 1656 2944 
L 2247 2119 
z
" transform="scale(0.015625)"/>
      <path id="DejaVuSerif-Bold-63" d="M 3609 1038 
Q 3491 469 3123 189 
Q 2756 -91 2125 -91 
Q 1238 -91 750 368 
Q 263 828 263 1663 
Q 263 2488 744 2950 
Q 1225 3413 2081 3413 
Q 2428 3413 2781 3347 
Q 3134 3281 3500 3150 
L 3500 2228 
L 3150 2228 
Q 3100 2650 2903 2854 
Q 2706 3059 2350 3059 
Q 1888 3059 1692 2746 
Q 1497 2434 1497 1663 
Q 1497 909 1687 586 
Q 1878 263 2309 263 
Q 2644 263 2845 463 
Q 3047 663 3091 1038 
L 3609 1038 
z
" transform="scale(0.015625)"/>
      <path id="DejaVuSerif-Bold-69" d="M 588 4263 
Q 588 4516 763 4689 
Q 938 4863 1191 4863 
Q 1438 4863 1611 4689 
Q 1784 4516 1784 4263 
Q 1784 4016 1611 3842 
Q 1438 3669 1191 3669 
Q 938 3669 763 3841 
Q 588 4013 588 4263 
z
M 1797 378 
L 2272 378 
L 2272 0 
L 219 0 
L 219 378 
L 691 378 
L 691 2944 
L 219 2944 
L 219 3322 
L 1797 3322 
L 1797 378 
z
" transform="scale(0.015625)"/>
      <path id="DejaVuSerif-Bold-6f" d="M 2138 263 
Q 2488 263 2630 563 
Q 2772 863 2772 1663 
Q 2772 2463 2631 2761 
Q 2491 3059 2138 3059 
Q 1784 3059 1640 2757 
Q 1497 2456 1497 1663 
Q 1497 869 1640 566 
Q 1784 263 2138 263 
z
M 2138 -91 
Q 1259 -91 761 376 
Q 263 844 263 1663 
Q 263 2484 761 2948 
Q 1259 3413 2138 3413 
Q 3019 3413 3516 2948 
Q 4013 2484 4013 1663 
Q 4013 844 3514 376 
Q 3016 -91 2138 -91 
z
" transform="scale(0.015625)"/>
     </defs>
     <use xlink:href="#DejaVuSerif-Bold-32"/>
     <use xlink:href="#DejaVuSerif-Bold-2e" x="69.580078"/>
     <use xlink:href="#DejaVuSerif-Bold-20" x="104.394531"/>
     <use xlink:href="#DejaVuSerif-Bold-46" x="139.208984"/>
     <use xlink:href="#DejaVuSerif-Bold-65" x="204.705078"/>
     <use xlink:href="#DejaVuSerif-Bold-61" x="268.328125"/>
     <use xlink:href="#DejaVuSerif-Bold-74" x="333.123047"/>
     <use xlink:href="#DejaVuSerif-Bold-75" x="379.314453"/>
     <use xlink:href="#DejaVuSerif-Bold-72" x="452.019531"/>
     <use xlink:href="#DejaVuSerif-Bold-65" x="504.705078"/>
     <use xlink:href="#DejaVuSerif-Bold-20" x="568.328125"/>
     <use xlink:href="#DejaVuSerif-Bold-45" x="603.142578"/>
     <use xlink:href="#DejaVuSerif-Bold-78" x="679.363281"/>
     <use xlink:href="#DejaVuSerif-Bold-74" x="738.982422"/>
     <use xlink:href="#DejaVuSerif-Bold-72" x="785.173828"/>
     <use xlink:href="#DejaVuSerif-Bold-61" x="837.859375"/>
     <use xlink:href="#DejaVuSerif-Bold-63" x="902.654297"/>
     <use xlink:href="#DejaVuSerif-Bold-74" x="963.542969"/>
     <use xlink:href="#DejaVuSerif-Bold-69" x="1009.734375"/>
     <use xlink:href="#DejaVuSerif-Bold-6f" x="1047.722656"/>
     <use xlink:href="#DejaVuSerif-Bold-6e" x="1114.421875"/>
    </g>
   </g>
   <g id="text_4">
    <!-- 78 Scaled Features | 100 Bigrams -->
    <g style="fill: #212121" transform="translate(73.163086 202.544861) scale(0.095 -0.095)">
     <defs>
      <path id="DejaVuSerif-37" d="M 3609 4347 
L 1784 0 
L 1319 0 
L 3059 4153 
L 903 4153 
L 903 3578 
L 538 3578 
L 538 4666 
L 3609 4666 
L 3609 4347 
z
" transform="scale(0.015625)"/>
      <path id="DejaVuSerif-38" d="M 2981 1275 
Q 2981 1775 2732 2051 
Q 2484 2328 2034 2328 
Q 1584 2328 1336 2051 
Q 1088 1775 1088 1275 
Q 1088 772 1336 495 
Q 1584 219 2034 219 
Q 2484 219 2732 495 
Q 2981 772 2981 1275 
z
M 2853 3541 
Q 2853 3966 2637 4203 
Q 2422 4441 2034 4441 
Q 1650 4441 1433 4203 
Q 1216 3966 1216 3541 
Q 1216 3113 1433 2875 
Q 1650 2638 2034 2638 
Q 2422 2638 2637 2875 
Q 2853 3113 2853 3541 
z
M 2516 2484 
Q 3047 2413 3344 2092 
Q 3641 1772 3641 1275 
Q 3641 619 3225 264 
Q 2809 -91 2034 -91 
Q 1263 -91 845 264 
Q 428 619 428 1275 
Q 428 1772 725 2092 
Q 1022 2413 1556 2484 
Q 1084 2569 832 2842 
Q 581 3116 581 3541 
Q 581 4103 968 4426 
Q 1356 4750 2034 4750 
Q 2713 4750 3100 4426 
Q 3488 4103 3488 3541 
Q 3488 3116 3236 2842 
Q 2984 2569 2516 2484 
z
" transform="scale(0.015625)"/>
      <path id="DejaVuSerif-63" d="M 3291 997 
Q 3169 466 2822 187 
Q 2475 -91 1925 -91 
Q 1200 -91 759 389 
Q 319 869 319 1663 
Q 319 2459 759 2936 
Q 1200 3413 1925 3413 
Q 2241 3413 2553 3339 
Q 2866 3266 3181 3116 
L 3181 2266 
L 2847 2266 
Q 2781 2703 2561 2903 
Q 2341 3103 1931 3103 
Q 1466 3103 1228 2742 
Q 991 2381 991 1663 
Q 991 944 1227 581 
Q 1463 219 1931 219 
Q 2303 219 2525 412 
Q 2747 606 2828 997 
L 3291 997 
z
" transform="scale(0.015625)"/>
      <path id="DejaVuSerif-61" d="M 2547 1044 
L 2547 1747 
L 1806 1747 
Q 1378 1747 1168 1562 
Q 959 1378 959 997 
Q 959 650 1171 447 
Q 1384 244 1747 244 
Q 2106 244 2326 466 
Q 2547 688 2547 1044 
z
M 3122 2075 
L 3122 331 
L 3634 331 
L 3634 0 
L 2547 0 
L 2547 359 
Q 2356 128 2106 18 
Q 1856 -91 1522 -91 
Q 969 -91 644 203 
Q 319 497 319 997 
Q 319 1513 691 1797 
Q 1063 2081 1741 2081 
L 2547 2081 
L 2547 2309 
Q 2547 2688 2317 2895 
Q 2088 3103 1672 3103 
Q 1328 3103 1125 2947 
Q 922 2791 872 2484 
L 575 2484 
L 575 3156 
Q 875 3284 1158 3348 
Q 1441 3413 1709 3413 
Q 2400 3413 2761 3070 
Q 3122 2728 3122 2075 
z
" transform="scale(0.015625)"/>
      <path id="DejaVuSerif-64" d="M 3359 331 
L 3909 331 
L 3909 0 
L 2784 0 
L 2784 519 
Q 2616 206 2355 57 
Q 2094 -91 1709 -91 
Q 1097 -91 708 395 
Q 319 881 319 1663 
Q 319 2444 706 2928 
Q 1094 3413 1709 3413 
Q 2094 3413 2355 3264 
Q 2616 3116 2784 2803 
L 2784 4531 
L 2241 4531 
L 2241 4863 
L 3359 4863 
L 3359 331 
z
M 2784 1497 
L 2784 1825 
Q 2784 2422 2554 2737 
Q 2325 3053 1888 3053 
Q 1444 3053 1217 2703 
Q 991 2353 991 1663 
Q 991 975 1217 622 
Q 1444 269 1888 269 
Q 2325 269 2554 583 
Q 2784 897 2784 1497 
z
" transform="scale(0.015625)"/>
      <path id="DejaVuSerif-75" d="M 2266 3322 
L 3341 3322 
L 3341 331 
L 3884 331 
L 3884 0 
L 2766 0 
L 2766 588 
Q 2606 256 2353 82 
Q 2100 -91 1766 -91 
Q 1213 -91 952 223 
Q 691 538 691 1209 
L 691 2988 
L 172 2988 
L 172 3322 
L 1269 3322 
L 1269 1388 
Q 1269 781 1417 556 
Q 1566 331 1947 331 
Q 2347 331 2556 625 
Q 2766 919 2766 1478 
L 2766 2988 
L 2266 2988 
L 2266 3322 
z
" transform="scale(0.015625)"/>
      <path id="DejaVuSerif-7c" d="M 1331 4891 
L 1331 -1509 
L 825 -1509 
L 825 4891 
L 1331 4891 
z
" transform="scale(0.015625)"/>
      <path id="DejaVuSerif-31" d="M 909 0 
L 909 331 
L 1722 331 
L 1722 4213 
L 781 3603 
L 781 4013 
L 1919 4750 
L 2350 4750 
L 2350 331 
L 3163 331 
L 3163 0 
L 909 0 
z
" transform="scale(0.015625)"/>
      <path id="DejaVuSerif-30" d="M 2034 219 
Q 2513 219 2750 744 
Q 2988 1269 2988 2328 
Q 2988 3391 2750 3916 
Q 2513 4441 2034 4441 
Q 1556 4441 1318 3916 
Q 1081 3391 1081 2328 
Q 1081 1269 1318 744 
Q 1556 219 2034 219 
z
M 2034 -91 
Q 1275 -91 848 546 
Q 422 1184 422 2328 
Q 422 3475 848 4112 
Q 1275 4750 2034 4750 
Q 2797 4750 3222 4112 
Q 3647 3475 3647 2328 
Q 3647 1184 3222 546 
Q 2797 -91 2034 -91 
z
" transform="scale(0.015625)"/>
      <path id="DejaVuSerif-42" d="M 1581 331 
L 2516 331 
Q 3078 331 3337 575 
Q 3597 819 3597 1350 
Q 3597 1878 3339 2120 
Q 3081 2363 2516 2363 
L 1581 2363 
L 1581 331 
z
M 1581 2694 
L 2375 2694 
Q 2888 2694 3123 2891 
Q 3359 3088 3359 3513 
Q 3359 3941 3123 4136 
Q 2888 4331 2375 4331 
L 1581 4331 
L 1581 2694 
z
M 353 0 
L 353 331 
L 947 331 
L 947 4331 
L 353 4331 
L 353 4666 
L 2656 4666 
Q 3363 4666 3720 4377 
Q 4078 4088 4078 3513 
Q 4078 3097 3829 2850 
Q 3581 2603 3103 2547 
Q 3697 2472 4005 2167 
Q 4313 1863 4313 1350 
Q 4313 656 3875 328 
Q 3438 0 2509 0 
L 353 0 
z
" transform="scale(0.015625)"/>
      <path id="DejaVuSerif-6d" d="M 3316 2675 
Q 3481 3041 3739 3227 
Q 3997 3413 4341 3413 
Q 4863 3413 5119 3089 
Q 5375 2766 5375 2113 
L 5375 331 
L 5894 331 
L 5894 0 
L 4300 0 
L 4300 331 
L 4800 331 
L 4800 2047 
Q 4800 2556 4650 2772 
Q 4500 2988 4153 2988 
Q 3769 2988 3567 2697 
Q 3366 2406 3366 1850 
L 3366 331 
L 3866 331 
L 3866 0 
L 2291 0 
L 2291 331 
L 2791 331 
L 2791 2069 
Q 2791 2566 2641 2777 
Q 2491 2988 2144 2988 
Q 1759 2988 1557 2697 
Q 1356 2406 1356 1850 
L 1356 331 
L 1856 331 
L 1856 0 
L 263 0 
L 263 331 
L 781 331 
L 781 2994 
L 231 2994 
L 231 3322 
L 1356 3322 
L 1356 2731 
Q 1516 3063 1762 3238 
Q 2009 3413 2322 3413 
Q 2709 3413 2968 3220 
Q 3228 3028 3316 2675 
z
" transform="scale(0.015625)"/>
     </defs>
     <use xlink:href="#DejaVuSerif-37"/>
     <use xlink:href="#DejaVuSerif-38" x="63.623047"/>
     <use xlink:href="#DejaVuSerif-20" x="127.246094"/>
     <use xlink:href="#DejaVuSerif-53" x="159.033203"/>
     <use xlink:href="#DejaVuSerif-63" x="227.539062"/>
     <use xlink:href="#DejaVuSerif-61" x="283.544922"/>
     <use xlink:href="#DejaVuSerif-6c" x="343.164062"/>
     <use xlink:href="#DejaVuSerif-65" x="375.146484"/>
     <use xlink:href="#DejaVuSerif-64" x="434.326172"/>
     <use xlink:href="#DejaVuSerif-20" x="498.339844"/>
     <use xlink:href="#DejaVuSerif-46" x="530.126953"/>
     <use xlink:href="#DejaVuSerif-65" x="594.011719"/>
     <use xlink:href="#DejaVuSerif-61" x="653.191406"/>
     <use xlink:href="#DejaVuSerif-74" x="712.810547"/>
     <use xlink:href="#DejaVuSerif-75" x="752.996094"/>
     <use xlink:href="#DejaVuSerif-72" x="817.400391"/>
     <use xlink:href="#DejaVuSerif-65" x="865.203125"/>
     <use xlink:href="#DejaVuSerif-73" x="924.382812"/>
     <use xlink:href="#DejaVuSerif-20" x="975.701172"/>
     <use xlink:href="#DejaVuSerif-7c" x="1007.488281"/>
     <use xlink:href="#DejaVuSerif-20" x="1041.179688"/>
     <use xlink:href="#DejaVuSerif-31" x="1072.966797"/>
     <use xlink:href="#DejaVuSerif-30" x="1136.589844"/>
     <use xlink:href="#DejaVuSerif-30" x="1200.212891"/>
     <use xlink:href="#DejaVuSerif-20" x="1263.835938"/>
     <use xlink:href="#DejaVuSerif-42" x="1295.623047"/>
     <use xlink:href="#DejaVuSerif-69" x="1369.109375"/>
     <use xlink:href="#DejaVuSerif-67" x="1401.091797"/>
     <use xlink:href="#DejaVuSerif-72" x="1465.105469"/>
     <use xlink:href="#DejaVuSerif-61" x="1512.908203"/>
     <use xlink:href="#DejaVuSerif-6d" x="1572.527344"/>
     <use xlink:href="#DejaVuSerif-73" x="1667.351562"/>
    </g>
   </g>
   <g id="text_5">
    <!-- 3. Parallel Inference -->
    <g style="fill: #ef6c00" transform="translate(86.033437 273.467772) scale(0.12 -0.12)">
     <defs>
      <path id="DejaVuSerif-Bold-33" d="M 550 4531 
Q 963 4641 1350 4695 
Q 1738 4750 2106 4750 
Q 2950 4750 3401 4448 
Q 3853 4147 3853 3584 
Q 3853 3163 3593 2900 
Q 3334 2638 2834 2547 
Q 3444 2450 3744 2131 
Q 4044 1813 4044 1259 
Q 4044 606 3526 257 
Q 3009 -91 2028 -91 
Q 1659 -91 1267 -28 
Q 875 34 447 159 
L 447 1184 
L 825 1184 
Q 859 741 1103 508 
Q 1347 275 1778 275 
Q 2253 275 2512 539 
Q 2772 803 2772 1288 
Q 2772 1794 2501 2069 
Q 2231 2344 1734 2344 
L 1528 2344 
L 1528 2719 
L 1691 2719 
Q 2150 2719 2381 2931 
Q 2613 3144 2613 3566 
Q 2613 3963 2395 4173 
Q 2178 4384 1772 4384 
Q 1403 4384 1187 4182 
Q 972 3981 928 3597 
L 550 3597 
L 550 4531 
z
" transform="scale(0.015625)"/>
      <path id="DejaVuSerif-Bold-50" d="M 300 0 
L 300 378 
L 897 378 
L 897 4288 
L 300 4288 
L 300 4666 
L 2956 4666 
Q 3734 4666 4193 4295 
Q 4653 3925 4653 3303 
Q 4653 2678 4192 2304 
Q 3731 1931 2956 1931 
L 2100 1931 
L 2100 378 
L 2853 378 
L 2853 0 
L 300 0 
z
M 2100 2309 
L 2450 2309 
Q 2856 2309 3098 2579 
Q 3341 2850 3341 3303 
Q 3341 3753 3100 4020 
Q 2859 4288 2450 4288 
L 2100 4288 
L 2100 2309 
z
" transform="scale(0.015625)"/>
      <path id="DejaVuSerif-Bold-6c" d="M 1797 378 
L 2272 378 
L 2272 0 
L 219 0 
L 219 378 
L 691 378 
L 691 4488 
L 219 4488 
L 219 4863 
L 1797 4863 
L 1797 378 
z
" transform="scale(0.015625)"/>
      <path id="DejaVuSerif-Bold-66" d="M 3097 4031 
L 2747 4031 
Q 2722 4275 2605 4394 
Q 2488 4513 2272 4513 
Q 2022 4513 1909 4333 
Q 1797 4153 1797 3750 
L 1797 3322 
L 2631 3322 
L 2631 2944 
L 1797 2944 
L 1797 378 
L 2438 378 
L 2438 0 
L 219 0 
L 219 378 
L 691 378 
L 691 2944 
L 197 2944 
L 197 3322 
L 691 3322 
L 691 3738 
Q 691 4291 1044 4577 
Q 1397 4863 2081 4863 
Q 2347 4863 2600 4833 
Q 2853 4803 3097 4744 
L 3097 4031 
z
" transform="scale(0.015625)"/>
     </defs>
     <use xlink:href="#DejaVuSerif-Bold-33"/>
     <use xlink:href="#DejaVuSerif-Bold-2e" x="69.580078"/>
     <use xlink:href="#DejaVuSerif-Bold-20" x="104.394531"/>
     <use xlink:href="#DejaVuSerif-Bold-50" x="139.208984"/>
     <use xlink:href="#DejaVuSerif-Bold-61" x="211.779297"/>
     <use xlink:href="#DejaVuSerif-Bold-72" x="276.574219"/>
     <use xlink:href="#DejaVuSerif-Bold-61" x="329.259766"/>
     <use xlink:href="#DejaVuSerif-Bold-6c" x="394.054688"/>
     <use xlink:href="#DejaVuSerif-Bold-6c" x="432.042969"/>
     <use xlink:href="#DejaVuSerif-Bold-65" x="470.03125"/>
     <use xlink:href="#DejaVuSerif-Bold-6c" x="533.654297"/>
     <use xlink:href="#DejaVuSerif-Bold-20" x="571.642578"/>
     <use xlink:href="#DejaVuSerif-Bold-49" x="606.457031"/>
     <use xlink:href="#DejaVuSerif-Bold-6e" x="653.234375"/>
     <use xlink:href="#DejaVuSerif-Bold-66" x="725.939453"/>
     <use xlink:href="#DejaVuSerif-Bold-65" x="768.957031"/>
     <use xlink:href="#DejaVuSerif-Bold-72" x="832.580078"/>
     <use xlink:href="#DejaVuSerif-Bold-65" x="885.265625"/>
     <use xlink:href="#DejaVuSerif-Bold-6e" x="948.888672"/>
     <use xlink:href="#DejaVuSerif-Bold-63" x="1021.59375"/>
     <use xlink:href="#DejaVuSerif-Bold-65" x="1082.482422"/>
    </g>
   </g>
   <g id="text_6">
    <!-- NIDS (LR Model) &amp; HIDS (RF Model) -->
    <g style="fill: #212121" transform="translate(64.133633 293.81445) scale(0.095 -0.095)">
     <defs>
      <path id="DejaVuSerif-49" d="M 1581 331 
L 2175 331 
L 2175 0 
L 353 0 
L 353 331 
L 947 331 
L 947 4331 
L 353 4331 
L 353 4666 
L 2175 4666 
L 2175 4331 
L 1581 4331 
L 1581 331 
z
" transform="scale(0.015625)"/>
      <path id="DejaVuSerif-44" d="M 1581 331 
L 2163 331 
Q 3072 331 3558 850 
Q 4044 1369 4044 2338 
Q 4044 3306 3559 3818 
Q 3075 4331 2163 4331 
L 1581 4331 
L 1581 331 
z
M 353 0 
L 353 331 
L 947 331 
L 947 4331 
L 353 4331 
L 353 4666 
L 2209 4666 
Q 3416 4666 4089 4050 
Q 4763 3434 4763 2338 
Q 4763 1238 4088 619 
Q 3413 0 2209 0 
L 353 0 
z
" transform="scale(0.015625)"/>
      <path id="DejaVuSerif-28" d="M 2041 -997 
Q 1281 -656 893 83 
Q 506 822 506 1931 
Q 506 3044 893 3783 
Q 1281 4522 2041 4863 
L 2041 4556 
Q 1559 4225 1350 3623 
Q 1141 3022 1141 1931 
Q 1141 844 1350 242 
Q 1559 -359 2041 -691 
L 2041 -997 
z
" transform="scale(0.015625)"/>
      <path id="DejaVuSerif-52" d="M 3066 2316 
Q 3284 2256 3442 2114 
Q 3600 1972 3725 1716 
L 4403 331 
L 4972 331 
L 4972 0 
L 3872 0 
L 3144 1484 
Q 2934 1916 2759 2042 
Q 2584 2169 2278 2169 
L 1581 2169 
L 1581 331 
L 2241 331 
L 2241 0 
L 353 0 
L 353 331 
L 947 331 
L 947 4331 
L 353 4331 
L 353 4666 
L 2719 4666 
Q 3400 4666 3770 4341 
Q 4141 4016 4141 3419 
Q 4141 2938 3870 2661 
Q 3600 2384 3066 2316 
z
M 1581 2503 
L 2503 2503 
Q 2975 2503 3200 2726 
Q 3425 2950 3425 3419 
Q 3425 3888 3200 4109 
Q 2975 4331 2503 4331 
L 1581 4331 
L 1581 2503 
z
" transform="scale(0.015625)"/>
      <path id="DejaVuSerif-4d" d="M 353 0 
L 353 331 
L 947 331 
L 947 4331 
L 319 4331 
L 319 4666 
L 1678 4666 
L 3316 1344 
L 4953 4666 
L 6228 4666 
L 6228 4331 
L 5606 4331 
L 5606 331 
L 6203 331 
L 6203 0 
L 4378 0 
L 4378 331 
L 4972 331 
L 4972 3938 
L 3372 684 
L 2931 684 
L 1331 3938 
L 1331 331 
L 1925 331 
L 1925 0 
L 353 0 
z
" transform="scale(0.015625)"/>
      <path id="DejaVuSerif-29" d="M 453 -997 
L 453 -691 
Q 934 -359 1145 242 
Q 1356 844 1356 1931 
Q 1356 3022 1145 3623 
Q 934 4225 453 4556 
L 453 4863 
Q 1216 4522 1603 3783 
Q 1991 3044 1991 1931 
Q 1991 822 1603 83 
Q 1216 -656 453 -997 
z
" transform="scale(0.015625)"/>
     </defs>
     <use xlink:href="#DejaVuSerif-4e"/>
     <use xlink:href="#DejaVuSerif-49" x="87.5"/>
     <use xlink:href="#DejaVuSerif-44" x="127.001953"/>
     <use xlink:href="#DejaVuSerif-53" x="207.177734"/>
     <use xlink:href="#DejaVuSerif-20" x="275.683594"/>
     <use xlink:href="#DejaVuSerif-28" x="307.470703"/>
     <use xlink:href="#DejaVuSerif-4c" x="346.484375"/>
     <use xlink:href="#DejaVuSerif-52" x="412.890625"/>
     <use xlink:href="#DejaVuSerif-20" x="488.183594"/>
     <use xlink:href="#DejaVuSerif-4d" x="519.970703"/>
     <use xlink:href="#DejaVuSerif-6f" x="622.363281"/>
     <use xlink:href="#DejaVuSerif-64" x="682.568359"/>
     <use xlink:href="#DejaVuSerif-65" x="746.582031"/>
     <use xlink:href="#DejaVuSerif-6c" x="805.761719"/>
     <use xlink:href="#DejaVuSerif-29" x="837.744141"/>
     <use xlink:href="#DejaVuSerif-20" x="876.757812"/>
     <use xlink:href="#DejaVuSerif-26" x="908.544922"/>
     <use xlink:href="#DejaVuSerif-20" x="997.558594"/>
     <use xlink:href="#DejaVuSerif-48" x="1029.345703"/>
     <use xlink:href="#DejaVuSerif-49" x="1116.552734"/>
     <use xlink:href="#DejaVuSerif-44" x="1156.054688"/>
     <use xlink:href="#DejaVuSerif-53" x="1236.230469"/>
     <use xlink:href="#DejaVuSerif-20" x="1304.736328"/>
     <use xlink:href="#DejaVuSerif-28" x="1336.523438"/>
     <use xlink:href="#DejaVuSerif-52" x="1375.537109"/>
     <use xlink:href="#DejaVuSerif-46" x="1450.830078"/>
     <use xlink:href="#DejaVuSerif-20" x="1520.214844"/>
     <use xlink:href="#DejaVuSerif-4d" x="1552.001953"/>
     <use xlink:href="#DejaVuSerif-6f" x="1654.394531"/>
     <use xlink:href="#DejaVuSerif-64" x="1714.599609"/>
     <use xlink:href="#DejaVuSerif-65" x="1778.613281"/>
     <use xlink:href="#DejaVuSerif-6c" x="1837.792969"/>
     <use xlink:href="#DejaVuSerif-29" x="1869.775391"/>
    </g>
   </g>
   <g id="text_7">
    <!-- 4. Align Scores -->
    <g style="fill: #ef6c00" transform="translate(104.2425 364.54072) scale(0.12 -0.12)">
     <defs>
      <path id="DejaVuSerif-Bold-34" d="M 4084 0 
L 1516 0 
L 1516 378 
L 2209 378 
L 2209 1228 
L 263 1228 
L 263 1588 
L 2216 4750 
L 3391 4750 
L 3391 1631 
L 4191 1631 
L 4191 1228 
L 3391 1228 
L 3391 378 
L 4084 378 
L 4084 0 
z
M 2209 1631 
L 2209 3897 
L 819 1631 
L 2209 1631 
z
" transform="scale(0.015625)"/>
      <path id="DejaVuSerif-Bold-41" d="M -50 0 
L -50 378 
L 331 378 
L 2088 4666 
L 2834 4666 
L 4594 378 
L 5038 378 
L 5038 0 
L 2853 0 
L 2853 378 
L 3309 378 
L 2925 1331 
L 1172 1331 
L 781 378 
L 1338 378 
L 1338 0 
L -50 0 
z
M 1325 1709 
L 2772 1709 
L 2053 3494 
L 1325 1709 
z
" transform="scale(0.015625)"/>
     </defs>
     <use xlink:href="#DejaVuSerif-Bold-34"/>
     <use xlink:href="#DejaVuSerif-Bold-2e" x="69.580078"/>
     <use xlink:href="#DejaVuSerif-Bold-20" x="104.394531"/>
     <use xlink:href="#DejaVuSerif-Bold-41" x="139.208984"/>
     <use xlink:href="#DejaVuSerif-Bold-6c" x="216.796875"/>
     <use xlink:href="#DejaVuSerif-Bold-69" x="254.785156"/>
     <use xlink:href="#DejaVuSerif-Bold-67" x="292.773438"/>
     <use xlink:href="#DejaVuSerif-Bold-6e" x="362.695312"/>
     <use xlink:href="#DejaVuSerif-Bold-20" x="435.400391"/>
     <use xlink:href="#DejaVuSerif-Bold-53" x="470.214844"/>
     <use xlink:href="#DejaVuSerif-Bold-63" x="542.431641"/>
     <use xlink:href="#DejaVuSerif-Bold-6f" x="603.320312"/>
     <use xlink:href="#DejaVuSerif-Bold-72" x="670.019531"/>
     <use xlink:href="#DejaVuSerif-Bold-65" x="722.705078"/>
     <use xlink:href="#DejaVuSerif-Bold-73" x="786.328125"/>
    </g>
   </g>
   <g id="text_8">
    <!-- Decision Normalization mapping -->
    <g style="fill: #212121" transform="translate(75.725859 384.905172) scale(0.095 -0.095)">
     <defs>
      <path id="DejaVuSerif-6e" d="M 263 0 
L 263 331 
L 781 331 
L 781 2988 
L 231 2988 
L 231 3322 
L 1356 3322 
L 1356 2731 
Q 1516 3069 1770 3241 
Q 2025 3413 2363 3413 
Q 2913 3413 3172 3097 
Q 3431 2781 3431 2113 
L 3431 331 
L 3944 331 
L 3944 0 
L 2356 0 
L 2356 331 
L 2853 331 
L 2853 1931 
Q 2853 2541 2703 2767 
Q 2553 2994 2175 2994 
Q 1775 2994 1565 2701 
Q 1356 2409 1356 1850 
L 1356 331 
L 1856 331 
L 1856 0 
L 263 0 
z
" transform="scale(0.015625)"/>
      <path id="DejaVuSerif-7a" d="M 256 0 
L 256 269 
L 2338 2988 
L 691 2988 
L 691 2413 
L 359 2413 
L 359 3322 
L 3078 3322 
L 3078 3053 
L 997 331 
L 2803 331 
L 2803 934 
L 3138 934 
L 3138 0 
L 256 0 
z
" transform="scale(0.015625)"/>
      <path id="DejaVuSerif-70" d="M 1313 1825 
L 1313 1497 
Q 1313 897 1542 583 
Q 1772 269 2209 269 
Q 2650 269 2876 622 
Q 3103 975 3103 1663 
Q 3103 2353 2876 2703 
Q 2650 3053 2209 3053 
Q 1772 3053 1542 2737 
Q 1313 2422 1313 1825 
z
M 738 2988 
L 184 2988 
L 184 3322 
L 1313 3322 
L 1313 2803 
Q 1481 3116 1742 3264 
Q 2003 3413 2388 3413 
Q 3000 3413 3387 2928 
Q 3775 2444 3775 1663 
Q 3775 881 3387 395 
Q 3000 -91 2388 -91 
Q 2003 -91 1742 57 
Q 1481 206 1313 519 
L 1313 -997 
L 1856 -997 
L 1856 -1331 
L 184 -1331 
L 184 -997 
L 738 -997 
L 738 2988 
z
" transform="scale(0.015625)"/>
     </defs>
     <use xlink:href="#DejaVuSerif-44"/>
     <use xlink:href="#DejaVuSerif-65" x="80.175781"/>
     <use xlink:href="#DejaVuSerif-63" x="139.355469"/>
     <use xlink:href="#DejaVuSerif-69" x="195.361328"/>
     <use xlink:href="#DejaVuSerif-73" x="227.34375"/>
     <use xlink:href="#DejaVuSerif-69" x="278.662109"/>
     <use xlink:href="#DejaVuSerif-6f" x="310.644531"/>
     <use xlink:href="#DejaVuSerif-6e" x="370.849609"/>
     <use xlink:href="#DejaVuSerif-20" x="435.253906"/>
     <use xlink:href="#DejaVuSerif-4e" x="467.041016"/>
     <use xlink:href="#DejaVuSerif-6f" x="554.541016"/>
     <use xlink:href="#DejaVuSerif-72" x="614.746094"/>
     <use xlink:href="#DejaVuSerif-6d" x="662.548828"/>
     <use xlink:href="#DejaVuSerif-61" x="757.373047"/>
     <use xlink:href="#DejaVuSerif-6c" x="816.992188"/>
     <use xlink:href="#DejaVuSerif-69" x="848.974609"/>
     <use xlink:href="#DejaVuSerif-7a" x="880.957031"/>
     <use xlink:href="#DejaVuSerif-61" x="933.642578"/>
     <use xlink:href="#DejaVuSerif-74" x="993.261719"/>
     <use xlink:href="#DejaVuSerif-69" x="1033.447266"/>
     <use xlink:href="#DejaVuSerif-6f" x="1065.429688"/>
     <use xlink:href="#DejaVuSerif-6e" x="1125.634766"/>
     <use xlink:href="#DejaVuSerif-20" x="1190.039062"/>
     <use xlink:href="#DejaVuSerif-6d" x="1221.826172"/>
     <use xlink:href="#DejaVuSerif-61" x="1316.650391"/>
     <use xlink:href="#DejaVuSerif-70" x="1376.269531"/>
     <use xlink:href="#DejaVuSerif-70" x="1440.283203"/>
     <use xlink:href="#DejaVuSerif-69" x="1504.296875"/>
     <use xlink:href="#DejaVuSerif-6e" x="1536.279297"/>
     <use xlink:href="#DejaVuSerif-67" x="1600.683594"/>
    </g>
   </g>
   <g id="text_9">
    <!-- 5. Weighted Hybrid Fusion -->
    <g style="fill: #2e7d32" transform="translate(65.055937 455.698981) scale(0.12 -0.12)">
     <defs>
      <path id="DejaVuSerif-Bold-35" d="M 3609 4666 
L 3609 3847 
L 1113 3847 
L 1113 2822 
Q 1319 2981 1572 3062 
Q 1825 3144 2106 3144 
Q 2969 3144 3469 2708 
Q 3969 2272 3969 1522 
Q 3969 759 3469 334 
Q 2969 -91 2069 -91 
Q 1688 -91 1311 -28 
Q 934 34 525 166 
L 525 1184 
L 900 1184 
Q 919 725 1139 500 
Q 1359 275 1791 275 
Q 2250 275 2472 583 
Q 2694 891 2694 1522 
Q 2694 2144 2476 2451 
Q 2259 2759 1819 2759 
Q 1581 2759 1395 2661 
Q 1209 2563 1050 2356 
L 738 2356 
L 738 4666 
L 3609 4666 
z
" transform="scale(0.015625)"/>
      <path id="DejaVuSerif-Bold-57" d="M 5453 0 
L 4647 0 
L 3591 3397 
L 2534 0 
L 1728 0 
L 397 4288 
L -56 4288 
L -56 4666 
L 2156 4666 
L 2156 4288 
L 1656 4288 
L 2547 1422 
L 3553 4666 
L 4441 4666 
L 5466 1369 
L 6375 4288 
L 5819 4288 
L 5819 4666 
L 7263 4666 
L 7263 4288 
L 6784 4288 
L 5453 0 
z
" transform="scale(0.015625)"/>
      <path id="DejaVuSerif-Bold-68" d="M 219 0 
L 219 378 
L 691 378 
L 691 4488 
L 197 4488 
L 197 4863 
L 1797 4863 
L 1797 2853 
Q 1997 3150 2253 3281 
Q 2509 3413 2900 3413 
Q 3459 3413 3745 3083 
Q 4031 2753 4031 2113 
L 4031 378 
L 4506 378 
L 4506 0 
L 2522 0 
L 2522 378 
L 2925 378 
L 2925 2144 
Q 2925 2566 2817 2730 
Q 2709 2894 2444 2894 
Q 2109 2894 1953 2648 
Q 1797 2403 1797 1869 
L 1797 378 
L 2203 378 
L 2203 0 
L 219 0 
z
" transform="scale(0.015625)"/>
      <path id="DejaVuSerif-Bold-64" d="M 2747 1497 
L 2747 1825 
Q 2747 2406 2597 2665 
Q 2447 2925 2119 2925 
Q 1775 2925 1636 2651 
Q 1497 2378 1497 1663 
Q 1497 947 1637 672 
Q 1778 397 2119 397 
Q 2447 397 2597 656 
Q 2747 916 2747 1497 
z
M 3853 378 
L 4325 378 
L 4325 0 
L 2747 0 
L 2747 422 
Q 2606 163 2367 36 
Q 2128 -91 1778 -91 
Q 1072 -91 667 378 
Q 263 847 263 1663 
Q 263 2481 667 2947 
Q 1072 3413 1778 3413 
Q 2128 3413 2367 3286 
Q 2606 3159 2747 2900 
L 2747 4488 
L 2272 4488 
L 2272 4863 
L 3853 4863 
L 3853 378 
z
" transform="scale(0.015625)"/>
      <path id="DejaVuSerif-Bold-48" d="M 300 0 
L 300 378 
L 897 378 
L 897 4288 
L 300 4288 
L 300 4666 
L 2700 4666 
L 2700 4288 
L 2100 4288 
L 2100 2719 
L 3956 2719 
L 3956 4288 
L 3359 4288 
L 3359 4666 
L 5759 4666 
L 5759 4288 
L 5159 4288 
L 5159 378 
L 5759 378 
L 5759 0 
L 3359 0 
L 3359 378 
L 3956 378 
L 3956 2291 
L 2100 2291 
L 2100 378 
L 2700 378 
L 2700 0 
L 300 0 
z
" transform="scale(0.015625)"/>
      <path id="DejaVuSerif-Bold-79" d="M 1997 -750 
Q 1847 -1116 1634 -1269 
Q 1422 -1422 1063 -1422 
Q 909 -1422 721 -1387 
Q 534 -1353 313 -1288 
L 313 -594 
L 666 -597 
Q 675 -838 779 -953 
Q 884 -1069 1094 -1069 
Q 1297 -1069 1422 -958 
Q 1547 -847 1672 -538 
L 1722 -422 
L 275 2944 
L -84 2944 
L -84 3322 
L 1831 3322 
L 1831 2944 
L 1434 2944 
L 2278 978 
L 3066 2944 
L 2625 2944 
L 2625 3322 
L 3872 3322 
L 3872 2944 
L 3469 2944 
L 1997 -750 
z
" transform="scale(0.015625)"/>
      <path id="DejaVuSerif-Bold-62" d="M 622 378 
L 622 4488 
L 147 4488 
L 147 4863 
L 1728 4863 
L 1728 2900 
Q 1869 3159 2106 3286 
Q 2344 3413 2694 3413 
Q 3403 3413 3811 2945 
Q 4219 2478 4219 1663 
Q 4219 847 3811 378 
Q 3403 -91 2694 -91 
Q 2344 -91 2106 36 
Q 1869 163 1728 422 
L 1728 0 
L 147 0 
L 147 378 
L 622 378 
z
M 1728 1497 
Q 1728 916 1876 656 
Q 2025 397 2356 397 
Q 2697 397 2836 672 
Q 2975 947 2975 1663 
Q 2975 2378 2836 2651 
Q 2697 2925 2356 2925 
Q 2025 2925 1876 2665 
Q 1728 2406 1728 1825 
L 1728 1497 
z
" transform="scale(0.015625)"/>
     </defs>
     <use xlink:href="#DejaVuSerif-Bold-35"/>
     <use xlink:href="#DejaVuSerif-Bold-2e" x="69.580078"/>
     <use xlink:href="#DejaVuSerif-Bold-20" x="104.394531"/>
     <use xlink:href="#DejaVuSerif-Bold-57" x="139.208984"/>
     <use xlink:href="#DejaVuSerif-Bold-65" x="243.388672"/>
     <use xlink:href="#DejaVuSerif-Bold-69" x="307.011719"/>
     <use xlink:href="#DejaVuSerif-Bold-67" x="345"/>
     <use xlink:href="#DejaVuSerif-Bold-68" x="414.921875"/>
     <use xlink:href="#DejaVuSerif-Bold-74" x="487.626953"/>
     <use xlink:href="#DejaVuSerif-Bold-65" x="533.818359"/>
     <use xlink:href="#DejaVuSerif-Bold-64" x="597.441406"/>
     <use xlink:href="#DejaVuSerif-Bold-20" x="667.363281"/>
     <use xlink:href="#DejaVuSerif-Bold-48" x="702.177734"/>
     <use xlink:href="#DejaVuSerif-Bold-79" x="796.660156"/>
     <use xlink:href="#DejaVuSerif-Bold-62" x="854.765625"/>
     <use xlink:href="#DejaVuSerif-Bold-72" x="924.6875"/>
     <use xlink:href="#DejaVuSerif-Bold-69" x="977.373047"/>
     <use xlink:href="#DejaVuSerif-Bold-64" x="1015.361328"/>
     <use xlink:href="#DejaVuSerif-Bold-20" x="1085.283203"/>
     <use xlink:href="#DejaVuSerif-Bold-46" x="1120.097656"/>
     <use xlink:href="#DejaVuSerif-Bold-75" x="1189.34375"/>
     <use xlink:href="#DejaVuSerif-Bold-73" x="1262.048828"/>
     <use xlink:href="#DejaVuSerif-Bold-69" x="1318.347656"/>
     <use xlink:href="#DejaVuSerif-Bold-6f" x="1356.335938"/>
     <use xlink:href="#DejaVuSerif-Bold-6e" x="1423.035156"/>
    </g>
   </g>
   <g id="text_10">
    <!-- FusionScore = 0.6×P_net + 0.4×P_host -->
    <g style="fill: #212121" transform="translate(63.530156 475.867846) scale(0.09 -0.09)">
     <defs>
      <path id="DejaVuSerif-3d" d="M 678 2894 
L 4684 2894 
L 4684 2394 
L 678 2394 
L 678 2894 
z
M 678 1619 
L 4684 1619 
L 4684 1119 
L 678 1119 
L 678 1619 
z
" transform="scale(0.015625)"/>
      <path id="DejaVuSerif-2e" d="M 603 325 
Q 603 500 722 622 
Q 841 744 1019 744 
Q 1191 744 1312 622 
Q 1434 500 1434 325 
Q 1434 153 1312 31 
Q 1191 -91 1019 -91 
Q 841 -91 722 29 
Q 603 150 603 325 
z
" transform="scale(0.015625)"/>
      <path id="DejaVuSerif-36" d="M 2094 219 
Q 2534 219 2771 542 
Q 3009 866 3009 1472 
Q 3009 2078 2771 2401 
Q 2534 2725 2094 2725 
Q 1647 2725 1412 2412 
Q 1178 2100 1178 1509 
Q 1178 888 1415 553 
Q 1653 219 2094 219 
z
M 1075 2569 
Q 1288 2803 1556 2918 
Q 1825 3034 2163 3034 
Q 2859 3034 3264 2615 
Q 3669 2197 3669 1472 
Q 3669 763 3233 336 
Q 2797 -91 2069 -91 
Q 1278 -91 853 498 
Q 428 1088 428 2181 
Q 428 3406 931 4078 
Q 1434 4750 2350 4750 
Q 2597 4750 2869 4703 
Q 3141 4656 3425 4563 
L 3425 3794 
L 3072 3794 
Q 3034 4109 2831 4275 
Q 2628 4441 2284 4441 
Q 1678 4441 1381 3981 
Q 1084 3522 1075 2569 
z
" transform="scale(0.015625)"/>
      <path id="DejaVuSerif-d7" d="M 4481 3450 
L 3034 2003 
L 4481 563 
L 4122 213 
L 2681 1650 
L 1241 213 
L 884 563 
L 2322 2003 
L 884 3450 
L 1241 3803 
L 2681 2363 
L 4122 3803 
L 4481 3450 
z
" transform="scale(0.015625)"/>
      <path id="DejaVuSerif-50" d="M 1581 2375 
L 2406 2375 
Q 2872 2375 3115 2626 
Q 3359 2878 3359 3353 
Q 3359 3831 3115 4081 
Q 2872 4331 2406 4331 
L 1581 4331 
L 1581 2375 
z
M 353 0 
L 353 331 
L 947 331 
L 947 4331 
L 353 4331 
L 353 4666 
L 2559 4666 
Q 3259 4666 3668 4311 
Q 4078 3956 4078 3353 
Q 4078 2753 3668 2397 
Q 3259 2041 2559 2041 
L 1581 2041 
L 1581 331 
L 2303 331 
L 2303 0 
L 353 0 
z
" transform="scale(0.015625)"/>
      <path id="DejaVuSerif-5f" d="M 3200 -1259 
L 3200 -1509 
L 0 -1509 
L 0 -1259 
L 3200 -1259 
z
" transform="scale(0.015625)"/>
      <path id="DejaVuSerif-2b" d="M 2931 4013 
L 2931 2259 
L 4684 2259 
L 4684 1753 
L 2931 1753 
L 2931 0 
L 2431 0 
L 2431 1753 
L 678 1753 
L 678 2259 
L 2431 2259 
L 2431 4013 
L 2931 4013 
z
" transform="scale(0.015625)"/>
      <path id="DejaVuSerif-34" d="M 2234 1581 
L 2234 4063 
L 641 1581 
L 2234 1581 
z
M 3609 0 
L 1484 0 
L 1484 331 
L 2234 331 
L 2234 1247 
L 197 1247 
L 197 1588 
L 2241 4750 
L 2859 4750 
L 2859 1581 
L 3750 1581 
L 3750 1247 
L 2859 1247 
L 2859 331 
L 3609 331 
L 3609 0 
z
" transform="scale(0.015625)"/>
      <path id="DejaVuSerif-68" d="M 263 0 
L 263 331 
L 781 331 
L 781 4531 
L 231 4531 
L 231 4863 
L 1356 4863 
L 1356 2731 
Q 1516 3069 1770 3241 
Q 2025 3413 2363 3413 
Q 2913 3413 3172 3097 
Q 3431 2781 3431 2113 
L 3431 331 
L 3944 331 
L 3944 0 
L 2356 0 
L 2356 331 
L 2853 331 
L 2853 1931 
Q 2853 2541 2704 2764 
Q 2556 2988 2175 2988 
Q 1775 2988 1565 2697 
Q 1356 2406 1356 1850 
L 1356 331 
L 1856 331 
L 1856 0 
L 263 0 
z
" transform="scale(0.015625)"/>
     </defs>
     <use xlink:href="#DejaVuSerif-46"/>
     <use xlink:href="#DejaVuSerif-75" x="69.384766"/>
     <use xlink:href="#DejaVuSerif-73" x="133.789062"/>
     <use xlink:href="#DejaVuSerif-69" x="185.107422"/>
     <use xlink:href="#DejaVuSerif-6f" x="217.089844"/>
     <use xlink:href="#DejaVuSerif-6e" x="277.294922"/>
     <use xlink:href="#DejaVuSerif-53" x="341.699219"/>
     <use xlink:href="#DejaVuSerif-63" x="410.205078"/>
     <use xlink:href="#DejaVuSerif-6f" x="466.210938"/>
     <use xlink:href="#DejaVuSerif-72" x="526.416016"/>
     <use xlink:href="#DejaVuSerif-65" x="574.21875"/>
     <use xlink:href="#DejaVuSerif-20" x="633.398438"/>
     <use xlink:href="#DejaVuSerif-3d" x="665.185547"/>
     <use xlink:href="#DejaVuSerif-20" x="748.974609"/>
     <use xlink:href="#DejaVuSerif-30" x="780.761719"/>
     <use xlink:href="#DejaVuSerif-2e" x="844.384766"/>
     <use xlink:href="#DejaVuSerif-36" x="876.171875"/>
     <use xlink:href="#DejaVuSerif-d7" x="939.794922"/>
     <use xlink:href="#DejaVuSerif-50" x="1023.583984"/>
     <use xlink:href="#DejaVuSerif-5f" x="1090.869141"/>
     <use xlink:href="#DejaVuSerif-6e" x="1140.869141"/>
     <use xlink:href="#DejaVuSerif-65" x="1205.273438"/>
     <use xlink:href="#DejaVuSerif-74" x="1264.453125"/>
     <use xlink:href="#DejaVuSerif-20" x="1304.638672"/>
     <use xlink:href="#DejaVuSerif-2b" x="1336.425781"/>
     <use xlink:href="#DejaVuSerif-20" x="1420.214844"/>
     <use xlink:href="#DejaVuSerif-30" x="1452.001953"/>
     <use xlink:href="#DejaVuSerif-2e" x="1515.625"/>
     <use xlink:href="#DejaVuSerif-34" x="1547.412109"/>
     <use xlink:href="#DejaVuSerif-d7" x="1611.035156"/>
     <use xlink:href="#DejaVuSerif-50" x="1694.824219"/>
     <use xlink:href="#DejaVuSerif-5f" x="1762.109375"/>
     <use xlink:href="#DejaVuSerif-68" x="1812.109375"/>
     <use xlink:href="#DejaVuSerif-6f" x="1876.513672"/>
     <use xlink:href="#DejaVuSerif-73" x="1936.71875"/>
     <use xlink:href="#DejaVuSerif-74" x="1988.037109"/>
    </g>
   </g>
   <g id="text_11">
    <!-- 6. Threshold Check -->
    <g style="fill: #2e7d32" transform="translate(95.006406 546.666617) scale(0.11 -0.11)">
     <defs>
      <path id="DejaVuSerif-Bold-36" d="M 1575 2766 
Q 1778 2928 2029 3009 
Q 2281 3091 2578 3091 
Q 3294 3091 3701 2672 
Q 4109 2253 4109 1522 
Q 4109 750 3650 329 
Q 3191 -91 2344 -91 
Q 1388 -91 895 486 
Q 403 1063 403 2181 
Q 403 3453 950 4101 
Q 1497 4750 2572 4750 
Q 2853 4750 3175 4703 
Q 3497 4656 3866 4563 
L 3866 3738 
L 3488 3738 
Q 3409 4056 3192 4220 
Q 2975 4384 2631 4384 
Q 2075 4384 1826 4003 
Q 1578 3622 1575 2766 
z
M 2272 275 
Q 2594 275 2731 548 
Q 2869 822 2869 1497 
Q 2869 2172 2731 2445 
Q 2594 2719 2272 2719 
Q 1950 2719 1814 2445 
Q 1678 2172 1678 1497 
Q 1678 822 1814 548 
Q 1950 275 2272 275 
z
" transform="scale(0.015625)"/>
      <path id="DejaVuSerif-Bold-54" d="M 1159 0 
L 1159 378 
L 1778 378 
L 1778 4238 
L 500 4238 
L 500 3500 
L 72 3500 
L 72 4666 
L 4697 4666 
L 4697 3500 
L 4275 3500 
L 4275 4238 
L 2988 4238 
L 2988 378 
L 3609 378 
L 3609 0 
L 1159 0 
z
" transform="scale(0.015625)"/>
      <path id="DejaVuSerif-Bold-43" d="M 4769 1331 
Q 4584 609 4106 259 
Q 3628 -91 2822 -91 
Q 1641 -91 955 561 
Q 269 1213 269 2328 
Q 269 3447 955 4098 
Q 1641 4750 2822 4750 
Q 3238 4750 3688 4650 
Q 4138 4550 4641 4347 
L 4641 3200 
L 4244 3200 
Q 4122 3788 3800 4080 
Q 3478 4372 2950 4372 
Q 2269 4372 1937 3870 
Q 1606 3369 1606 2328 
Q 1606 1288 1937 788 
Q 2269 288 2956 288 
Q 3422 288 3717 547 
Q 4013 806 4147 1331 
L 4769 1331 
z
" transform="scale(0.015625)"/>
      <path id="DejaVuSerif-Bold-6b" d="M 2216 0 
L 219 0 
L 219 378 
L 691 378 
L 691 4488 
L 219 4488 
L 219 4863 
L 1797 4863 
L 1797 1741 
L 3138 2944 
L 2741 2944 
L 2741 3322 
L 4256 3322 
L 4256 2944 
L 3641 2944 
L 2784 2175 
L 4184 378 
L 4544 378 
L 4544 0 
L 2638 0 
L 2638 378 
L 3028 378 
L 2106 1563 
L 1797 1288 
L 1797 378 
L 2216 378 
L 2216 0 
z
" transform="scale(0.015625)"/>
     </defs>
     <use xlink:href="#DejaVuSerif-Bold-36"/>
     <use xlink:href="#DejaVuSerif-Bold-2e" x="69.580078"/>
     <use xlink:href="#DejaVuSerif-Bold-20" x="104.394531"/>
     <use xlink:href="#DejaVuSerif-Bold-54" x="139.208984"/>
     <use xlink:href="#DejaVuSerif-Bold-68" x="213.623047"/>
     <use xlink:href="#DejaVuSerif-Bold-72" x="286.328125"/>
     <use xlink:href="#DejaVuSerif-Bold-65" x="339.013672"/>
     <use xlink:href="#DejaVuSerif-Bold-73" x="402.636719"/>
     <use xlink:href="#DejaVuSerif-Bold-68" x="458.935547"/>
     <use xlink:href="#DejaVuSerif-Bold-6f" x="531.640625"/>
     <use xlink:href="#DejaVuSerif-Bold-6c" x="598.339844"/>
     <use xlink:href="#DejaVuSerif-Bold-64" x="636.328125"/>
     <use xlink:href="#DejaVuSerif-Bold-20" x="706.25"/>
     <use xlink:href="#DejaVuSerif-Bold-43" x="741.064453"/>
     <use xlink:href="#DejaVuSerif-Bold-68" x="820.654297"/>
     <use xlink:href="#DejaVuSerif-Bold-65" x="893.359375"/>
     <use xlink:href="#DejaVuSerif-Bold-63" x="956.982422"/>
     <use xlink:href="#DejaVuSerif-Bold-6b" x="1017.871094"/>
    </g>
   </g>
   <g id="text_12">
    <!-- Score &gt;= 0.40? -->
    <g style="fill: #212121" transform="translate(112.025781 567.427201) scale(0.1 -0.1)">
     <defs>
      <path id="DejaVuSerif-Bold-3e" d="M 678 3059 
L 678 3809 
L 4684 2363 
L 4684 1656 
L 678 206 
L 678 953 
L 3738 2003 
L 678 3059 
z
" transform="scale(0.015625)"/>
      <path id="DejaVuSerif-Bold-3d" d="M 678 1650 
L 4684 1650 
L 4684 941 
L 678 941 
L 678 1650 
z
M 678 3072 
L 4684 3072 
L 4684 2363 
L 678 2363 
L 678 3072 
z
" transform="scale(0.015625)"/>
      <path id="DejaVuSerif-Bold-30" d="M 2228 275 
Q 2603 275 2742 615 
Q 2881 956 2881 2328 
Q 2881 3691 2742 4037 
Q 2603 4384 2228 4384 
Q 1853 4384 1714 4043 
Q 1575 3703 1575 2328 
Q 1575 956 1714 615 
Q 1853 275 2228 275 
z
M 2228 -91 
Q 1294 -91 797 532 
Q 300 1156 300 2328 
Q 300 3500 797 4125 
Q 1294 4750 2228 4750 
Q 3159 4750 3656 4125 
Q 4153 3500 4153 2328 
Q 4153 1156 3656 532 
Q 3159 -91 2228 -91 
z
" transform="scale(0.015625)"/>
      <path id="DejaVuSerif-Bold-3f" d="M 1069 506 
Q 1069 750 1244 925 
Q 1419 1100 1663 1100 
Q 1909 1100 2084 925 
Q 2259 750 2259 506 
Q 2259 259 2084 84 
Q 1909 -91 1663 -91 
Q 1419 -91 1244 84 
Q 1069 259 1069 506 
z
M 416 4538 
Q 803 4644 1153 4697 
Q 1503 4750 1831 4750 
Q 2619 4750 3041 4404 
Q 3463 4059 3463 3419 
Q 3463 2788 3055 2423 
Q 2647 2059 1881 2003 
L 1881 1363 
L 1447 1363 
L 1447 2297 
Q 1884 2431 2087 2718 
Q 2291 3006 2291 3488 
Q 2291 3938 2100 4167 
Q 1909 4397 1538 4397 
Q 1194 4397 1008 4190 
Q 822 3984 794 3578 
L 416 3578 
L 416 4538 
z
" transform="scale(0.015625)"/>
     </defs>
     <use xlink:href="#DejaVuSerif-Bold-53"/>
     <use xlink:href="#DejaVuSerif-Bold-63" x="72.216797"/>
     <use xlink:href="#DejaVuSerif-Bold-6f" x="133.105469"/>
     <use xlink:href="#DejaVuSerif-Bold-72" x="199.804688"/>
     <use xlink:href="#DejaVuSerif-Bold-65" x="252.490234"/>
     <use xlink:href="#DejaVuSerif-Bold-20" x="316.113281"/>
     <use xlink:href="#DejaVuSerif-Bold-3e" x="350.927734"/>
     <use xlink:href="#DejaVuSerif-Bold-3d" x="434.716797"/>
     <use xlink:href="#DejaVuSerif-Bold-20" x="518.505859"/>
     <use xlink:href="#DejaVuSerif-Bold-30" x="553.320312"/>
     <use xlink:href="#DejaVuSerif-Bold-2e" x="622.900391"/>
     <use xlink:href="#DejaVuSerif-Bold-34" x="657.714844"/>
     <use xlink:href="#DejaVuSerif-Bold-30" x="727.294922"/>
     <use xlink:href="#DejaVuSerif-Bold-3f" x="796.875"/>
    </g>
   </g>
   <g id="text_13">
    <!-- 7. Package SIEM Alerts -->
    <g style="fill: #c62828" transform="translate(75.9 638.015503) scale(0.12 -0.12)">
     <defs>
      <path id="DejaVuSerif-Bold-37" d="M 3922 3872 
L 1997 0 
L 1363 0 
L 3238 3781 
L 934 3781 
L 934 3150 
L 506 3150 
L 506 4666 
L 3922 4666 
L 3922 3872 
z
" transform="scale(0.015625)"/>
      <path id="DejaVuSerif-Bold-4d" d="M 269 0 
L 269 378 
L 863 378 
L 863 4288 
L 269 4288 
L 269 4666 
L 2194 4666 
L 3525 1672 
L 4863 4666 
L 6784 4666 
L 6784 4288 
L 6188 4288 
L 6188 378 
L 6784 378 
L 6784 0 
L 4384 0 
L 4384 378 
L 4978 378 
L 4978 3938 
L 3531 684 
L 2741 684 
L 1300 3938 
L 1300 378 
L 1894 378 
L 1894 0 
L 269 0 
z
" transform="scale(0.015625)"/>
     </defs>
     <use xlink:href="#DejaVuSerif-Bold-37"/>
     <use xlink:href="#DejaVuSerif-Bold-2e" x="69.580078"/>
     <use xlink:href="#DejaVuSerif-Bold-20" x="104.394531"/>
     <use xlink:href="#DejaVuSerif-Bold-50" x="139.208984"/>
     <use xlink:href="#DejaVuSerif-Bold-61" x="211.779297"/>
     <use xlink:href="#DejaVuSerif-Bold-63" x="276.574219"/>
     <use xlink:href="#DejaVuSerif-Bold-6b" x="337.462891"/>
     <use xlink:href="#DejaVuSerif-Bold-61" x="406.75"/>
     <use xlink:href="#DejaVuSerif-Bold-67" x="471.544922"/>
     <use xlink:href="#DejaVuSerif-Bold-65" x="541.466797"/>
     <use xlink:href="#DejaVuSerif-Bold-20" x="605.089844"/>
     <use xlink:href="#DejaVuSerif-Bold-53" x="639.904297"/>
     <use xlink:href="#DejaVuSerif-Bold-49" x="712.121094"/>
     <use xlink:href="#DejaVuSerif-Bold-45" x="758.898438"/>
     <use xlink:href="#DejaVuSerif-Bold-4d" x="835.119141"/>
     <use xlink:href="#DejaVuSerif-Bold-20" x="945.8125"/>
     <use xlink:href="#DejaVuSerif-Bold-41" x="980.626953"/>
     <use xlink:href="#DejaVuSerif-Bold-6c" x="1058.214844"/>
     <use xlink:href="#DejaVuSerif-Bold-65" x="1096.203125"/>
     <use xlink:href="#DejaVuSerif-Bold-72" x="1159.826172"/>
     <use xlink:href="#DejaVuSerif-Bold-74" x="1212.511719"/>
     <use xlink:href="#DejaVuSerif-Bold-73" x="1258.703125"/>
    </g>
   </g>
   <g id="text_14">
    <!-- Severity Classification &amp; Explainability -->
    <g style="fill: #212121" transform="translate(60.463516 658.379954) scale(0.095 -0.095)">
     <defs>
      <path id="DejaVuSerif-43" d="M 4513 1234 
Q 4306 581 3820 245 
Q 3334 -91 2591 -91 
Q 2134 -91 1743 65 
Q 1353 222 1050 525 
Q 700 875 529 1320 
Q 359 1766 359 2328 
Q 359 3416 987 4083 
Q 1616 4750 2644 4750 
Q 3025 4750 3456 4650 
Q 3888 4550 4384 4347 
L 4384 3272 
L 4031 3272 
Q 3916 3859 3567 4137 
Q 3219 4416 2591 4416 
Q 1844 4416 1459 3886 
Q 1075 3356 1075 2328 
Q 1075 1303 1459 773 
Q 1844 244 2591 244 
Q 3113 244 3450 492 
Q 3788 741 3938 1234 
L 4513 1234 
z
" transform="scale(0.015625)"/>
      <path id="DejaVuSerif-66" d="M 2753 4078 
L 2450 4078 
Q 2447 4313 2317 4434 
Q 2188 4556 1941 4556 
Q 1619 4556 1487 4379 
Q 1356 4203 1356 3750 
L 1356 3322 
L 2284 3322 
L 2284 2988 
L 1356 2988 
L 1356 331 
L 2094 331 
L 2094 0 
L 231 0 
L 231 331 
L 781 331 
L 781 2988 
L 231 2988 
L 231 3322 
L 781 3322 
L 781 3738 
Q 781 4294 1070 4578 
Q 1359 4863 1919 4863 
Q 2128 4863 2337 4825 
Q 2547 4788 2753 4709 
L 2753 4078 
z
" transform="scale(0.015625)"/>
      <path id="DejaVuSerif-45" d="M 353 0 
L 353 331 
L 947 331 
L 947 4331 
L 353 4331 
L 353 4666 
L 4109 4666 
L 4109 3628 
L 3725 3628 
L 3725 4281 
L 1581 4281 
L 1581 2719 
L 3109 2719 
L 3109 3303 
L 3494 3303 
L 3494 1753 
L 3109 1753 
L 3109 2338 
L 1581 2338 
L 1581 384 
L 3775 384 
L 3775 1038 
L 4159 1038 
L 4159 0 
L 353 0 
z
" transform="scale(0.015625)"/>
      <path id="DejaVuSerif-78" d="M 1863 2028 
L 2559 2988 
L 2113 2988 
L 2113 3322 
L 3391 3322 
L 3391 2988 
L 2950 2988 
L 2059 1759 
L 3097 331 
L 3531 331 
L 3531 0 
L 1997 0 
L 1997 331 
L 2419 331 
L 1697 1325 
L 972 331 
L 1403 331 
L 1403 0 
L 141 0 
L 141 331 
L 581 331 
L 1497 1594 
L 488 2988 
L 78 2988 
L 78 3322 
L 1563 3322 
L 1563 2988 
L 1166 2988 
L 1863 2028 
z
" transform="scale(0.015625)"/>
      <path id="DejaVuSerif-62" d="M 738 331 
L 738 4531 
L 184 4531 
L 184 4863 
L 1313 4863 
L 1313 2803 
Q 1481 3116 1742 3264 
Q 2003 3413 2388 3413 
Q 3000 3413 3387 2928 
Q 3775 2444 3775 1663 
Q 3775 881 3387 395 
Q 3000 -91 2388 -91 
Q 2003 -91 1742 57 
Q 1481 206 1313 519 
L 1313 0 
L 184 0 
L 184 331 
L 738 331 
z
M 1313 1497 
Q 1313 897 1542 583 
Q 1772 269 2209 269 
Q 2650 269 2876 622 
Q 3103 975 3103 1663 
Q 3103 2353 2876 2703 
Q 2650 3053 2209 3053 
Q 1772 3053 1542 2737 
Q 1313 2422 1313 1825 
L 1313 1497 
z
" transform="scale(0.015625)"/>
     </defs>
     <use xlink:href="#DejaVuSerif-53"/>
     <use xlink:href="#DejaVuSerif-65" x="68.505859"/>
     <use xlink:href="#DejaVuSerif-76" x="127.685547"/>
     <use xlink:href="#DejaVuSerif-65" x="184.179688"/>
     <use xlink:href="#DejaVuSerif-72" x="243.359375"/>
     <use xlink:href="#DejaVuSerif-69" x="291.162109"/>
     <use xlink:href="#DejaVuSerif-74" x="323.144531"/>
     <use xlink:href="#DejaVuSerif-79" x="363.330078"/>
     <use xlink:href="#DejaVuSerif-20" x="419.824219"/>
     <use xlink:href="#DejaVuSerif-43" x="451.611328"/>
     <use xlink:href="#DejaVuSerif-6c" x="528.125"/>
     <use xlink:href="#DejaVuSerif-61" x="560.107422"/>
     <use xlink:href="#DejaVuSerif-73" x="619.726562"/>
     <use xlink:href="#DejaVuSerif-73" x="671.044922"/>
     <use xlink:href="#DejaVuSerif-69" x="722.363281"/>
     <use xlink:href="#DejaVuSerif-66" x="754.345703"/>
     <use xlink:href="#DejaVuSerif-69" x="791.357422"/>
     <use xlink:href="#DejaVuSerif-63" x="823.339844"/>
     <use xlink:href="#DejaVuSerif-61" x="879.345703"/>
     <use xlink:href="#DejaVuSerif-74" x="938.964844"/>
     <use xlink:href="#DejaVuSerif-69" x="979.150391"/>
     <use xlink:href="#DejaVuSerif-6f" x="1011.132812"/>
     <use xlink:href="#DejaVuSerif-6e" x="1071.337891"/>
     <use xlink:href="#DejaVuSerif-20" x="1135.742188"/>
     <use xlink:href="#DejaVuSerif-26" x="1167.529297"/>
     <use xlink:href="#DejaVuSerif-20" x="1256.542969"/>
     <use xlink:href="#DejaVuSerif-45" x="1288.330078"/>
     <use xlink:href="#DejaVuSerif-78" x="1361.328125"/>
     <use xlink:href="#DejaVuSerif-70" x="1417.724609"/>
     <use xlink:href="#DejaVuSerif-6c" x="1481.738281"/>
     <use xlink:href="#DejaVuSerif-61" x="1513.720703"/>
     <use xlink:href="#DejaVuSerif-69" x="1573.339844"/>
     <use xlink:href="#DejaVuSerif-6e" x="1605.322266"/>
     <use xlink:href="#DejaVuSerif-61" x="1669.726562"/>
     <use xlink:href="#DejaVuSerif-62" x="1729.345703"/>
     <use xlink:href="#DejaVuSerif-69" x="1793.359375"/>
     <use xlink:href="#DejaVuSerif-6c" x="1825.341797"/>
     <use xlink:href="#DejaVuSerif-69" x="1857.324219"/>
     <use xlink:href="#DejaVuSerif-74" x="1889.306641"/>
     <use xlink:href="#DejaVuSerif-79" x="1929.492188"/>
    </g>
   </g>
   <g id="text_15">
    <!-- 8. Trigger SIEM / Dashboard -->
    <g style="fill: #c62828" transform="translate(58.5225 743.198111) scale(0.12 -0.12)">
     <defs>
      <path id="DejaVuSerif-Bold-38" d="M 2975 2484 
Q 3531 2394 3820 2075 
Q 4109 1756 4109 1241 
Q 4109 597 3623 253 
Q 3138 -91 2222 -91 
Q 1306 -91 818 253 
Q 331 597 331 1241 
Q 331 1756 622 2075 
Q 913 2394 1466 2484 
Q 975 2597 731 2861 
Q 488 3125 488 3531 
Q 488 4125 931 4437 
Q 1375 4750 2222 4750 
Q 3066 4750 3511 4437 
Q 3956 4125 3956 3531 
Q 3956 3125 3711 2861 
Q 3466 2597 2975 2484 
z
M 2747 3519 
Q 2747 4013 2628 4198 
Q 2509 4384 2222 4384 
Q 1931 4384 1814 4198 
Q 1697 4013 1697 3519 
Q 1697 3028 1814 2845 
Q 1931 2663 2222 2663 
Q 2513 2663 2630 2845 
Q 2747 3028 2747 3519 
z
M 2869 1294 
Q 2869 1866 2723 2081 
Q 2578 2297 2222 2297 
Q 1863 2297 1719 2081 
Q 1575 1866 1575 1294 
Q 1575 716 1720 495 
Q 1866 275 2222 275 
Q 2575 275 2722 495 
Q 2869 716 2869 1294 
z
" transform="scale(0.015625)"/>
      <path id="DejaVuSerif-Bold-2f" d="M 1644 4666 
L 2338 4666 
L 691 -594 
L 0 -594 
L 1644 4666 
z
" transform="scale(0.015625)"/>
      <path id="DejaVuSerif-Bold-44" d="M 2100 378 
L 2534 378 
Q 3266 378 3605 847 
Q 3944 1316 3944 2338 
Q 3944 3353 3606 3820 
Q 3269 4288 2534 4288 
L 2100 4288 
L 2100 378 
z
M 300 0 
L 300 378 
L 897 378 
L 897 4288 
L 300 4288 
L 300 4666 
L 2694 4666 
Q 3950 4666 4615 4066 
Q 5281 3466 5281 2338 
Q 5281 1203 4614 601 
Q 3947 0 2694 0 
L 300 0 
z
" transform="scale(0.015625)"/>
     </defs>
     <use xlink:href="#DejaVuSerif-Bold-38"/>
     <use xlink:href="#DejaVuSerif-Bold-2e" x="69.580078"/>
     <use xlink:href="#DejaVuSerif-Bold-20" x="104.394531"/>
     <use xlink:href="#DejaVuSerif-Bold-54" x="139.208984"/>
     <use xlink:href="#DejaVuSerif-Bold-72" x="206.373047"/>
     <use xlink:href="#DejaVuSerif-Bold-69" x="259.058594"/>
     <use xlink:href="#DejaVuSerif-Bold-67" x="297.046875"/>
     <use xlink:href="#DejaVuSerif-Bold-67" x="366.96875"/>
     <use xlink:href="#DejaVuSerif-Bold-65" x="436.890625"/>
     <use xlink:href="#DejaVuSerif-Bold-72" x="500.513672"/>
     <use xlink:href="#DejaVuSerif-Bold-20" x="553.199219"/>
     <use xlink:href="#DejaVuSerif-Bold-53" x="588.013672"/>
     <use xlink:href="#DejaVuSerif-Bold-49" x="660.230469"/>
     <use xlink:href="#DejaVuSerif-Bold-45" x="707.007812"/>
     <use xlink:href="#DejaVuSerif-Bold-4d" x="783.228516"/>
     <use xlink:href="#DejaVuSerif-Bold-20" x="893.921875"/>
     <use xlink:href="#DejaVuSerif-Bold-2f" x="928.736328"/>
     <use xlink:href="#DejaVuSerif-Bold-20" x="965.259766"/>
     <use xlink:href="#DejaVuSerif-Bold-44" x="1000.074219"/>
     <use xlink:href="#DejaVuSerif-Bold-61" x="1086.792969"/>
     <use xlink:href="#DejaVuSerif-Bold-73" x="1151.587891"/>
     <use xlink:href="#DejaVuSerif-Bold-68" x="1207.886719"/>
     <use xlink:href="#DejaVuSerif-Bold-62" x="1280.591797"/>
     <use xlink:href="#DejaVuSerif-Bold-6f" x="1350.513672"/>
     <use xlink:href="#DejaVuSerif-Bold-61" x="1417.212891"/>
     <use xlink:href="#DejaVuSerif-Bold-72" x="1482.007812"/>
     <use xlink:href="#DejaVuSerif-Bold-64" x="1534.693359"/>
    </g>
   </g>
   <g id="text_16">
    <!-- JSON Log Dispatch &amp; Console Alarm -->
    <g style="fill: #212121" transform="translate(65.756797 763.562563) scale(0.095 -0.095)">
     <defs>
      <path id="DejaVuSerif-4a" d="M -538 -1119 
L -538 -384 
L -181 -384 
Q -172 -694 -34 -845 
Q 103 -997 378 -997 
Q 750 -997 897 -762 
Q 1044 -528 1044 153 
L 1044 4331 
L 319 4331 
L 319 4666 
L 2272 4666 
L 2272 4331 
L 1678 4331 
L 1678 128 
Q 1678 -644 1368 -987 
Q 1059 -1331 372 -1331 
Q 150 -1331 -79 -1278 
Q -309 -1225 -538 -1119 
z
" transform="scale(0.015625)"/>
      <path id="DejaVuSerif-4f" d="M 2625 244 
Q 3391 244 3781 770 
Q 4172 1297 4172 2328 
Q 4172 3363 3781 3889 
Q 3391 4416 2625 4416 
Q 1856 4416 1465 3889 
Q 1075 3363 1075 2328 
Q 1075 1297 1465 770 
Q 1856 244 2625 244 
z
M 2625 -91 
Q 2150 -91 1751 65 
Q 1353 222 1050 525 
Q 700 875 529 1319 
Q 359 1763 359 2328 
Q 359 2894 529 3339 
Q 700 3784 1050 4134 
Q 1356 4441 1750 4595 
Q 2144 4750 2625 4750 
Q 3641 4750 4266 4084 
Q 4891 3419 4891 2328 
Q 4891 1769 4719 1320 
Q 4547 872 4197 525 
Q 3891 219 3497 64 
Q 3103 -91 2625 -91 
z
" transform="scale(0.015625)"/>
      <path id="DejaVuSerif-41" d="M 1281 1691 
L 2994 1691 
L 2138 3909 
L 1281 1691 
z
M -38 0 
L -38 331 
L 372 331 
L 2034 4666 
L 2559 4666 
L 4225 331 
L 4684 331 
L 4684 0 
L 2988 0 
L 2988 331 
L 3506 331 
L 3116 1356 
L 1153 1356 
L 763 331 
L 1275 331 
L 1275 0 
L -38 0 
z
" transform="scale(0.015625)"/>
     </defs>
     <use xlink:href="#DejaVuSerif-4a"/>
     <use xlink:href="#DejaVuSerif-53" x="40.087891"/>
     <use xlink:href="#DejaVuSerif-4f" x="108.59375"/>
     <use xlink:href="#DejaVuSerif-4e" x="190.576172"/>
     <use xlink:href="#DejaVuSerif-20" x="278.076172"/>
     <use xlink:href="#DejaVuSerif-4c" x="309.863281"/>
     <use xlink:href="#DejaVuSerif-6f" x="376.269531"/>
     <use xlink:href="#DejaVuSerif-67" x="436.474609"/>
     <use xlink:href="#DejaVuSerif-20" x="500.488281"/>
     <use xlink:href="#DejaVuSerif-44" x="532.275391"/>
     <use xlink:href="#DejaVuSerif-69" x="612.451172"/>
     <use xlink:href="#DejaVuSerif-73" x="644.433594"/>
     <use xlink:href="#DejaVuSerif-70" x="695.751953"/>
     <use xlink:href="#DejaVuSerif-61" x="759.765625"/>
     <use xlink:href="#DejaVuSerif-74" x="819.384766"/>
     <use xlink:href="#DejaVuSerif-63" x="859.570312"/>
     <use xlink:href="#DejaVuSerif-68" x="915.576172"/>
     <use xlink:href="#DejaVuSerif-20" x="979.980469"/>
     <use xlink:href="#DejaVuSerif-26" x="1011.767578"/>
     <use xlink:href="#DejaVuSerif-20" x="1100.78125"/>
     <use xlink:href="#DejaVuSerif-43" x="1132.568359"/>
     <use xlink:href="#DejaVuSerif-6f" x="1209.082031"/>
     <use xlink:href="#DejaVuSerif-6e" x="1269.287109"/>
     <use xlink:href="#DejaVuSerif-73" x="1333.691406"/>
     <use xlink:href="#DejaVuSerif-6f" x="1385.009766"/>
     <use xlink:href="#DejaVuSerif-6c" x="1445.214844"/>
     <use xlink:href="#DejaVuSerif-65" x="1477.197266"/>
     <use xlink:href="#DejaVuSerif-20" x="1536.376953"/>
     <use xlink:href="#DejaVuSerif-41" x="1568.164062"/>
     <use xlink:href="#DejaVuSerif-6c" x="1640.380859"/>
     <use xlink:href="#DejaVuSerif-61" x="1672.363281"/>
     <use xlink:href="#DejaVuSerif-72" x="1731.982422"/>
     <use xlink:href="#DejaVuSerif-6d" x="1779.785156"/>
    </g>
   </g>
   <g id="patch_10">
    <path d="M 156.55 128.405666 
Q 156.55 138.938055 156.55 149.470444 
L 159.8 149.470444 
Q 157.3 154.470248 154.8 159.470052 
Q 152.3 154.470248 149.8 149.470444 
L 153.05 149.470444 
Q 153.05 138.938055 153.05 128.405666 
L 156.55 128.405666 
z
" clip-path="url(#p34e9f2b606)" style="fill: #1e62a6; stroke: #1e62a6; stroke-linecap: round"/>
   </g>
   <g id="patch_11">
    <path d="M 156.55 219.563927 
Q 156.55 230.096316 156.55 240.628705 
L 159.8 240.628705 
Q 157.3 245.628509 154.8 250.628312 
Q 152.3 245.628509 149.8 240.628705 
L 153.05 240.628705 
Q 153.05 230.096316 153.05 219.563927 
L 156.55 219.563927 
z
" clip-path="url(#p34e9f2b606)" style="fill: #1e62a6; stroke: #1e62a6; stroke-linecap: round"/>
   </g>
   <g id="patch_12">
    <path d="M 156.55 310.722187 
Q 156.55 321.254577 156.55 331.786966 
L 159.8 331.786966 
Q 157.3 336.786769 154.8 341.786573 
Q 152.3 336.786769 149.8 331.786966 
L 153.05 331.786966 
Q 153.05 321.254577 153.05 310.722187 
L 156.55 310.722187 
z
" clip-path="url(#p34e9f2b606)" style="fill: #ef6c00; stroke: #ef6c00; stroke-linecap: round"/>
   </g>
   <g id="patch_13">
    <path d="M 156.55 401.880448 
Q 156.55 412.412837 156.55 422.945227 
L 159.8 422.945227 
Q 157.3 427.94503 154.8 432.944834 
Q 152.3 427.94503 149.8 422.945227 
L 153.05 422.945227 
Q 153.05 412.412837 153.05 401.880448 
L 156.55 401.880448 
z
" clip-path="url(#p34e9f2b606)" style="fill: #ef6c00; stroke: #ef6c00; stroke-linecap: round"/>
   </g>
   <g id="patch_14">
    <path d="M 156.55 493.040421 
Q 156.55 496.556395 156.55 500.07237 
L 159.8 500.07237 
Q 157.3 505.072913 154.8 510.073455 
Q 152.3 505.072913 149.8 500.07237 
L 153.05 500.07237 
Q 153.05 496.556395 153.05 493.040421 
L 156.55 493.040421 
z
" clip-path="url(#p34e9f2b606)" style="fill: #2e7d32; stroke: #2e7d32; stroke-linecap: round"/>
   </g>
   <g id="patch_15">
    <path d="M 156.55 598.22303 
Q 156.55 601.739004 156.55 605.254978 
L 159.8 605.254978 
Q 157.3 610.255521 154.8 615.256064 
Q 152.3 610.255521 149.8 605.254978 
L 153.05 605.254978 
Q 153.05 601.739004 153.05 598.22303 
L 156.55 598.22303 
z
" clip-path="url(#p34e9f2b606)" style="fill: #2e7d32; stroke: #2e7d32; stroke-linecap: round"/>
   </g>
   <g id="patch_16">
    <path d="M 156.55 675.354803 
Q 156.55 692.900477 156.55 710.446152 
L 159.8 710.446152 
Q 157.3 715.445245 154.8 720.444338 
Q 152.3 715.445245 149.8 710.446152 
L 153.05 710.446152 
Q 153.05 692.900477 153.05 675.354803 
L 156.55 675.354803 
z
" clip-path="url(#p34e9f2b606)" style="fill: #c62828; stroke: #c62828; stroke-linecap: round"/>
   </g>
   <g id="text_17">
    <!-- Yes -->
    <g style="fill: #2e7d32" transform="translate(164.863636 609.362276) scale(0.095 -0.095)">
     <defs>
      <path id="DejaVuSerif-Bold-59" d="M 1100 0 
L 1100 378 
L 1728 378 
L 1728 1931 
L 341 4288 
L -56 4288 
L -56 4666 
L 2181 4666 
L 2181 4288 
L 1663 4288 
L 2713 2509 
L 3756 4288 
L 3291 4288 
L 3291 4666 
L 4628 4666 
L 4628 4288 
L 4231 4288 
L 2938 2094 
L 2938 378 
L 3566 378 
L 3566 0 
L 1100 0 
z
" transform="scale(0.015625)"/>
     </defs>
     <use xlink:href="#DejaVuSerif-Bold-59"/>
     <use xlink:href="#DejaVuSerif-Bold-65" x="62.636719"/>
     <use xlink:href="#DejaVuSerif-Bold-73" x="126.259766"/>
    </g>
   </g>
  </g>
 </g>
 <defs>
  <clipPath id="p34e9f2b606">
   <rect x="7.2" y="7.2" width="295.2" height="806.4"/>
  </clipPath>
 </defs>
</svg>
